%TF.GenerationSoftware,KiCad,Pcbnew,8.99.0-2433-g53022ab347*%
%TF.CreationDate,2024-10-05T16:52:00+02:00*%
%TF.ProjectId,Flipper SAO Debug,466c6970-7065-4722-9053-414f20446562,1.0*%
%TF.SameCoordinates,PX25b7c30PY3881550*%
%TF.FileFunction,Profile,NP*%
%FSLAX46Y46*%
G04 Gerber Fmt 4.6, Leading zero omitted, Abs format (unit mm)*
G04 Created by KiCad (PCBNEW 8.99.0-2433-g53022ab347) date 2024-10-05 16:52:00*
%MOMM*%
%LPD*%
G01*
G04 APERTURE LIST*
%TA.AperFunction,Profile*%
%ADD10C,0.050000*%
%TD*%
G04 APERTURE END LIST*
D10*
X83000000Y0D02*
G75*
G02*
X86000000Y-3000000I0J-3000000D01*
G01*
X86000000Y-3000000D02*
X86000000Y-33000000D01*
X0Y-33000000D02*
X0Y-3000000D01*
X0Y-3000000D02*
G75*
G02*
X3000000Y0I3000000J0D01*
G01*
X83000000Y-36000000D02*
X74750000Y-36000000D01*
X73480000Y-37270000D02*
G75*
G02*
X74750000Y-36000000I1270000J0D01*
G01*
X3000000Y-36000000D02*
G75*
G02*
X0Y-33000000I0J3000000D01*
G01*
X12520000Y-38540000D02*
X12520000Y-37270000D01*
X12520000Y-38540000D02*
X32840000Y-38540000D01*
X11250000Y-36000000D02*
G75*
G02*
X12520000Y-37270000I0J-1270000D01*
G01*
X34110000Y-36000000D02*
X46810000Y-36000000D01*
X3000000Y-36000000D02*
X11250000Y-36000000D01*
X32840000Y-37270000D02*
G75*
G02*
X34110000Y-36000000I1270000J0D01*
G01*
X48080000Y-38540000D02*
X48080000Y-37270000D01*
X73480000Y-38540000D02*
X73480000Y-37270000D01*
X86000000Y-33000000D02*
G75*
G02*
X83000000Y-36000000I-3000000J0D01*
G01*
X46810000Y-36000000D02*
G75*
G02*
X48080000Y-37270000I0J-1270000D01*
G01*
X32840000Y-38540000D02*
X32840000Y-37270000D01*
X3000000Y0D02*
X83000000Y0D01*
X48080000Y-38540000D02*
X73480000Y-38540000D01*
M02*
