%TF.GenerationSoftware,KiCad,Pcbnew,8.99.0-2433-g53022ab347*%
%TF.CreationDate,2024-10-05T16:52:00+02:00*%
%TF.ProjectId,Flipper SAO Debug,466c6970-7065-4722-9053-414f20446562,1.0*%
%TF.SameCoordinates,PX25b7c30PY3881550*%
%TF.FileFunction,Copper,L1,Top*%
%TF.FilePolarity,Positive*%
%FSLAX46Y46*%
G04 Gerber Fmt 4.6, Leading zero omitted, Abs format (unit mm)*
G04 Created by KiCad (PCBNEW 8.99.0-2433-g53022ab347) date 2024-10-05 16:52:00*
%MOMM*%
%LPD*%
G01*
G04 APERTURE LIST*
G04 Aperture macros list*
%AMRoundRect*
0 Rectangle with rounded corners*
0 $1 Rounding radius*
0 $2 $3 $4 $5 $6 $7 $8 $9 X,Y pos of 4 corners*
0 Add a 4 corners polygon primitive as box body*
4,1,4,$2,$3,$4,$5,$6,$7,$8,$9,$2,$3,0*
0 Add four circle primitives for the rounded corners*
1,1,$1+$1,$2,$3*
1,1,$1+$1,$4,$5*
1,1,$1+$1,$6,$7*
1,1,$1+$1,$8,$9*
0 Add four rect primitives between the rounded corners*
20,1,$1+$1,$2,$3,$4,$5,0*
20,1,$1+$1,$4,$5,$6,$7,0*
20,1,$1+$1,$6,$7,$8,$9,0*
20,1,$1+$1,$8,$9,$2,$3,0*%
G04 Aperture macros list end*
%TA.AperFunction,ComponentPad*%
%ADD10C,0.700000*%
%TD*%
%TA.AperFunction,ComponentPad*%
%ADD11C,4.400000*%
%TD*%
%TA.AperFunction,SMDPad,CuDef*%
%ADD12RoundRect,0.200000X0.200000X0.275000X-0.200000X0.275000X-0.200000X-0.275000X0.200000X-0.275000X0*%
%TD*%
%TA.AperFunction,ComponentPad*%
%ADD13O,1.727200X1.727200*%
%TD*%
%TA.AperFunction,ComponentPad*%
%ADD14R,1.727200X1.727200*%
%TD*%
%TA.AperFunction,ComponentPad*%
%ADD15C,1.727200*%
%TD*%
%TA.AperFunction,SMDPad,CuDef*%
%ADD16RoundRect,0.200000X-0.200000X-0.275000X0.200000X-0.275000X0.200000X0.275000X-0.200000X0.275000X0*%
%TD*%
%TA.AperFunction,ComponentPad*%
%ADD17RoundRect,0.425000X-0.425000X0.425000X-0.425000X-0.425000X0.425000X-0.425000X0.425000X0.425000X0*%
%TD*%
%TA.AperFunction,ComponentPad*%
%ADD18O,1.700000X1.700000*%
%TD*%
%TA.AperFunction,SMDPad,CuDef*%
%ADD19RoundRect,0.150000X0.625000X-0.150000X0.625000X0.150000X-0.625000X0.150000X-0.625000X-0.150000X0*%
%TD*%
%TA.AperFunction,SMDPad,CuDef*%
%ADD20RoundRect,0.250000X0.650000X-0.350000X0.650000X0.350000X-0.650000X0.350000X-0.650000X-0.350000X0*%
%TD*%
%TA.AperFunction,ViaPad*%
%ADD21C,0.600000*%
%TD*%
%TA.AperFunction,Conductor*%
%ADD22C,0.200000*%
%TD*%
%TA.AperFunction,Conductor*%
%ADD23C,0.400000*%
%TD*%
G04 APERTURE END LIST*
D10*
%TO.P,REF\u002A\u002A,1*%
%TO.N,GND*%
X1350000Y-3000000D03*
X1833274Y-1833274D03*
X1833274Y-4166726D03*
X3000000Y-1350000D03*
D11*
X3000000Y-3000000D03*
D10*
X3000000Y-4650000D03*
X4166726Y-1833274D03*
X4166726Y-4166726D03*
X4650000Y-3000000D03*
%TD*%
D12*
%TO.P,R2,1*%
%TO.N,Net-(X2-VCC)*%
X13345000Y-8060000D03*
%TO.P,R2,2*%
%TO.N,Net-(J1-Pin_5)*%
X11695000Y-8060000D03*
%TD*%
D13*
%TO.P,X2,1,VCC*%
%TO.N,Net-(X2-VCC)*%
X20200000Y-8080000D03*
D14*
%TO.P,X2,2,GND*%
%TO.N,GND*%
X20200000Y-10620000D03*
D13*
%TO.P,X2,3,SDA*%
%TO.N,I2C3_SDA*%
X22740000Y-8080000D03*
%TO.P,X2,4,SCL*%
%TO.N,I2C3_SCL*%
X22740000Y-10620000D03*
D15*
%TO.P,X2,5,GPIO1*%
%TO.N,GPIO1*%
X25280000Y-8080000D03*
%TO.P,X2,6,GPIO2*%
%TO.N,GPIO2*%
X25280000Y-10620000D03*
%TD*%
D10*
%TO.P,REF\u002A\u002A,1*%
%TO.N,GND*%
X81350000Y-33000000D03*
X81833274Y-31833274D03*
X81833274Y-34166726D03*
X83000000Y-31350000D03*
D11*
X83000000Y-33000000D03*
D10*
X83000000Y-34650000D03*
X84166726Y-31833274D03*
X84166726Y-34166726D03*
X84650000Y-33000000D03*
%TD*%
%TO.P,REF\u002A\u002A,1*%
%TO.N,GND*%
X81350000Y-3000000D03*
X81833274Y-1833274D03*
X81833274Y-4166726D03*
X83000000Y-1350000D03*
D11*
X83000000Y-3000000D03*
D10*
X83000000Y-4650000D03*
X84166726Y-1833274D03*
X84166726Y-4166726D03*
X84650000Y-3000000D03*
%TD*%
D16*
%TO.P,R1,1*%
%TO.N,Net-(J1-Pin_5)*%
X11695000Y-10600000D03*
%TO.P,R1,2*%
%TO.N,GND*%
X13345000Y-10600000D03*
%TD*%
D17*
%TO.P,J1,1,Pin_1*%
%TO.N,GND*%
X31570000Y-34730000D03*
D18*
%TO.P,J1,2,Pin_2*%
%TO.N,unconnected-(J1-Pin_2-Pad2)*%
X29029996Y-34729999D03*
%TO.P,J1,3,Pin_3*%
%TO.N,unconnected-(J1-Pin_3-Pad3)*%
X26490000Y-34730000D03*
%TO.P,J1,4,Pin_4*%
%TO.N,unconnected-(J1-Pin_4-Pad4)*%
X23950000Y-34730000D03*
%TO.P,J1,5,Pin_5*%
%TO.N,Net-(J1-Pin_5)*%
X21410001Y-34730000D03*
%TO.P,J1,6,Pin_6*%
%TO.N,GPIO2*%
X18870001Y-34730000D03*
%TO.P,J1,7,Pin_7*%
%TO.N,GPIO1*%
X16330000Y-34730000D03*
%TO.P,J1,8,Pin_8*%
%TO.N,unconnected-(J1-Pin_8-Pad8)*%
X13790000Y-34730000D03*
%TD*%
D10*
%TO.P,REF\u002A\u002A,1*%
%TO.N,GND*%
X1350000Y-33000000D03*
X1833274Y-31833274D03*
X1833274Y-34166726D03*
X3000000Y-31350000D03*
D11*
X3000000Y-33000000D03*
D10*
X3000000Y-34650000D03*
X4166726Y-31833274D03*
X4166726Y-34166726D03*
X4650000Y-33000000D03*
%TD*%
D19*
%TO.P,J3,1,Pin_1*%
%TO.N,GND*%
X80700000Y-24500000D03*
%TO.P,J3,2,Pin_2*%
%TO.N,VCC*%
X80700000Y-23500000D03*
%TO.P,J3,3,Pin_3*%
%TO.N,I2C3_SDA*%
X80700000Y-22500000D03*
%TO.P,J3,4,Pin_4*%
%TO.N,I2C3_SCL*%
X80700001Y-21500000D03*
D20*
%TO.P,J3,MP*%
%TO.N,N/C*%
X84574998Y-25800000D03*
X84575001Y-20200000D03*
%TD*%
D12*
%TO.P,R4,1*%
%TO.N,VCC*%
X71765000Y-8060000D03*
%TO.P,R4,2*%
%TO.N,I2C3_SDA*%
X70115000Y-8060000D03*
%TD*%
%TO.P,R3,1*%
%TO.N,VCC*%
X71765000Y-10600000D03*
%TO.P,R3,2*%
%TO.N,I2C3_SCL*%
X70115000Y-10600000D03*
%TD*%
D13*
%TO.P,X1,1,VCC*%
%TO.N,VCC*%
X58300000Y-8080000D03*
D14*
%TO.P,X1,2,GND*%
%TO.N,GND*%
X58300000Y-10620000D03*
D13*
%TO.P,X1,3,SDA*%
%TO.N,I2C3_SDA*%
X60840000Y-8080000D03*
%TO.P,X1,4,SCL*%
%TO.N,I2C3_SCL*%
X60840000Y-10620000D03*
D15*
%TO.P,X1,5,GPIO1*%
%TO.N,GPIO1*%
X63380000Y-8080000D03*
%TO.P,X1,6,GPIO2*%
%TO.N,GPIO2*%
X63380000Y-10620000D03*
%TD*%
D17*
%TO.P,J2,1,Pin_1*%
%TO.N,GND*%
X72210000Y-34730000D03*
D18*
%TO.P,J2,2,Pin_2*%
%TO.N,unconnected-(J2-Pin_2-Pad2)*%
X69669996Y-34729998D03*
%TO.P,J2,3,Pin_3*%
%TO.N,I2C3_SCL*%
X67130000Y-34730000D03*
%TO.P,J2,4,Pin_4*%
%TO.N,I2C3_SDA*%
X64590000Y-34730000D03*
%TO.P,J2,5,Pin_5*%
%TO.N,unconnected-(J2-Pin_5-Pad5)*%
X62050001Y-34729997D03*
%TO.P,J2,6,Pin_6*%
%TO.N,unconnected-(J2-Pin_6-Pad6)*%
X59510001Y-34730000D03*
%TO.P,J2,7,Pin_7*%
%TO.N,unconnected-(J2-Pin_7-Pad7)*%
X56970000Y-34730000D03*
D17*
%TO.P,J2,8,Pin_8*%
%TO.N,GND*%
X54430000Y-34730000D03*
D18*
%TO.P,J2,9,Pin_9*%
%TO.N,unconnected-(J2-Pin_9-Pad9)*%
X51890000Y-34730000D03*
%TO.P,J2,10,Pin_10*%
%TO.N,VCC*%
X49350002Y-34730000D03*
%TD*%
D21*
%TO.N,GND*%
X55850000Y-10650000D03*
X82750000Y-24550000D03*
X28100000Y-10650000D03*
X65150000Y-9200000D03*
X14500000Y-10550000D03*
%TO.N,I2C3_SDA*%
X69754265Y-32954265D03*
%TO.N,VCC*%
X71200000Y-32500000D03*
%TD*%
D22*
%TO.N,I2C3_SCL*%
X79600000Y-22100000D02*
X79600000Y-21500000D01*
X65700000Y-10600000D02*
X70115000Y-10600000D01*
X59460000Y-12000000D02*
X24120000Y-12000000D01*
X24120000Y-12000000D02*
X22740000Y-10620000D01*
X74700000Y-31400000D02*
X75600000Y-30500000D01*
X70115000Y-11515000D02*
X79600000Y-21000000D01*
X67130000Y-34730000D02*
X70460000Y-31400000D01*
X79600000Y-21000000D02*
X79600000Y-21500000D01*
X70460000Y-31400000D02*
X74700000Y-31400000D01*
X70115000Y-10600000D02*
X70115000Y-11515000D01*
X62220000Y-12000000D02*
X64300000Y-12000000D01*
X79600000Y-21500000D02*
X80700001Y-21500000D01*
X64300000Y-12000000D02*
X65700000Y-10600000D01*
X75600000Y-26100000D02*
X79600000Y-22100000D01*
X60840000Y-10620000D02*
X59460000Y-12000000D01*
X60840000Y-10620000D02*
X62220000Y-12000000D01*
X75600000Y-30500000D02*
X75600000Y-26100000D01*
%TO.N,I2C3_SDA*%
X70115000Y-8060000D02*
X70115000Y-8915000D01*
X82400000Y-20900000D02*
X82400000Y-22100000D01*
X81900000Y-20400000D02*
X82400000Y-20900000D01*
X70908530Y-31800000D02*
X74865686Y-31800000D01*
X70115000Y-7115000D02*
X70115000Y-8060000D01*
X59620000Y-9300000D02*
X23960000Y-9300000D01*
X69754265Y-32954265D02*
X70908530Y-31800000D01*
X61100000Y-6600000D02*
X69600000Y-6600000D01*
X82400000Y-22100000D02*
X82000000Y-22500000D01*
X76000000Y-26265686D02*
X79765686Y-22500000D01*
X71000000Y-9800000D02*
X71000000Y-11834314D01*
X70115000Y-8915000D02*
X71000000Y-9800000D01*
X60840000Y-8080000D02*
X60840000Y-6860000D01*
X76000000Y-30665686D02*
X76000000Y-26265686D01*
X74865686Y-31800000D02*
X76000000Y-30665686D01*
X60840000Y-6860000D02*
X61100000Y-6600000D01*
X71000000Y-11834314D02*
X79565686Y-20400000D01*
X79765686Y-22500000D02*
X80700000Y-22500000D01*
X23960000Y-9300000D02*
X22740000Y-8080000D01*
X82000000Y-22500000D02*
X80700000Y-22500000D01*
X79565686Y-20400000D02*
X81900000Y-20400000D01*
X60840000Y-8080000D02*
X59620000Y-9300000D01*
X69600000Y-6600000D02*
X70115000Y-7115000D01*
%TO.N,VCC*%
X71765000Y-7165000D02*
X70800000Y-6200000D01*
X60180000Y-6200000D02*
X58300000Y-8080000D01*
X70800000Y-6200000D02*
X60180000Y-6200000D01*
D23*
X79472792Y-23500000D02*
X80700000Y-23500000D01*
D22*
X71765000Y-8060000D02*
X71765000Y-7165000D01*
D23*
X71200000Y-32500000D02*
X74872792Y-32500000D01*
X74872792Y-32500000D02*
X76500000Y-30872792D01*
X76500000Y-26472792D02*
X79472792Y-23500000D01*
X76500000Y-30872792D02*
X76500000Y-26472792D01*
D22*
X71765000Y-8060000D02*
X71765000Y-10600000D01*
%TO.N,Net-(X2-VCC)*%
X13365000Y-8080000D02*
X13345000Y-8060000D01*
X20200000Y-8080000D02*
X13365000Y-8080000D01*
%TO.N,Net-(J1-Pin_5)*%
X11695000Y-8060000D02*
X11695000Y-10600000D01*
X11695000Y-25014999D02*
X11695000Y-10600000D01*
X21410001Y-34730000D02*
X11695000Y-25014999D01*
%TD*%
%TA.AperFunction,Conductor*%
%TO.N,GND*%
G36*
X57201051Y-9619407D02*
G01*
X57237015Y-9668907D01*
X57239958Y-9718814D01*
X57236400Y-9736699D01*
X57236400Y-10519999D01*
X57236401Y-10520000D01*
X57800874Y-10520000D01*
X57792000Y-10553120D01*
X57792000Y-10686880D01*
X57800874Y-10720000D01*
X57236401Y-10720000D01*
X57236400Y-10720001D01*
X57236400Y-11503300D01*
X57248003Y-11561636D01*
X57248408Y-11562612D01*
X57248545Y-11564359D01*
X57249906Y-11571199D01*
X57249096Y-11571359D01*
X57253210Y-11623609D01*
X57221242Y-11675779D01*
X57164715Y-11699195D01*
X57156945Y-11699500D01*
X25912964Y-11699500D01*
X25854773Y-11680593D01*
X25818809Y-11631093D01*
X25818809Y-11569907D01*
X25854773Y-11520407D01*
X25866295Y-11513190D01*
X25871639Y-11510332D01*
X25874043Y-11509048D01*
X26036073Y-11376073D01*
X26169048Y-11214043D01*
X26169052Y-11214034D01*
X26169055Y-11214031D01*
X26233543Y-11093381D01*
X26267857Y-11029184D01*
X26328704Y-10828600D01*
X26349249Y-10620000D01*
X26339400Y-10519999D01*
X26328705Y-10411405D01*
X26328704Y-10411402D01*
X26328704Y-10411400D01*
X26267857Y-10210816D01*
X26261997Y-10199852D01*
X26169055Y-10025968D01*
X26169050Y-10025961D01*
X26169048Y-10025957D01*
X26086195Y-9925001D01*
X26036077Y-9863931D01*
X26036068Y-9863922D01*
X25928968Y-9776028D01*
X25895981Y-9724497D01*
X25899583Y-9663418D01*
X25938398Y-9616121D01*
X25991773Y-9600500D01*
X57142860Y-9600500D01*
X57201051Y-9619407D01*
G37*
%TD.AperFunction*%
%TA.AperFunction,Conductor*%
G36*
X62993968Y-6919407D02*
G01*
X63029932Y-6968907D01*
X63029932Y-7030093D01*
X62993968Y-7079593D01*
X62973659Y-7090966D01*
X62970807Y-7092146D01*
X62785968Y-7190944D01*
X62785958Y-7190951D01*
X62623931Y-7323922D01*
X62623922Y-7323931D01*
X62490951Y-7485958D01*
X62490944Y-7485968D01*
X62392145Y-7670810D01*
X62392144Y-7670812D01*
X62331295Y-7871402D01*
X62331294Y-7871405D01*
X62310751Y-8079996D01*
X62310751Y-8080003D01*
X62331294Y-8288594D01*
X62331295Y-8288597D01*
X62392144Y-8489187D01*
X62392145Y-8489189D01*
X62490944Y-8674031D01*
X62490950Y-8674040D01*
X62490952Y-8674043D01*
X62529198Y-8720646D01*
X62623922Y-8836068D01*
X62623931Y-8836077D01*
X62695330Y-8894672D01*
X62785957Y-8969048D01*
X62785961Y-8969050D01*
X62785968Y-8969055D01*
X62970810Y-9067854D01*
X62970816Y-9067857D01*
X63171400Y-9128704D01*
X63171402Y-9128704D01*
X63171405Y-9128705D01*
X63379997Y-9149249D01*
X63380000Y-9149249D01*
X63380003Y-9149249D01*
X63588594Y-9128705D01*
X63588595Y-9128704D01*
X63588600Y-9128704D01*
X63789184Y-9067857D01*
X63889349Y-9014318D01*
X63974031Y-8969055D01*
X63974034Y-8969052D01*
X63974043Y-8969048D01*
X64136073Y-8836073D01*
X64269048Y-8674043D01*
X64269052Y-8674034D01*
X64269055Y-8674031D01*
X64332432Y-8555459D01*
X64367857Y-8489184D01*
X64428704Y-8288600D01*
X64449249Y-8080000D01*
X64449249Y-8079996D01*
X64428705Y-7871405D01*
X64428704Y-7871402D01*
X64428704Y-7871400D01*
X64367857Y-7670816D01*
X64367852Y-7670807D01*
X64269055Y-7485968D01*
X64269050Y-7485961D01*
X64269048Y-7485957D01*
X64175927Y-7372489D01*
X64136077Y-7323931D01*
X64136068Y-7323922D01*
X64012226Y-7222288D01*
X63974043Y-7190952D01*
X63974040Y-7190950D01*
X63974031Y-7190944D01*
X63789192Y-7092146D01*
X63786341Y-7090966D01*
X63785267Y-7090048D01*
X63784895Y-7089850D01*
X63784938Y-7089768D01*
X63739814Y-7051231D01*
X63725528Y-6991736D01*
X63748940Y-6935208D01*
X63801108Y-6903236D01*
X63824223Y-6900500D01*
X69434521Y-6900500D01*
X69492712Y-6919407D01*
X69504525Y-6929496D01*
X69785504Y-7210475D01*
X69789130Y-7217592D01*
X69795593Y-7222288D01*
X69802756Y-7244336D01*
X69813281Y-7264992D01*
X69814500Y-7280479D01*
X69814500Y-7326048D01*
X69795593Y-7384239D01*
X69760446Y-7414257D01*
X69676659Y-7456949D01*
X69586949Y-7546659D01*
X69529354Y-7659695D01*
X69514500Y-7753477D01*
X69514500Y-8366520D01*
X69514501Y-8366523D01*
X69529352Y-8460299D01*
X69529354Y-8460304D01*
X69586950Y-8573342D01*
X69676658Y-8663050D01*
X69760446Y-8705742D01*
X69803710Y-8749006D01*
X69814500Y-8793951D01*
X69814500Y-8954564D01*
X69834978Y-9030988D01*
X69851462Y-9059538D01*
X69851462Y-9059539D01*
X69856265Y-9067858D01*
X69874540Y-9099511D01*
X70259540Y-9484511D01*
X70557121Y-9782092D01*
X70584898Y-9836609D01*
X70575327Y-9897041D01*
X70532062Y-9940306D01*
X70471630Y-9949877D01*
X70442171Y-9940305D01*
X70440304Y-9939354D01*
X70440305Y-9939354D01*
X70346522Y-9924500D01*
X69883479Y-9924500D01*
X69883476Y-9924501D01*
X69789700Y-9939352D01*
X69789695Y-9939354D01*
X69676659Y-9996949D01*
X69586949Y-10086659D01*
X69529354Y-10199695D01*
X69526774Y-10215986D01*
X69498997Y-10270503D01*
X69444481Y-10298281D01*
X69428993Y-10299500D01*
X65660435Y-10299500D01*
X65584011Y-10319978D01*
X65554014Y-10337297D01*
X65549372Y-10339978D01*
X65515489Y-10359540D01*
X64204525Y-11670504D01*
X64150008Y-11698281D01*
X64134521Y-11699500D01*
X64012964Y-11699500D01*
X63954773Y-11680593D01*
X63918809Y-11631093D01*
X63918809Y-11569907D01*
X63954773Y-11520407D01*
X63966295Y-11513190D01*
X63971639Y-11510332D01*
X63974043Y-11509048D01*
X64136073Y-11376073D01*
X64269048Y-11214043D01*
X64269052Y-11214034D01*
X64269055Y-11214031D01*
X64333543Y-11093381D01*
X64367857Y-11029184D01*
X64428704Y-10828600D01*
X64449249Y-10620000D01*
X64439400Y-10519999D01*
X64428705Y-10411405D01*
X64428704Y-10411402D01*
X64428704Y-10411400D01*
X64367857Y-10210816D01*
X64361997Y-10199852D01*
X64269055Y-10025968D01*
X64269050Y-10025961D01*
X64269048Y-10025957D01*
X64186195Y-9925001D01*
X64136077Y-9863931D01*
X64136068Y-9863922D01*
X64028968Y-9776028D01*
X63974043Y-9730952D01*
X63974040Y-9730950D01*
X63974031Y-9730944D01*
X63789189Y-9632145D01*
X63789187Y-9632144D01*
X63734283Y-9615489D01*
X63588600Y-9571296D01*
X63588597Y-9571295D01*
X63588594Y-9571294D01*
X63380003Y-9550751D01*
X63379997Y-9550751D01*
X63171405Y-9571294D01*
X63171402Y-9571295D01*
X62970812Y-9632144D01*
X62970810Y-9632145D01*
X62785968Y-9730944D01*
X62785958Y-9730951D01*
X62623931Y-9863922D01*
X62623922Y-9863931D01*
X62490951Y-10025958D01*
X62490944Y-10025968D01*
X62392145Y-10210810D01*
X62392144Y-10210812D01*
X62331295Y-10411402D01*
X62331294Y-10411405D01*
X62310751Y-10619996D01*
X62310751Y-10620003D01*
X62331294Y-10828594D01*
X62331295Y-10828597D01*
X62331296Y-10828600D01*
X62391329Y-11026502D01*
X62392144Y-11029187D01*
X62392145Y-11029189D01*
X62490944Y-11214031D01*
X62490950Y-11214040D01*
X62490952Y-11214043D01*
X62541387Y-11275498D01*
X62623922Y-11376068D01*
X62623931Y-11376077D01*
X62692586Y-11432420D01*
X62785957Y-11509048D01*
X62785962Y-11509050D01*
X62785964Y-11509052D01*
X62793705Y-11513190D01*
X62836111Y-11557296D01*
X62844494Y-11617904D01*
X62815651Y-11671865D01*
X62760600Y-11698566D01*
X62747036Y-11699500D01*
X62385479Y-11699500D01*
X62327288Y-11680593D01*
X62315475Y-11670504D01*
X61826236Y-11181265D01*
X61798459Y-11126748D01*
X61808030Y-11066316D01*
X61808931Y-11064591D01*
X61827853Y-11029191D01*
X61827854Y-11029189D01*
X61827857Y-11029184D01*
X61888704Y-10828600D01*
X61909249Y-10620000D01*
X61899400Y-10519999D01*
X61888705Y-10411405D01*
X61888704Y-10411402D01*
X61888704Y-10411400D01*
X61827857Y-10210816D01*
X61821997Y-10199852D01*
X61729055Y-10025968D01*
X61729050Y-10025961D01*
X61729048Y-10025957D01*
X61646195Y-9925001D01*
X61596077Y-9863931D01*
X61596068Y-9863922D01*
X61488968Y-9776028D01*
X61434043Y-9730952D01*
X61434040Y-9730950D01*
X61434031Y-9730944D01*
X61249189Y-9632145D01*
X61249187Y-9632144D01*
X61194283Y-9615489D01*
X61048600Y-9571296D01*
X61048597Y-9571295D01*
X61048594Y-9571294D01*
X60840003Y-9550751D01*
X60839997Y-9550751D01*
X60631405Y-9571294D01*
X60631402Y-9571295D01*
X60430812Y-9632144D01*
X60430810Y-9632145D01*
X60245968Y-9730944D01*
X60245958Y-9730951D01*
X60083931Y-9863922D01*
X60083922Y-9863931D01*
X59950951Y-10025958D01*
X59950944Y-10025968D01*
X59852145Y-10210810D01*
X59852144Y-10210812D01*
X59791295Y-10411402D01*
X59791294Y-10411405D01*
X59770751Y-10619996D01*
X59770751Y-10620003D01*
X59791294Y-10828594D01*
X59791295Y-10828597D01*
X59791296Y-10828600D01*
X59852143Y-11029184D01*
X59871069Y-11064592D01*
X59881826Y-11124823D01*
X59855124Y-11179875D01*
X59853763Y-11181263D01*
X59532604Y-11502423D01*
X59478087Y-11530201D01*
X59417655Y-11520630D01*
X59374390Y-11477365D01*
X59363600Y-11432420D01*
X59363600Y-10720001D01*
X59363599Y-10720000D01*
X58799126Y-10720000D01*
X58808000Y-10686880D01*
X58808000Y-10553120D01*
X58799126Y-10520000D01*
X59363599Y-10520000D01*
X59363600Y-10519999D01*
X59363600Y-9736702D01*
X59363599Y-9736699D01*
X59360042Y-9718814D01*
X59367234Y-9658053D01*
X59408766Y-9613123D01*
X59457140Y-9600500D01*
X59659563Y-9600500D01*
X59659563Y-9600499D01*
X59735989Y-9580021D01*
X59804511Y-9540460D01*
X59832485Y-9512485D01*
X59860461Y-9484511D01*
X60195721Y-9149249D01*
X60278735Y-9066234D01*
X60333250Y-9038458D01*
X60393682Y-9048029D01*
X60395372Y-9048912D01*
X60415252Y-9059538D01*
X60430808Y-9067853D01*
X60430809Y-9067853D01*
X60430816Y-9067857D01*
X60577239Y-9112274D01*
X60631399Y-9128704D01*
X60631405Y-9128705D01*
X60839997Y-9149249D01*
X60840000Y-9149249D01*
X60840003Y-9149249D01*
X61048594Y-9128705D01*
X61048595Y-9128704D01*
X61048600Y-9128704D01*
X61249184Y-9067857D01*
X61349349Y-9014318D01*
X61434031Y-8969055D01*
X61434034Y-8969052D01*
X61434043Y-8969048D01*
X61596073Y-8836073D01*
X61729048Y-8674043D01*
X61729052Y-8674034D01*
X61729055Y-8674031D01*
X61792432Y-8555459D01*
X61827857Y-8489184D01*
X61888704Y-8288600D01*
X61909249Y-8080000D01*
X61909249Y-8079996D01*
X61888705Y-7871405D01*
X61888704Y-7871402D01*
X61888704Y-7871400D01*
X61827857Y-7670816D01*
X61827852Y-7670807D01*
X61729055Y-7485968D01*
X61729050Y-7485961D01*
X61729048Y-7485957D01*
X61635927Y-7372489D01*
X61596077Y-7323931D01*
X61596068Y-7323922D01*
X61472226Y-7222288D01*
X61434043Y-7190952D01*
X61434040Y-7190950D01*
X61434031Y-7190944D01*
X61249190Y-7092146D01*
X61249188Y-7092145D01*
X61249184Y-7092143D01*
X61249179Y-7092141D01*
X61246337Y-7090964D01*
X61245263Y-7090046D01*
X61244895Y-7089850D01*
X61244938Y-7089769D01*
X61199812Y-7051227D01*
X61185529Y-6991732D01*
X61208944Y-6935204D01*
X61261114Y-6903235D01*
X61284224Y-6900500D01*
X62935777Y-6900500D01*
X62993968Y-6919407D01*
G37*
%TD.AperFunction*%
%TA.AperFunction,Conductor*%
G36*
X82358864Y-519407D02*
G01*
X82394828Y-568907D01*
X82394828Y-630093D01*
X82358864Y-679593D01*
X82325293Y-695390D01*
X82256892Y-712952D01*
X81976110Y-824120D01*
X81976107Y-824122D01*
X81711483Y-969599D01*
X81467155Y-1147114D01*
X81375038Y-1233616D01*
X82294397Y-2152975D01*
X82283398Y-2160967D01*
X82160967Y-2283398D01*
X82152975Y-2294397D01*
X81231351Y-1372773D01*
X81054519Y-1586526D01*
X80892713Y-1841491D01*
X80892706Y-1841504D01*
X80764127Y-2114747D01*
X80670805Y-2401962D01*
X80670802Y-2401972D01*
X80614217Y-2698600D01*
X80595255Y-3000000D01*
X80614217Y-3301399D01*
X80670802Y-3598027D01*
X80670805Y-3598037D01*
X80764127Y-3885252D01*
X80892706Y-4158495D01*
X80892713Y-4158508D01*
X81054519Y-4413473D01*
X81231351Y-4627225D01*
X82152974Y-3705601D01*
X82160967Y-3716602D01*
X82283398Y-3839033D01*
X82294396Y-3847023D01*
X81375038Y-4766382D01*
X81467155Y-4852885D01*
X81711483Y-5030400D01*
X81976107Y-5175877D01*
X81976110Y-5175879D01*
X82256892Y-5287047D01*
X82549402Y-5362150D01*
X82549398Y-5362150D01*
X82849005Y-5400000D01*
X83150995Y-5400000D01*
X83450599Y-5362150D01*
X83743107Y-5287047D01*
X84023889Y-5175879D01*
X84023892Y-5175877D01*
X84288516Y-5030400D01*
X84532844Y-4852886D01*
X84624960Y-4766382D01*
X83705602Y-3847024D01*
X83716602Y-3839033D01*
X83839033Y-3716602D01*
X83847024Y-3705602D01*
X84768648Y-4627226D01*
X84945473Y-4413482D01*
X84945480Y-4413473D01*
X85107286Y-4158508D01*
X85107293Y-4158495D01*
X85235872Y-3885252D01*
X85306345Y-3668362D01*
X85342309Y-3618862D01*
X85400500Y-3599955D01*
X85458691Y-3618862D01*
X85494655Y-3668363D01*
X85499500Y-3698955D01*
X85499500Y-19329240D01*
X85480593Y-19387431D01*
X85431093Y-19423395D01*
X85369907Y-19423395D01*
X85367803Y-19422685D01*
X85361677Y-19420541D01*
X85309700Y-19402354D01*
X85309698Y-19402353D01*
X85309695Y-19402353D01*
X85279275Y-19399500D01*
X85279267Y-19399500D01*
X83870735Y-19399500D01*
X83870726Y-19399500D01*
X83840306Y-19402353D01*
X83840297Y-19402355D01*
X83712117Y-19447207D01*
X83602856Y-19527845D01*
X83602846Y-19527855D01*
X83522208Y-19637116D01*
X83477356Y-19765296D01*
X83477354Y-19765305D01*
X83474501Y-19795725D01*
X83474501Y-20604274D01*
X83477354Y-20634694D01*
X83477356Y-20634703D01*
X83522208Y-20762883D01*
X83602846Y-20872144D01*
X83602848Y-20872146D01*
X83602851Y-20872150D01*
X83602854Y-20872152D01*
X83602856Y-20872154D01*
X83712117Y-20952792D01*
X83712118Y-20952792D01*
X83712119Y-20952793D01*
X83840302Y-20997646D01*
X83870726Y-21000499D01*
X83870728Y-21000500D01*
X83870735Y-21000500D01*
X85279274Y-21000500D01*
X85279274Y-21000499D01*
X85309700Y-20997646D01*
X85367802Y-20977314D01*
X85428972Y-20975941D01*
X85479266Y-21010785D01*
X85499475Y-21068537D01*
X85499500Y-21070759D01*
X85499500Y-24929241D01*
X85480593Y-24987432D01*
X85431093Y-25023396D01*
X85369907Y-25023396D01*
X85367803Y-25022686D01*
X85355812Y-25018490D01*
X85309697Y-25002354D01*
X85309695Y-25002353D01*
X85309692Y-25002353D01*
X85279272Y-24999500D01*
X85279264Y-24999500D01*
X83870732Y-24999500D01*
X83870723Y-24999500D01*
X83840303Y-25002353D01*
X83840294Y-25002355D01*
X83712114Y-25047207D01*
X83602853Y-25127845D01*
X83602843Y-25127855D01*
X83522205Y-25237116D01*
X83477353Y-25365296D01*
X83477351Y-25365305D01*
X83474498Y-25395725D01*
X83474498Y-26204274D01*
X83477351Y-26234694D01*
X83477353Y-26234703D01*
X83522205Y-26362883D01*
X83602843Y-26472144D01*
X83602845Y-26472146D01*
X83602848Y-26472150D01*
X83602851Y-26472152D01*
X83602853Y-26472154D01*
X83712114Y-26552792D01*
X83712115Y-26552792D01*
X83712116Y-26552793D01*
X83840299Y-26597646D01*
X83870723Y-26600499D01*
X83870725Y-26600500D01*
X83870732Y-26600500D01*
X85279271Y-26600500D01*
X85279271Y-26600499D01*
X85309697Y-26597646D01*
X85367802Y-26577313D01*
X85428972Y-26575940D01*
X85479266Y-26610784D01*
X85499475Y-26668536D01*
X85499500Y-26670758D01*
X85499500Y-32301044D01*
X85480593Y-32359235D01*
X85431093Y-32395199D01*
X85369907Y-32395199D01*
X85320407Y-32359235D01*
X85306346Y-32331637D01*
X85235875Y-32114754D01*
X85107293Y-31841504D01*
X85107286Y-31841491D01*
X84945480Y-31586526D01*
X84945473Y-31586517D01*
X84768647Y-31372773D01*
X83847024Y-32294396D01*
X83839033Y-32283398D01*
X83716602Y-32160967D01*
X83705601Y-32152974D01*
X84624960Y-31233616D01*
X84532844Y-31147114D01*
X84288516Y-30969599D01*
X84023892Y-30824122D01*
X84023889Y-30824120D01*
X83743107Y-30712952D01*
X83450597Y-30637849D01*
X83450601Y-30637849D01*
X83150995Y-30600000D01*
X82849005Y-30600000D01*
X82549400Y-30637849D01*
X82256892Y-30712952D01*
X81976110Y-30824120D01*
X81976107Y-30824122D01*
X81711483Y-30969599D01*
X81467155Y-31147114D01*
X81375038Y-31233616D01*
X82294397Y-32152975D01*
X82283398Y-32160967D01*
X82160967Y-32283398D01*
X82152975Y-32294397D01*
X81231351Y-31372773D01*
X81054519Y-31586526D01*
X80892713Y-31841491D01*
X80892706Y-31841504D01*
X80764127Y-32114747D01*
X80670805Y-32401962D01*
X80670802Y-32401972D01*
X80614217Y-32698600D01*
X80595255Y-33000000D01*
X80614217Y-33301399D01*
X80670802Y-33598027D01*
X80670805Y-33598037D01*
X80764127Y-33885252D01*
X80892706Y-34158495D01*
X80892713Y-34158508D01*
X81054519Y-34413473D01*
X81231351Y-34627225D01*
X82152974Y-33705601D01*
X82160967Y-33716602D01*
X82283398Y-33839033D01*
X82294396Y-33847024D01*
X81375038Y-34766382D01*
X81467155Y-34852885D01*
X81711483Y-35030400D01*
X81976107Y-35175877D01*
X81976110Y-35175879D01*
X82256892Y-35287047D01*
X82325293Y-35304610D01*
X82376954Y-35337395D01*
X82399478Y-35394284D01*
X82384261Y-35453547D01*
X82337117Y-35492548D01*
X82300673Y-35499500D01*
X74623366Y-35499500D01*
X74372695Y-35535541D01*
X74372690Y-35535542D01*
X74129698Y-35606890D01*
X73899320Y-35712101D01*
X73899312Y-35712105D01*
X73686275Y-35849015D01*
X73686263Y-35849024D01*
X73539935Y-35975819D01*
X73483576Y-35999637D01*
X73475104Y-36000000D01*
X48084896Y-36000000D01*
X48026705Y-35981093D01*
X48020065Y-35975819D01*
X47873736Y-35849024D01*
X47873724Y-35849015D01*
X47660687Y-35712105D01*
X47660681Y-35712102D01*
X47660678Y-35712100D01*
X47504843Y-35640932D01*
X47430301Y-35606890D01*
X47187309Y-35535542D01*
X47187304Y-35535541D01*
X46936634Y-35499500D01*
X46936629Y-35499500D01*
X46875892Y-35499500D01*
X34175892Y-35499500D01*
X34110000Y-35499500D01*
X33983371Y-35499500D01*
X33983366Y-35499500D01*
X33732695Y-35535541D01*
X33732690Y-35535542D01*
X33489698Y-35606890D01*
X33259320Y-35712101D01*
X33259312Y-35712105D01*
X33046275Y-35849015D01*
X33046263Y-35849024D01*
X32899935Y-35975819D01*
X32843576Y-35999637D01*
X32835104Y-36000000D01*
X12524896Y-36000000D01*
X12466705Y-35981093D01*
X12460065Y-35975819D01*
X12313736Y-35849024D01*
X12313724Y-35849015D01*
X12100687Y-35712105D01*
X12100681Y-35712102D01*
X12100678Y-35712100D01*
X11944843Y-35640932D01*
X11870301Y-35606890D01*
X11627309Y-35535542D01*
X11627304Y-35535541D01*
X11376634Y-35499500D01*
X11376629Y-35499500D01*
X11315892Y-35499500D01*
X3699327Y-35499500D01*
X3641136Y-35480593D01*
X3605172Y-35431093D01*
X3605172Y-35369907D01*
X3641136Y-35320407D01*
X3674707Y-35304610D01*
X3743107Y-35287047D01*
X4023889Y-35175879D01*
X4023892Y-35175877D01*
X4288516Y-35030400D01*
X4532844Y-34852886D01*
X4624960Y-34766382D01*
X4588574Y-34729996D01*
X12734417Y-34729996D01*
X12734417Y-34730003D01*
X12754698Y-34935929D01*
X12754699Y-34935934D01*
X12814768Y-35133954D01*
X12912316Y-35316452D01*
X13024827Y-35453547D01*
X13043590Y-35476410D01*
X13043594Y-35476413D01*
X13043595Y-35476414D01*
X13203547Y-35607683D01*
X13203548Y-35607683D01*
X13203550Y-35607685D01*
X13386046Y-35705232D01*
X13478094Y-35733154D01*
X13584065Y-35765300D01*
X13584070Y-35765301D01*
X13789997Y-35785583D01*
X13790000Y-35785583D01*
X13790003Y-35785583D01*
X13995929Y-35765301D01*
X13995934Y-35765300D01*
X13995944Y-35765297D01*
X14193954Y-35705232D01*
X14376450Y-35607685D01*
X14536410Y-35476410D01*
X14667685Y-35316450D01*
X14765232Y-35133954D01*
X14825300Y-34935934D01*
X14825300Y-34935932D01*
X14825301Y-34935929D01*
X14845583Y-34730003D01*
X14845583Y-34729996D01*
X15274417Y-34729996D01*
X15274417Y-34730003D01*
X15294698Y-34935929D01*
X15294699Y-34935934D01*
X15354768Y-35133954D01*
X15452316Y-35316452D01*
X15564827Y-35453547D01*
X15583590Y-35476410D01*
X15583594Y-35476413D01*
X15583595Y-35476414D01*
X15743547Y-35607683D01*
X15743548Y-35607683D01*
X15743550Y-35607685D01*
X15926046Y-35705232D01*
X16018094Y-35733154D01*
X16124065Y-35765300D01*
X16124070Y-35765301D01*
X16329997Y-35785583D01*
X16330000Y-35785583D01*
X16330003Y-35785583D01*
X16535929Y-35765301D01*
X16535934Y-35765300D01*
X16535944Y-35765297D01*
X16733954Y-35705232D01*
X16916450Y-35607685D01*
X17076410Y-35476410D01*
X17207685Y-35316450D01*
X17305232Y-35133954D01*
X17365300Y-34935934D01*
X17365300Y-34935932D01*
X17365301Y-34935929D01*
X17385583Y-34730003D01*
X17385583Y-34729996D01*
X17814418Y-34729996D01*
X17814418Y-34730003D01*
X17834699Y-34935929D01*
X17834700Y-34935934D01*
X17894769Y-35133954D01*
X17992317Y-35316452D01*
X18104828Y-35453547D01*
X18123591Y-35476410D01*
X18123595Y-35476413D01*
X18123596Y-35476414D01*
X18283548Y-35607683D01*
X18283549Y-35607683D01*
X18283551Y-35607685D01*
X18466047Y-35705232D01*
X18558095Y-35733154D01*
X18664066Y-35765300D01*
X18664071Y-35765301D01*
X18869998Y-35785583D01*
X18870001Y-35785583D01*
X18870004Y-35785583D01*
X19075930Y-35765301D01*
X19075935Y-35765300D01*
X19075945Y-35765297D01*
X19273955Y-35705232D01*
X19456451Y-35607685D01*
X19616411Y-35476410D01*
X19747686Y-35316450D01*
X19845233Y-35133954D01*
X19905301Y-34935934D01*
X19905301Y-34935932D01*
X19905302Y-34935929D01*
X19925584Y-34730003D01*
X19925584Y-34729996D01*
X19905302Y-34524070D01*
X19905301Y-34524065D01*
X19846402Y-34329901D01*
X19845233Y-34326046D01*
X19747686Y-34143550D01*
X19747684Y-34143548D01*
X19747684Y-34143547D01*
X19616415Y-33983595D01*
X19616413Y-33983593D01*
X19616411Y-33983590D01*
X19616404Y-33983584D01*
X19456453Y-33852316D01*
X19273955Y-33754768D01*
X19075935Y-33694699D01*
X19075930Y-33694698D01*
X18870004Y-33674417D01*
X18869998Y-33674417D01*
X18664071Y-33694698D01*
X18664066Y-33694699D01*
X18466046Y-33754768D01*
X18283548Y-33852316D01*
X18123596Y-33983585D01*
X18123586Y-33983595D01*
X17992317Y-34143547D01*
X17894769Y-34326045D01*
X17834700Y-34524065D01*
X17834699Y-34524070D01*
X17814418Y-34729996D01*
X17385583Y-34729996D01*
X17365301Y-34524070D01*
X17365300Y-34524065D01*
X17306401Y-34329901D01*
X17305232Y-34326046D01*
X17207685Y-34143550D01*
X17207683Y-34143548D01*
X17207683Y-34143547D01*
X17076414Y-33983595D01*
X17076412Y-33983593D01*
X17076410Y-33983590D01*
X17076403Y-33983584D01*
X16916452Y-33852316D01*
X16733954Y-33754768D01*
X16535934Y-33694699D01*
X16535929Y-33694698D01*
X16330003Y-33674417D01*
X16329997Y-33674417D01*
X16124070Y-33694698D01*
X16124065Y-33694699D01*
X15926045Y-33754768D01*
X15743547Y-33852316D01*
X15583595Y-33983585D01*
X15583585Y-33983595D01*
X15452316Y-34143547D01*
X15354768Y-34326045D01*
X15294699Y-34524065D01*
X15294698Y-34524070D01*
X15274417Y-34729996D01*
X14845583Y-34729996D01*
X14825301Y-34524070D01*
X14825300Y-34524065D01*
X14766401Y-34329901D01*
X14765232Y-34326046D01*
X14667685Y-34143550D01*
X14667683Y-34143548D01*
X14667683Y-34143547D01*
X14536414Y-33983595D01*
X14536412Y-33983593D01*
X14536410Y-33983590D01*
X14536403Y-33983584D01*
X14376452Y-33852316D01*
X14193954Y-33754768D01*
X13995934Y-33694699D01*
X13995929Y-33694698D01*
X13790003Y-33674417D01*
X13789997Y-33674417D01*
X13584070Y-33694698D01*
X13584065Y-33694699D01*
X13386045Y-33754768D01*
X13203547Y-33852316D01*
X13043595Y-33983585D01*
X13043585Y-33983595D01*
X12912316Y-34143547D01*
X12814768Y-34326045D01*
X12754699Y-34524065D01*
X12754698Y-34524070D01*
X12734417Y-34729996D01*
X4588574Y-34729996D01*
X3705602Y-33847024D01*
X3716602Y-33839033D01*
X3839033Y-33716602D01*
X3847024Y-33705602D01*
X4768648Y-34627226D01*
X4945473Y-34413482D01*
X4945480Y-34413473D01*
X5107286Y-34158508D01*
X5107293Y-34158495D01*
X5235872Y-33885252D01*
X5329194Y-33598037D01*
X5329197Y-33598027D01*
X5385782Y-33301399D01*
X5404744Y-33000000D01*
X5385782Y-32698600D01*
X5329197Y-32401972D01*
X5329194Y-32401962D01*
X5235872Y-32114747D01*
X5107293Y-31841504D01*
X5107286Y-31841491D01*
X4945480Y-31586526D01*
X4945473Y-31586517D01*
X4768647Y-31372773D01*
X3847023Y-32294396D01*
X3839033Y-32283398D01*
X3716602Y-32160967D01*
X3705601Y-32152974D01*
X4624960Y-31233616D01*
X4532844Y-31147114D01*
X4288516Y-30969599D01*
X4023892Y-30824122D01*
X4023889Y-30824120D01*
X3743107Y-30712952D01*
X3450597Y-30637849D01*
X3450601Y-30637849D01*
X3150995Y-30600000D01*
X2849005Y-30600000D01*
X2549400Y-30637849D01*
X2256892Y-30712952D01*
X1976110Y-30824120D01*
X1976107Y-30824122D01*
X1711483Y-30969599D01*
X1467155Y-31147114D01*
X1375038Y-31233616D01*
X2294397Y-32152975D01*
X2283398Y-32160967D01*
X2160967Y-32283398D01*
X2152975Y-32294397D01*
X1231351Y-31372773D01*
X1054519Y-31586526D01*
X892713Y-31841491D01*
X892706Y-31841504D01*
X764124Y-32114754D01*
X693654Y-32331637D01*
X657690Y-32381137D01*
X599500Y-32400044D01*
X541309Y-32381136D01*
X505345Y-32331636D01*
X500500Y-32301044D01*
X500500Y-7753477D01*
X11094500Y-7753477D01*
X11094500Y-8366520D01*
X11094501Y-8366523D01*
X11109352Y-8460299D01*
X11109354Y-8460304D01*
X11166950Y-8573342D01*
X11256658Y-8663050D01*
X11340446Y-8705742D01*
X11383710Y-8749006D01*
X11394500Y-8793951D01*
X11394500Y-9866048D01*
X11375593Y-9924239D01*
X11340446Y-9954257D01*
X11256659Y-9996949D01*
X11166949Y-10086659D01*
X11109354Y-10199695D01*
X11094500Y-10293477D01*
X11094500Y-10906520D01*
X11094501Y-10906523D01*
X11109352Y-11000299D01*
X11109354Y-11000304D01*
X11166950Y-11113342D01*
X11256658Y-11203050D01*
X11340446Y-11245742D01*
X11383710Y-11289006D01*
X11394500Y-11333951D01*
X11394500Y-25054563D01*
X11414978Y-25130987D01*
X11414980Y-25130991D01*
X11454538Y-25199507D01*
X11454540Y-25199510D01*
X16589551Y-30334521D01*
X20433813Y-34178783D01*
X20461590Y-34233300D01*
X20452019Y-34293732D01*
X20451121Y-34295453D01*
X20434770Y-34326044D01*
X20434767Y-34326052D01*
X20374700Y-34524065D01*
X20374699Y-34524070D01*
X20354418Y-34729996D01*
X20354418Y-34730003D01*
X20374699Y-34935929D01*
X20374700Y-34935934D01*
X20434769Y-35133954D01*
X20532317Y-35316452D01*
X20644828Y-35453547D01*
X20663591Y-35476410D01*
X20663595Y-35476413D01*
X20663596Y-35476414D01*
X20823548Y-35607683D01*
X20823549Y-35607683D01*
X20823551Y-35607685D01*
X21006047Y-35705232D01*
X21098095Y-35733154D01*
X21204066Y-35765300D01*
X21204071Y-35765301D01*
X21409998Y-35785583D01*
X21410001Y-35785583D01*
X21410004Y-35785583D01*
X21615930Y-35765301D01*
X21615935Y-35765300D01*
X21615945Y-35765297D01*
X21813955Y-35705232D01*
X21996451Y-35607685D01*
X22156411Y-35476410D01*
X22287686Y-35316450D01*
X22385233Y-35133954D01*
X22445301Y-34935934D01*
X22445301Y-34935932D01*
X22445302Y-34935929D01*
X22465584Y-34730003D01*
X22465584Y-34729996D01*
X22894417Y-34729996D01*
X22894417Y-34730003D01*
X22914698Y-34935929D01*
X22914699Y-34935934D01*
X22974768Y-35133954D01*
X23072316Y-35316452D01*
X23184827Y-35453547D01*
X23203590Y-35476410D01*
X23203594Y-35476413D01*
X23203595Y-35476414D01*
X23363547Y-35607683D01*
X23363548Y-35607683D01*
X23363550Y-35607685D01*
X23546046Y-35705232D01*
X23638094Y-35733154D01*
X23744065Y-35765300D01*
X23744070Y-35765301D01*
X23949997Y-35785583D01*
X23950000Y-35785583D01*
X23950003Y-35785583D01*
X24155929Y-35765301D01*
X24155934Y-35765300D01*
X24155944Y-35765297D01*
X24353954Y-35705232D01*
X24536450Y-35607685D01*
X24696410Y-35476410D01*
X24827685Y-35316450D01*
X24925232Y-35133954D01*
X24985300Y-34935934D01*
X24985300Y-34935932D01*
X24985301Y-34935929D01*
X25005583Y-34730003D01*
X25005583Y-34729996D01*
X25434417Y-34729996D01*
X25434417Y-34730003D01*
X25454698Y-34935929D01*
X25454699Y-34935934D01*
X25514768Y-35133954D01*
X25612316Y-35316452D01*
X25724827Y-35453547D01*
X25743590Y-35476410D01*
X25743594Y-35476413D01*
X25743595Y-35476414D01*
X25903547Y-35607683D01*
X25903548Y-35607683D01*
X25903550Y-35607685D01*
X26086046Y-35705232D01*
X26178094Y-35733154D01*
X26284065Y-35765300D01*
X26284070Y-35765301D01*
X26489997Y-35785583D01*
X26490000Y-35785583D01*
X26490003Y-35785583D01*
X26695929Y-35765301D01*
X26695934Y-35765300D01*
X26695944Y-35765297D01*
X26893954Y-35705232D01*
X27076450Y-35607685D01*
X27236410Y-35476410D01*
X27367685Y-35316450D01*
X27465232Y-35133954D01*
X27525300Y-34935934D01*
X27525300Y-34935932D01*
X27525301Y-34935929D01*
X27545583Y-34730003D01*
X27545583Y-34729995D01*
X27974413Y-34729995D01*
X27974413Y-34730002D01*
X27994694Y-34935928D01*
X27994695Y-34935933D01*
X28054764Y-35133953D01*
X28152312Y-35316451D01*
X28242930Y-35426869D01*
X28283586Y-35476409D01*
X28303252Y-35492548D01*
X28443543Y-35607682D01*
X28443544Y-35607682D01*
X28443546Y-35607684D01*
X28626042Y-35705231D01*
X28763993Y-35747077D01*
X28824061Y-35765299D01*
X28824066Y-35765300D01*
X29029993Y-35785582D01*
X29029996Y-35785582D01*
X29029999Y-35785582D01*
X29235925Y-35765300D01*
X29235930Y-35765299D01*
X29235937Y-35765297D01*
X29433950Y-35705231D01*
X29616446Y-35607684D01*
X29776406Y-35476409D01*
X29907681Y-35316449D01*
X30005228Y-35133953D01*
X30065296Y-34935933D01*
X30065296Y-34935931D01*
X30065297Y-34935928D01*
X30080725Y-34779289D01*
X30080725Y-34779288D01*
X30085579Y-34730003D01*
X30085579Y-34729995D01*
X30065297Y-34524069D01*
X30065296Y-34524064D01*
X30047074Y-34463996D01*
X30005228Y-34326045D01*
X29988877Y-34295454D01*
X29984152Y-34286614D01*
X29984151Y-34286613D01*
X29960248Y-34241894D01*
X30520000Y-34241894D01*
X30520000Y-34629999D01*
X30520001Y-34630000D01*
X31079157Y-34630000D01*
X31070000Y-34664174D01*
X31070000Y-34795826D01*
X31079157Y-34830000D01*
X30520001Y-34830000D01*
X30520000Y-34830001D01*
X30520000Y-35218105D01*
X30522788Y-35253546D01*
X30522790Y-35253552D01*
X30566845Y-35405189D01*
X30647227Y-35541109D01*
X30758890Y-35652772D01*
X30894810Y-35733154D01*
X31046447Y-35777209D01*
X31046453Y-35777211D01*
X31081894Y-35780000D01*
X31469999Y-35780000D01*
X31470000Y-35779999D01*
X31470000Y-35220842D01*
X31504174Y-35230000D01*
X31635826Y-35230000D01*
X31670000Y-35220842D01*
X31670000Y-35779999D01*
X31670001Y-35780000D01*
X32058106Y-35780000D01*
X32093546Y-35777211D01*
X32093552Y-35777209D01*
X32245189Y-35733154D01*
X32381109Y-35652772D01*
X32492772Y-35541109D01*
X32573154Y-35405189D01*
X32617209Y-35253552D01*
X32617211Y-35253546D01*
X32620000Y-35218105D01*
X32620000Y-34830001D01*
X32619999Y-34830000D01*
X32060843Y-34830000D01*
X32070000Y-34795826D01*
X32070000Y-34729996D01*
X48294419Y-34729996D01*
X48294419Y-34730003D01*
X48314700Y-34935929D01*
X48314701Y-34935934D01*
X48374770Y-35133954D01*
X48472318Y-35316452D01*
X48584829Y-35453547D01*
X48603592Y-35476410D01*
X48603596Y-35476413D01*
X48603597Y-35476414D01*
X48763549Y-35607683D01*
X48763550Y-35607683D01*
X48763552Y-35607685D01*
X48946048Y-35705232D01*
X49038096Y-35733154D01*
X49144067Y-35765300D01*
X49144072Y-35765301D01*
X49349999Y-35785583D01*
X49350002Y-35785583D01*
X49350005Y-35785583D01*
X49555931Y-35765301D01*
X49555936Y-35765300D01*
X49555946Y-35765297D01*
X49753956Y-35705232D01*
X49936452Y-35607685D01*
X50096412Y-35476410D01*
X50227687Y-35316450D01*
X50325234Y-35133954D01*
X50385302Y-34935934D01*
X50385302Y-34935932D01*
X50385303Y-34935929D01*
X50405585Y-34730003D01*
X50405585Y-34729996D01*
X50834417Y-34729996D01*
X50834417Y-34730003D01*
X50854698Y-34935929D01*
X50854699Y-34935934D01*
X50914768Y-35133954D01*
X51012316Y-35316452D01*
X51124827Y-35453547D01*
X51143590Y-35476410D01*
X51143594Y-35476413D01*
X51143595Y-35476414D01*
X51303547Y-35607683D01*
X51303548Y-35607683D01*
X51303550Y-35607685D01*
X51486046Y-35705232D01*
X51578094Y-35733154D01*
X51684065Y-35765300D01*
X51684070Y-35765301D01*
X51889997Y-35785583D01*
X51890000Y-35785583D01*
X51890003Y-35785583D01*
X52095929Y-35765301D01*
X52095934Y-35765300D01*
X52095944Y-35765297D01*
X52293954Y-35705232D01*
X52476450Y-35607685D01*
X52636410Y-35476410D01*
X52767685Y-35316450D01*
X52865232Y-35133954D01*
X52925300Y-34935934D01*
X52925300Y-34935932D01*
X52925301Y-34935929D01*
X52940729Y-34779289D01*
X52940729Y-34779288D01*
X52945583Y-34730004D01*
X52945583Y-34729996D01*
X52925301Y-34524070D01*
X52925300Y-34524065D01*
X52866401Y-34329901D01*
X52865232Y-34326046D01*
X52820251Y-34241894D01*
X53380000Y-34241894D01*
X53380000Y-34629999D01*
X53380001Y-34630000D01*
X53939157Y-34630000D01*
X53930000Y-34664174D01*
X53930000Y-34795826D01*
X53939157Y-34830000D01*
X53380001Y-34830000D01*
X53380000Y-34830001D01*
X53380000Y-35218105D01*
X53382788Y-35253546D01*
X53382790Y-35253552D01*
X53426845Y-35405189D01*
X53507227Y-35541109D01*
X53618890Y-35652772D01*
X53754810Y-35733154D01*
X53906447Y-35777209D01*
X53906453Y-35777211D01*
X53941894Y-35780000D01*
X54329999Y-35780000D01*
X54330000Y-35779999D01*
X54330000Y-35220842D01*
X54364174Y-35230000D01*
X54495826Y-35230000D01*
X54530000Y-35220842D01*
X54530000Y-35779999D01*
X54530001Y-35780000D01*
X54918106Y-35780000D01*
X54953546Y-35777211D01*
X54953552Y-35777209D01*
X55105189Y-35733154D01*
X55241109Y-35652772D01*
X55352772Y-35541109D01*
X55433154Y-35405189D01*
X55477209Y-35253552D01*
X55477211Y-35253546D01*
X55480000Y-35218105D01*
X55480000Y-34830001D01*
X55479999Y-34830000D01*
X54920843Y-34830000D01*
X54930000Y-34795826D01*
X54930000Y-34729996D01*
X55914417Y-34729996D01*
X55914417Y-34730003D01*
X55934698Y-34935929D01*
X55934699Y-34935934D01*
X55994768Y-35133954D01*
X56092316Y-35316452D01*
X56204827Y-35453547D01*
X56223590Y-35476410D01*
X56223594Y-35476413D01*
X56223595Y-35476414D01*
X56383547Y-35607683D01*
X56383548Y-35607683D01*
X56383550Y-35607685D01*
X56566046Y-35705232D01*
X56658094Y-35733154D01*
X56764065Y-35765300D01*
X56764070Y-35765301D01*
X56969997Y-35785583D01*
X56970000Y-35785583D01*
X56970003Y-35785583D01*
X57175929Y-35765301D01*
X57175934Y-35765300D01*
X57175944Y-35765297D01*
X57373954Y-35705232D01*
X57556450Y-35607685D01*
X57716410Y-35476410D01*
X57847685Y-35316450D01*
X57945232Y-35133954D01*
X58005300Y-34935934D01*
X58005300Y-34935932D01*
X58005301Y-34935929D01*
X58025583Y-34730003D01*
X58025583Y-34729996D01*
X58454418Y-34729996D01*
X58454418Y-34730003D01*
X58474699Y-34935929D01*
X58474700Y-34935934D01*
X58534769Y-35133954D01*
X58632317Y-35316452D01*
X58744828Y-35453547D01*
X58763591Y-35476410D01*
X58763595Y-35476413D01*
X58763596Y-35476414D01*
X58923548Y-35607683D01*
X58923549Y-35607683D01*
X58923551Y-35607685D01*
X59106047Y-35705232D01*
X59198095Y-35733154D01*
X59304066Y-35765300D01*
X59304071Y-35765301D01*
X59509998Y-35785583D01*
X59510001Y-35785583D01*
X59510004Y-35785583D01*
X59715930Y-35765301D01*
X59715935Y-35765300D01*
X59715945Y-35765297D01*
X59913955Y-35705232D01*
X60096451Y-35607685D01*
X60256411Y-35476410D01*
X60387686Y-35316450D01*
X60485233Y-35133954D01*
X60545301Y-34935934D01*
X60545301Y-34935932D01*
X60545302Y-34935929D01*
X60565584Y-34730003D01*
X60565584Y-34729993D01*
X60994418Y-34729993D01*
X60994418Y-34730000D01*
X61014699Y-34935926D01*
X61014700Y-34935931D01*
X61074769Y-35133951D01*
X61172317Y-35316449D01*
X61245144Y-35405189D01*
X61303591Y-35476407D01*
X61303595Y-35476410D01*
X61303596Y-35476411D01*
X61463548Y-35607680D01*
X61463549Y-35607680D01*
X61463551Y-35607682D01*
X61646047Y-35705229D01*
X61783998Y-35747075D01*
X61844066Y-35765297D01*
X61844071Y-35765298D01*
X62049998Y-35785580D01*
X62050001Y-35785580D01*
X62050004Y-35785580D01*
X62255930Y-35765298D01*
X62255935Y-35765297D01*
X62453955Y-35705229D01*
X62636451Y-35607682D01*
X62796411Y-35476407D01*
X62927686Y-35316447D01*
X63025233Y-35133951D01*
X63085301Y-34935931D01*
X63085301Y-34935929D01*
X63085302Y-34935926D01*
X63105584Y-34730000D01*
X63105584Y-34729996D01*
X63534417Y-34729996D01*
X63534417Y-34730003D01*
X63554698Y-34935929D01*
X63554699Y-34935934D01*
X63614768Y-35133954D01*
X63712316Y-35316452D01*
X63824827Y-35453547D01*
X63843590Y-35476410D01*
X63843594Y-35476413D01*
X63843595Y-35476414D01*
X64003547Y-35607683D01*
X64003548Y-35607683D01*
X64003550Y-35607685D01*
X64186046Y-35705232D01*
X64278094Y-35733154D01*
X64384065Y-35765300D01*
X64384070Y-35765301D01*
X64589997Y-35785583D01*
X64590000Y-35785583D01*
X64590003Y-35785583D01*
X64795929Y-35765301D01*
X64795934Y-35765300D01*
X64795944Y-35765297D01*
X64993954Y-35705232D01*
X65176450Y-35607685D01*
X65336410Y-35476410D01*
X65467685Y-35316450D01*
X65565232Y-35133954D01*
X65625300Y-34935934D01*
X65625300Y-34935932D01*
X65625301Y-34935929D01*
X65645583Y-34730003D01*
X65645583Y-34729996D01*
X65625301Y-34524070D01*
X65625300Y-34524065D01*
X65566401Y-34329901D01*
X65565232Y-34326046D01*
X65467685Y-34143550D01*
X65467683Y-34143548D01*
X65467683Y-34143547D01*
X65336414Y-33983595D01*
X65336412Y-33983593D01*
X65336410Y-33983590D01*
X65336403Y-33983584D01*
X65176452Y-33852316D01*
X64993954Y-33754768D01*
X64795934Y-33694699D01*
X64795929Y-33694698D01*
X64590003Y-33674417D01*
X64589997Y-33674417D01*
X64384070Y-33694698D01*
X64384065Y-33694699D01*
X64186045Y-33754768D01*
X64003547Y-33852316D01*
X63843595Y-33983585D01*
X63843585Y-33983595D01*
X63712316Y-34143547D01*
X63614768Y-34326045D01*
X63554699Y-34524065D01*
X63554698Y-34524070D01*
X63534417Y-34729996D01*
X63105584Y-34729996D01*
X63105584Y-34729993D01*
X63085302Y-34524067D01*
X63085301Y-34524062D01*
X63026403Y-34329901D01*
X63025233Y-34326043D01*
X62927686Y-34143547D01*
X62927684Y-34143545D01*
X62927684Y-34143544D01*
X62820414Y-34012835D01*
X62796411Y-33983587D01*
X62796405Y-33983582D01*
X62636453Y-33852313D01*
X62453955Y-33754765D01*
X62255935Y-33694696D01*
X62255930Y-33694695D01*
X62050004Y-33674414D01*
X62049998Y-33674414D01*
X61844071Y-33694695D01*
X61844066Y-33694696D01*
X61646046Y-33754765D01*
X61463548Y-33852313D01*
X61303596Y-33983582D01*
X61303586Y-33983592D01*
X61172317Y-34143544D01*
X61074769Y-34326042D01*
X61014700Y-34524062D01*
X61014699Y-34524067D01*
X60994418Y-34729993D01*
X60565584Y-34729993D01*
X60545302Y-34524070D01*
X60545301Y-34524065D01*
X60486402Y-34329901D01*
X60485233Y-34326046D01*
X60387686Y-34143550D01*
X60387684Y-34143548D01*
X60387684Y-34143547D01*
X60256415Y-33983595D01*
X60256413Y-33983593D01*
X60256411Y-33983590D01*
X60256404Y-33983584D01*
X60096453Y-33852316D01*
X59913955Y-33754768D01*
X59715935Y-33694699D01*
X59715930Y-33694698D01*
X59510004Y-33674417D01*
X59509998Y-33674417D01*
X59304071Y-33694698D01*
X59304066Y-33694699D01*
X59106046Y-33754768D01*
X58923548Y-33852316D01*
X58763596Y-33983585D01*
X58763586Y-33983595D01*
X58632317Y-34143547D01*
X58534769Y-34326045D01*
X58474700Y-34524065D01*
X58474699Y-34524070D01*
X58454418Y-34729996D01*
X58025583Y-34729996D01*
X58005301Y-34524070D01*
X58005300Y-34524065D01*
X57946401Y-34329901D01*
X57945232Y-34326046D01*
X57847685Y-34143550D01*
X57847683Y-34143548D01*
X57847683Y-34143547D01*
X57716414Y-33983595D01*
X57716412Y-33983593D01*
X57716410Y-33983590D01*
X57716403Y-33983584D01*
X57556452Y-33852316D01*
X57373954Y-33754768D01*
X57175934Y-33694699D01*
X57175929Y-33694698D01*
X56970003Y-33674417D01*
X56969997Y-33674417D01*
X56764070Y-33694698D01*
X56764065Y-33694699D01*
X56566045Y-33754768D01*
X56383547Y-33852316D01*
X56223595Y-33983585D01*
X56223585Y-33983595D01*
X56092316Y-34143547D01*
X55994768Y-34326045D01*
X55934699Y-34524065D01*
X55934698Y-34524070D01*
X55914417Y-34729996D01*
X54930000Y-34729996D01*
X54930000Y-34664174D01*
X54920843Y-34630000D01*
X55479999Y-34630000D01*
X55480000Y-34629999D01*
X55480000Y-34241894D01*
X55477211Y-34206453D01*
X55477209Y-34206447D01*
X55433154Y-34054810D01*
X55352772Y-33918890D01*
X55241109Y-33807227D01*
X55105189Y-33726845D01*
X54953552Y-33682790D01*
X54953546Y-33682788D01*
X54918106Y-33680000D01*
X54530001Y-33680000D01*
X54530000Y-33680001D01*
X54530000Y-34239157D01*
X54495826Y-34230000D01*
X54364174Y-34230000D01*
X54330000Y-34239157D01*
X54330000Y-33680001D01*
X54329999Y-33680000D01*
X53941894Y-33680000D01*
X53906453Y-33682788D01*
X53906447Y-33682790D01*
X53754810Y-33726845D01*
X53618890Y-33807227D01*
X53507227Y-33918890D01*
X53426845Y-34054810D01*
X53382790Y-34206447D01*
X53382788Y-34206453D01*
X53380000Y-34241894D01*
X52820251Y-34241894D01*
X52767685Y-34143550D01*
X52767683Y-34143548D01*
X52767683Y-34143547D01*
X52636414Y-33983595D01*
X52636412Y-33983593D01*
X52636410Y-33983590D01*
X52636403Y-33983584D01*
X52476452Y-33852316D01*
X52293954Y-33754768D01*
X52095934Y-33694699D01*
X52095929Y-33694698D01*
X51890003Y-33674417D01*
X51889997Y-33674417D01*
X51684070Y-33694698D01*
X51684065Y-33694699D01*
X51486045Y-33754768D01*
X51303547Y-33852316D01*
X51143595Y-33983585D01*
X51143585Y-33983595D01*
X51012316Y-34143547D01*
X50914768Y-34326045D01*
X50854699Y-34524065D01*
X50854698Y-34524070D01*
X50834417Y-34729996D01*
X50405585Y-34729996D01*
X50385303Y-34524070D01*
X50385302Y-34524065D01*
X50326403Y-34329901D01*
X50325234Y-34326046D01*
X50227687Y-34143550D01*
X50227685Y-34143548D01*
X50227685Y-34143547D01*
X50096416Y-33983595D01*
X50096414Y-33983593D01*
X50096412Y-33983590D01*
X50096405Y-33983584D01*
X49936454Y-33852316D01*
X49753956Y-33754768D01*
X49555936Y-33694699D01*
X49555931Y-33694698D01*
X49350005Y-33674417D01*
X49349999Y-33674417D01*
X49144072Y-33694698D01*
X49144067Y-33694699D01*
X48946047Y-33754768D01*
X48763549Y-33852316D01*
X48603597Y-33983585D01*
X48603587Y-33983595D01*
X48472318Y-34143547D01*
X48374770Y-34326045D01*
X48314701Y-34524065D01*
X48314700Y-34524070D01*
X48294419Y-34729996D01*
X32070000Y-34729996D01*
X32070000Y-34664174D01*
X32060843Y-34630000D01*
X32619999Y-34630000D01*
X32620000Y-34629999D01*
X32620000Y-34241894D01*
X32617211Y-34206453D01*
X32617209Y-34206447D01*
X32573154Y-34054810D01*
X32492772Y-33918890D01*
X32381109Y-33807227D01*
X32245189Y-33726845D01*
X32093552Y-33682790D01*
X32093546Y-33682788D01*
X32058106Y-33680000D01*
X31670001Y-33680000D01*
X31670000Y-33680001D01*
X31670000Y-34239157D01*
X31635826Y-34230000D01*
X31504174Y-34230000D01*
X31470000Y-34239157D01*
X31470000Y-33680001D01*
X31469999Y-33680000D01*
X31081894Y-33680000D01*
X31046453Y-33682788D01*
X31046447Y-33682790D01*
X30894810Y-33726845D01*
X30758890Y-33807227D01*
X30647227Y-33918890D01*
X30566845Y-34054810D01*
X30522790Y-34206447D01*
X30522788Y-34206453D01*
X30520000Y-34241894D01*
X29960248Y-34241894D01*
X29927541Y-34180705D01*
X29907681Y-34143549D01*
X29907679Y-34143547D01*
X29907679Y-34143546D01*
X29776410Y-33983594D01*
X29776408Y-33983592D01*
X29776406Y-33983589D01*
X29776399Y-33983583D01*
X29616448Y-33852315D01*
X29433950Y-33754767D01*
X29235930Y-33694698D01*
X29235925Y-33694697D01*
X29029999Y-33674416D01*
X29029993Y-33674416D01*
X28824066Y-33694697D01*
X28824061Y-33694698D01*
X28626041Y-33754767D01*
X28443543Y-33852315D01*
X28283591Y-33983584D01*
X28283581Y-33983594D01*
X28152312Y-34143546D01*
X28054764Y-34326044D01*
X27994695Y-34524064D01*
X27994694Y-34524069D01*
X27974413Y-34729995D01*
X27545583Y-34729995D01*
X27525301Y-34524070D01*
X27525300Y-34524065D01*
X27466401Y-34329901D01*
X27465232Y-34326046D01*
X27367685Y-34143550D01*
X27367683Y-34143548D01*
X27367683Y-34143547D01*
X27236414Y-33983595D01*
X27236412Y-33983593D01*
X27236410Y-33983590D01*
X27236403Y-33983584D01*
X27076452Y-33852316D01*
X26893954Y-33754768D01*
X26695934Y-33694699D01*
X26695929Y-33694698D01*
X26490003Y-33674417D01*
X26489997Y-33674417D01*
X26284070Y-33694698D01*
X26284065Y-33694699D01*
X26086045Y-33754768D01*
X25903547Y-33852316D01*
X25743595Y-33983585D01*
X25743585Y-33983595D01*
X25612316Y-34143547D01*
X25514768Y-34326045D01*
X25454699Y-34524065D01*
X25454698Y-34524070D01*
X25434417Y-34729996D01*
X25005583Y-34729996D01*
X24985301Y-34524070D01*
X24985300Y-34524065D01*
X24926401Y-34329901D01*
X24925232Y-34326046D01*
X24827685Y-34143550D01*
X24827683Y-34143548D01*
X24827683Y-34143547D01*
X24696414Y-33983595D01*
X24696412Y-33983593D01*
X24696410Y-33983590D01*
X24696403Y-33983584D01*
X24536452Y-33852316D01*
X24353954Y-33754768D01*
X24155934Y-33694699D01*
X24155929Y-33694698D01*
X23950003Y-33674417D01*
X23949997Y-33674417D01*
X23744070Y-33694698D01*
X23744065Y-33694699D01*
X23546045Y-33754768D01*
X23363547Y-33852316D01*
X23203595Y-33983585D01*
X23203585Y-33983595D01*
X23072316Y-34143547D01*
X22974768Y-34326045D01*
X22914699Y-34524065D01*
X22914698Y-34524070D01*
X22894417Y-34729996D01*
X22465584Y-34729996D01*
X22445302Y-34524070D01*
X22445301Y-34524065D01*
X22386402Y-34329901D01*
X22385233Y-34326046D01*
X22287686Y-34143550D01*
X22287684Y-34143548D01*
X22287684Y-34143547D01*
X22156415Y-33983595D01*
X22156413Y-33983593D01*
X22156411Y-33983590D01*
X22156404Y-33983584D01*
X21996453Y-33852316D01*
X21813955Y-33754768D01*
X21615935Y-33694699D01*
X21615930Y-33694698D01*
X21410004Y-33674417D01*
X21409998Y-33674417D01*
X21204071Y-33694698D01*
X21204066Y-33694699D01*
X21006053Y-33754766D01*
X21006050Y-33754766D01*
X21006047Y-33754768D01*
X21006045Y-33754768D01*
X21006045Y-33754769D01*
X20975454Y-33771120D01*
X20915221Y-33781874D01*
X20860170Y-33755171D01*
X20858784Y-33753812D01*
X12024496Y-24919524D01*
X11996719Y-24865007D01*
X11995500Y-24849520D01*
X11995500Y-11333951D01*
X12014407Y-11275760D01*
X12049552Y-11245742D01*
X12133342Y-11203050D01*
X12223050Y-11113342D01*
X12280646Y-11000304D01*
X12293459Y-10919407D01*
X12295500Y-10906521D01*
X12295500Y-10700001D01*
X12745001Y-10700001D01*
X12745001Y-10906485D01*
X12759833Y-11000141D01*
X12759836Y-11000151D01*
X12817358Y-11113043D01*
X12906956Y-11202641D01*
X13019848Y-11260163D01*
X13019852Y-11260164D01*
X13113515Y-11274999D01*
X13245000Y-11274999D01*
X13245000Y-10700001D01*
X13445000Y-10700001D01*
X13445000Y-11274998D01*
X13445001Y-11274999D01*
X13576483Y-11274999D01*
X13576485Y-11274998D01*
X13670141Y-11260166D01*
X13670151Y-11260163D01*
X13783043Y-11202641D01*
X13872641Y-11113043D01*
X13930163Y-11000151D01*
X13930164Y-11000147D01*
X13945000Y-10906484D01*
X13945000Y-10700001D01*
X13944999Y-10700000D01*
X13445001Y-10700000D01*
X13445000Y-10700001D01*
X13245000Y-10700001D01*
X13244999Y-10700000D01*
X12745002Y-10700000D01*
X12745001Y-10700001D01*
X12295500Y-10700001D01*
X12295500Y-10658993D01*
X12295499Y-10293515D01*
X12745000Y-10293515D01*
X12745000Y-10499999D01*
X12745001Y-10500000D01*
X13244999Y-10500000D01*
X13245000Y-10499999D01*
X13245000Y-9925001D01*
X13445000Y-9925001D01*
X13445000Y-10499999D01*
X13445001Y-10500000D01*
X13944998Y-10500000D01*
X13944999Y-10499999D01*
X13944999Y-10293516D01*
X13944998Y-10293514D01*
X13930166Y-10199858D01*
X13930163Y-10199848D01*
X13872641Y-10086956D01*
X13783043Y-9997358D01*
X13670151Y-9939836D01*
X13670147Y-9939835D01*
X13576484Y-9925000D01*
X13445001Y-9925000D01*
X13445000Y-9925001D01*
X13245000Y-9925001D01*
X13244999Y-9925000D01*
X13113517Y-9925000D01*
X13113514Y-9925001D01*
X13019858Y-9939833D01*
X13019848Y-9939836D01*
X12906956Y-9997358D01*
X12817358Y-10086956D01*
X12759836Y-10199848D01*
X12759835Y-10199852D01*
X12745000Y-10293515D01*
X12295499Y-10293515D01*
X12295499Y-10293479D01*
X12295498Y-10293476D01*
X12280647Y-10199700D01*
X12280646Y-10199698D01*
X12280646Y-10199696D01*
X12223050Y-10086658D01*
X12133342Y-9996950D01*
X12131079Y-9995797D01*
X12049554Y-9954257D01*
X12033164Y-9937867D01*
X12014407Y-9924239D01*
X12011938Y-9916640D01*
X12006290Y-9910992D01*
X11995500Y-9866048D01*
X11995500Y-9736699D01*
X19136400Y-9736699D01*
X19136400Y-10519999D01*
X19136401Y-10520000D01*
X19700874Y-10520000D01*
X19692000Y-10553120D01*
X19692000Y-10686880D01*
X19700874Y-10720000D01*
X19136401Y-10720000D01*
X19136400Y-10720001D01*
X19136400Y-11503300D01*
X19148003Y-11561636D01*
X19192206Y-11627789D01*
X19192210Y-11627793D01*
X19258363Y-11671996D01*
X19316699Y-11683599D01*
X19316703Y-11683600D01*
X20099999Y-11683600D01*
X20100000Y-11683599D01*
X20100000Y-11119125D01*
X20133120Y-11128000D01*
X20266880Y-11128000D01*
X20300000Y-11119125D01*
X20300000Y-11683599D01*
X20300001Y-11683600D01*
X21083297Y-11683600D01*
X21083300Y-11683599D01*
X21141636Y-11671996D01*
X21207789Y-11627793D01*
X21207793Y-11627789D01*
X21251996Y-11561636D01*
X21263599Y-11503300D01*
X21263600Y-11503297D01*
X21263600Y-10720001D01*
X21263599Y-10720000D01*
X20699126Y-10720000D01*
X20708000Y-10686880D01*
X20708000Y-10553120D01*
X20699126Y-10520000D01*
X21263599Y-10520000D01*
X21263600Y-10519999D01*
X21263600Y-9736702D01*
X21263599Y-9736699D01*
X21251996Y-9678363D01*
X21207793Y-9612210D01*
X21207789Y-9612206D01*
X21141636Y-9568003D01*
X21083300Y-9556400D01*
X20300001Y-9556400D01*
X20300000Y-9556401D01*
X20300000Y-10120874D01*
X20266880Y-10112000D01*
X20133120Y-10112000D01*
X20100000Y-10120874D01*
X20100000Y-9556401D01*
X20099999Y-9556400D01*
X19316699Y-9556400D01*
X19258363Y-9568003D01*
X19192210Y-9612206D01*
X19192206Y-9612210D01*
X19148003Y-9678363D01*
X19136400Y-9736699D01*
X11995500Y-9736699D01*
X11995500Y-8793951D01*
X12014407Y-8735760D01*
X12049552Y-8705742D01*
X12133342Y-8663050D01*
X12223050Y-8573342D01*
X12280646Y-8460304D01*
X12295500Y-8366519D01*
X12295499Y-7753482D01*
X12295498Y-7753477D01*
X12744500Y-7753477D01*
X12744500Y-8366520D01*
X12744501Y-8366523D01*
X12759352Y-8460299D01*
X12759354Y-8460304D01*
X12816950Y-8573342D01*
X12906658Y-8663050D01*
X13019696Y-8720646D01*
X13113481Y-8735500D01*
X13576518Y-8735499D01*
X13576520Y-8735499D01*
X13576521Y-8735498D01*
X13645502Y-8724574D01*
X13670299Y-8720647D01*
X13670299Y-8720646D01*
X13670304Y-8720646D01*
X13783342Y-8663050D01*
X13873050Y-8573342D01*
X13930646Y-8460304D01*
X13930646Y-8460297D01*
X13933053Y-8452896D01*
X13935345Y-8453640D01*
X13957827Y-8409505D01*
X14012341Y-8381721D01*
X14027839Y-8380500D01*
X19105751Y-8380500D01*
X19163942Y-8399407D01*
X19199906Y-8448907D01*
X19200488Y-8450762D01*
X19212143Y-8489184D01*
X19212145Y-8489189D01*
X19310944Y-8674031D01*
X19310950Y-8674040D01*
X19310952Y-8674043D01*
X19349198Y-8720646D01*
X19443922Y-8836068D01*
X19443931Y-8836077D01*
X19515330Y-8894672D01*
X19605957Y-8969048D01*
X19605961Y-8969050D01*
X19605968Y-8969055D01*
X19790810Y-9067854D01*
X19790816Y-9067857D01*
X19991400Y-9128704D01*
X19991402Y-9128704D01*
X19991405Y-9128705D01*
X20199997Y-9149249D01*
X20200000Y-9149249D01*
X20200003Y-9149249D01*
X20408594Y-9128705D01*
X20408595Y-9128704D01*
X20408600Y-9128704D01*
X20609184Y-9067857D01*
X20709349Y-9014318D01*
X20794031Y-8969055D01*
X20794034Y-8969052D01*
X20794043Y-8969048D01*
X20956073Y-8836073D01*
X21089048Y-8674043D01*
X21089052Y-8674034D01*
X21089055Y-8674031D01*
X21152432Y-8555459D01*
X21187857Y-8489184D01*
X21248704Y-8288600D01*
X21269249Y-8080000D01*
X21269249Y-8079996D01*
X21670751Y-8079996D01*
X21670751Y-8080003D01*
X21691294Y-8288594D01*
X21691295Y-8288597D01*
X21752144Y-8489187D01*
X21752145Y-8489189D01*
X21850944Y-8674031D01*
X21850950Y-8674040D01*
X21850952Y-8674043D01*
X21889198Y-8720646D01*
X21983922Y-8836068D01*
X21983931Y-8836077D01*
X22055330Y-8894672D01*
X22145957Y-8969048D01*
X22145961Y-8969050D01*
X22145968Y-8969055D01*
X22330810Y-9067854D01*
X22330816Y-9067857D01*
X22531400Y-9128704D01*
X22531402Y-9128704D01*
X22531405Y-9128705D01*
X22739997Y-9149249D01*
X22740000Y-9149249D01*
X22740003Y-9149249D01*
X22948594Y-9128705D01*
X22948600Y-9128704D01*
X23149184Y-9067857D01*
X23184591Y-9048930D01*
X23244823Y-9038173D01*
X23299875Y-9064874D01*
X23301264Y-9066236D01*
X23775488Y-9540459D01*
X23775493Y-9540463D01*
X23844008Y-9580020D01*
X23844006Y-9580020D01*
X23844010Y-9580021D01*
X23844012Y-9580022D01*
X23920438Y-9600500D01*
X23999562Y-9600500D01*
X24568227Y-9600500D01*
X24626418Y-9619407D01*
X24662382Y-9668907D01*
X24662382Y-9730093D01*
X24631032Y-9776028D01*
X24523931Y-9863922D01*
X24523922Y-9863931D01*
X24390951Y-10025958D01*
X24390944Y-10025968D01*
X24292145Y-10210810D01*
X24292144Y-10210812D01*
X24231295Y-10411402D01*
X24231294Y-10411405D01*
X24210751Y-10619996D01*
X24210751Y-10620003D01*
X24231294Y-10828594D01*
X24231295Y-10828597D01*
X24231296Y-10828600D01*
X24291329Y-11026502D01*
X24292144Y-11029187D01*
X24292145Y-11029189D01*
X24390944Y-11214031D01*
X24390950Y-11214040D01*
X24390952Y-11214043D01*
X24441387Y-11275498D01*
X24523922Y-11376068D01*
X24523931Y-11376077D01*
X24592586Y-11432420D01*
X24685957Y-11509048D01*
X24685962Y-11509050D01*
X24685964Y-11509052D01*
X24693705Y-11513190D01*
X24736111Y-11557296D01*
X24744494Y-11617904D01*
X24715651Y-11671865D01*
X24660600Y-11698566D01*
X24647036Y-11699500D01*
X24285479Y-11699500D01*
X24227288Y-11680593D01*
X24215475Y-11670504D01*
X23726236Y-11181265D01*
X23698459Y-11126748D01*
X23708030Y-11066316D01*
X23708931Y-11064591D01*
X23727853Y-11029191D01*
X23727854Y-11029189D01*
X23727857Y-11029184D01*
X23788704Y-10828600D01*
X23809249Y-10620000D01*
X23799400Y-10519999D01*
X23788705Y-10411405D01*
X23788704Y-10411402D01*
X23788704Y-10411400D01*
X23727857Y-10210816D01*
X23721997Y-10199852D01*
X23629055Y-10025968D01*
X23629050Y-10025961D01*
X23629048Y-10025957D01*
X23546195Y-9925001D01*
X23496077Y-9863931D01*
X23496068Y-9863922D01*
X23388968Y-9776028D01*
X23334043Y-9730952D01*
X23334040Y-9730950D01*
X23334031Y-9730944D01*
X23149189Y-9632145D01*
X23149187Y-9632144D01*
X23094283Y-9615489D01*
X22948600Y-9571296D01*
X22948597Y-9571295D01*
X22948594Y-9571294D01*
X22740003Y-9550751D01*
X22739997Y-9550751D01*
X22531405Y-9571294D01*
X22531402Y-9571295D01*
X22330812Y-9632144D01*
X22330810Y-9632145D01*
X22145968Y-9730944D01*
X22145958Y-9730951D01*
X21983931Y-9863922D01*
X21983922Y-9863931D01*
X21850951Y-10025958D01*
X21850944Y-10025968D01*
X21752145Y-10210810D01*
X21752144Y-10210812D01*
X21691295Y-10411402D01*
X21691294Y-10411405D01*
X21670751Y-10619996D01*
X21670751Y-10620003D01*
X21691294Y-10828594D01*
X21691295Y-10828597D01*
X21691296Y-10828600D01*
X21751329Y-11026502D01*
X21752144Y-11029187D01*
X21752145Y-11029189D01*
X21850944Y-11214031D01*
X21850950Y-11214040D01*
X21850952Y-11214043D01*
X21901387Y-11275498D01*
X21983922Y-11376068D01*
X21983931Y-11376077D01*
X22052586Y-11432420D01*
X22145957Y-11509048D01*
X22145961Y-11509050D01*
X22145968Y-11509055D01*
X22330810Y-11607854D01*
X22330816Y-11607857D01*
X22531400Y-11668704D01*
X22531402Y-11668704D01*
X22531405Y-11668705D01*
X22739997Y-11689249D01*
X22740000Y-11689249D01*
X22740003Y-11689249D01*
X22948594Y-11668705D01*
X22948600Y-11668704D01*
X22948613Y-11668700D01*
X23149184Y-11607857D01*
X23184591Y-11588930D01*
X23244823Y-11578173D01*
X23299875Y-11604874D01*
X23301265Y-11606236D01*
X23935489Y-12240460D01*
X23935491Y-12240461D01*
X23935492Y-12240462D01*
X23935493Y-12240463D01*
X24004008Y-12280020D01*
X24004006Y-12280020D01*
X24004010Y-12280021D01*
X24004012Y-12280022D01*
X24080438Y-12300500D01*
X24080440Y-12300500D01*
X59499563Y-12300500D01*
X59499563Y-12300499D01*
X59575989Y-12280021D01*
X59644511Y-12240460D01*
X59672485Y-12212485D01*
X59700461Y-12184511D01*
X60278733Y-11606237D01*
X60333250Y-11578459D01*
X60393682Y-11588030D01*
X60395405Y-11588930D01*
X60422856Y-11603602D01*
X60430816Y-11607857D01*
X60577239Y-11652274D01*
X60631399Y-11668704D01*
X60631405Y-11668705D01*
X60839997Y-11689249D01*
X60840000Y-11689249D01*
X60840003Y-11689249D01*
X61048594Y-11668705D01*
X61048600Y-11668704D01*
X61048613Y-11668700D01*
X61249184Y-11607857D01*
X61284591Y-11588930D01*
X61344823Y-11578173D01*
X61399875Y-11604874D01*
X61401265Y-11606236D01*
X62035489Y-12240460D01*
X62035491Y-12240461D01*
X62035492Y-12240462D01*
X62035493Y-12240463D01*
X62104008Y-12280020D01*
X62104006Y-12280020D01*
X62104010Y-12280021D01*
X62104012Y-12280022D01*
X62180438Y-12300500D01*
X62180440Y-12300500D01*
X64339563Y-12300500D01*
X64339563Y-12300499D01*
X64415989Y-12280021D01*
X64484511Y-12240460D01*
X64540460Y-12184511D01*
X65795475Y-10929496D01*
X65849992Y-10901719D01*
X65865479Y-10900500D01*
X69428992Y-10900500D01*
X69487183Y-10919407D01*
X69523147Y-10968907D01*
X69526773Y-10984013D01*
X69529352Y-11000300D01*
X69529354Y-11000304D01*
X69586950Y-11113342D01*
X69676658Y-11203050D01*
X69760446Y-11245742D01*
X69803710Y-11289006D01*
X69814500Y-11333951D01*
X69814500Y-11554564D01*
X69834978Y-11630988D01*
X69834979Y-11630990D01*
X69856752Y-11668700D01*
X69856753Y-11668705D01*
X69856755Y-11668705D01*
X69865354Y-11683600D01*
X69874533Y-11699500D01*
X69874540Y-11699511D01*
X79270505Y-21095476D01*
X79298281Y-21149991D01*
X79299500Y-21165478D01*
X79299500Y-21934521D01*
X79280593Y-21992712D01*
X79270504Y-22004525D01*
X75415489Y-25859540D01*
X75415488Y-25859539D01*
X75359539Y-25915489D01*
X75319980Y-25984007D01*
X75319978Y-25984011D01*
X75299500Y-26060435D01*
X75299500Y-30334521D01*
X75280593Y-30392712D01*
X75270504Y-30404525D01*
X74604525Y-31070504D01*
X74550008Y-31098281D01*
X74534521Y-31099500D01*
X70420435Y-31099500D01*
X70344011Y-31119978D01*
X70344007Y-31119980D01*
X70275491Y-31159538D01*
X67681215Y-33753812D01*
X67626698Y-33781589D01*
X67566266Y-33772018D01*
X67564583Y-33771139D01*
X67533954Y-33754768D01*
X67533944Y-33754765D01*
X67335934Y-33694699D01*
X67335929Y-33694698D01*
X67130003Y-33674417D01*
X67129997Y-33674417D01*
X66924070Y-33694698D01*
X66924065Y-33694699D01*
X66726045Y-33754768D01*
X66543547Y-33852316D01*
X66383595Y-33983585D01*
X66383585Y-33983595D01*
X66252316Y-34143547D01*
X66154768Y-34326045D01*
X66094699Y-34524065D01*
X66094698Y-34524070D01*
X66074417Y-34729996D01*
X66074417Y-34730003D01*
X66094698Y-34935929D01*
X66094699Y-34935934D01*
X66154768Y-35133954D01*
X66252316Y-35316452D01*
X66364827Y-35453547D01*
X66383590Y-35476410D01*
X66383594Y-35476413D01*
X66383595Y-35476414D01*
X66543547Y-35607683D01*
X66543548Y-35607683D01*
X66543550Y-35607685D01*
X66726046Y-35705232D01*
X66818094Y-35733154D01*
X66924065Y-35765300D01*
X66924070Y-35765301D01*
X67129997Y-35785583D01*
X67130000Y-35785583D01*
X67130003Y-35785583D01*
X67335929Y-35765301D01*
X67335934Y-35765300D01*
X67335944Y-35765297D01*
X67533954Y-35705232D01*
X67716450Y-35607685D01*
X67876410Y-35476410D01*
X68007685Y-35316450D01*
X68105232Y-35133954D01*
X68165300Y-34935934D01*
X68165300Y-34935932D01*
X68165301Y-34935929D01*
X68185583Y-34730003D01*
X68185583Y-34729994D01*
X68614413Y-34729994D01*
X68614413Y-34730001D01*
X68634694Y-34935927D01*
X68634695Y-34935932D01*
X68694764Y-35133952D01*
X68792312Y-35316450D01*
X68923580Y-35476401D01*
X68923586Y-35476408D01*
X68929518Y-35481276D01*
X69083543Y-35607681D01*
X69083544Y-35607681D01*
X69083546Y-35607683D01*
X69266042Y-35705230D01*
X69403993Y-35747076D01*
X69464061Y-35765298D01*
X69464066Y-35765299D01*
X69669993Y-35785581D01*
X69669996Y-35785581D01*
X69669999Y-35785581D01*
X69875925Y-35765299D01*
X69875930Y-35765298D01*
X69875933Y-35765297D01*
X70073950Y-35705230D01*
X70256446Y-35607683D01*
X70416406Y-35476408D01*
X70547681Y-35316448D01*
X70645228Y-35133952D01*
X70705296Y-34935932D01*
X70705296Y-34935929D01*
X70705297Y-34935926D01*
X70720725Y-34779289D01*
X70720725Y-34779288D01*
X70725579Y-34730002D01*
X70725579Y-34729994D01*
X70705297Y-34524068D01*
X70705296Y-34524063D01*
X70673692Y-34419878D01*
X70645228Y-34326044D01*
X70600248Y-34241894D01*
X71160000Y-34241894D01*
X71160000Y-34629999D01*
X71160001Y-34630000D01*
X71719157Y-34630000D01*
X71710000Y-34664174D01*
X71710000Y-34795826D01*
X71719157Y-34830000D01*
X71160001Y-34830000D01*
X71160000Y-34830001D01*
X71160000Y-35218105D01*
X71162788Y-35253546D01*
X71162790Y-35253552D01*
X71206845Y-35405189D01*
X71287227Y-35541109D01*
X71398890Y-35652772D01*
X71534810Y-35733154D01*
X71686447Y-35777209D01*
X71686453Y-35777211D01*
X71721894Y-35780000D01*
X72109999Y-35780000D01*
X72110000Y-35779999D01*
X72110000Y-35220842D01*
X72144174Y-35230000D01*
X72275826Y-35230000D01*
X72310000Y-35220842D01*
X72310000Y-35779999D01*
X72310001Y-35780000D01*
X72698106Y-35780000D01*
X72733546Y-35777211D01*
X72733552Y-35777209D01*
X72885189Y-35733154D01*
X73021109Y-35652772D01*
X73132772Y-35541109D01*
X73213154Y-35405189D01*
X73257209Y-35253552D01*
X73257211Y-35253546D01*
X73260000Y-35218105D01*
X73260000Y-34830001D01*
X73259999Y-34830000D01*
X72700843Y-34830000D01*
X72710000Y-34795826D01*
X72710000Y-34664174D01*
X72700843Y-34630000D01*
X73259999Y-34630000D01*
X73260000Y-34629999D01*
X73260000Y-34241894D01*
X73257211Y-34206453D01*
X73257209Y-34206447D01*
X73213154Y-34054810D01*
X73132772Y-33918890D01*
X73021109Y-33807227D01*
X72885189Y-33726845D01*
X72733552Y-33682790D01*
X72733546Y-33682788D01*
X72698106Y-33680000D01*
X72310001Y-33680000D01*
X72310000Y-33680001D01*
X72310000Y-34239157D01*
X72275826Y-34230000D01*
X72144174Y-34230000D01*
X72110000Y-34239157D01*
X72110000Y-33680001D01*
X72109999Y-33680000D01*
X71721894Y-33680000D01*
X71686453Y-33682788D01*
X71686447Y-33682790D01*
X71534810Y-33726845D01*
X71398890Y-33807227D01*
X71287227Y-33918890D01*
X71206845Y-34054810D01*
X71162790Y-34206447D01*
X71162788Y-34206453D01*
X71160000Y-34241894D01*
X70600248Y-34241894D01*
X70547681Y-34143548D01*
X70547679Y-34143546D01*
X70547679Y-34143545D01*
X70416410Y-33983593D01*
X70416409Y-33983592D01*
X70416406Y-33983588D01*
X70416399Y-33983582D01*
X70256448Y-33852314D01*
X70073950Y-33754766D01*
X69875930Y-33694697D01*
X69875925Y-33694696D01*
X69669999Y-33674415D01*
X69669993Y-33674415D01*
X69464066Y-33694696D01*
X69464061Y-33694697D01*
X69266041Y-33754766D01*
X69083543Y-33852314D01*
X68923591Y-33983583D01*
X68923581Y-33983593D01*
X68792312Y-34143545D01*
X68694764Y-34326043D01*
X68634695Y-34524063D01*
X68634694Y-34524068D01*
X68614413Y-34729994D01*
X68185583Y-34729994D01*
X68165301Y-34524070D01*
X68165300Y-34524065D01*
X68106401Y-34329901D01*
X68105232Y-34326046D01*
X68105228Y-34326039D01*
X68088881Y-34295454D01*
X68078125Y-34235221D01*
X68104827Y-34180170D01*
X68106138Y-34178831D01*
X69142929Y-33142040D01*
X69197444Y-33114265D01*
X69257876Y-33123836D01*
X69301141Y-33167101D01*
X69302984Y-33170918D01*
X69328887Y-33227637D01*
X69423138Y-33336409D01*
X69544207Y-33414215D01*
X69544212Y-33414218D01*
X69650668Y-33445476D01*
X69682300Y-33454764D01*
X69682301Y-33454764D01*
X69682304Y-33454765D01*
X69682306Y-33454765D01*
X69826224Y-33454765D01*
X69826226Y-33454765D01*
X69964318Y-33414218D01*
X70085393Y-33336408D01*
X70179642Y-33227638D01*
X70239430Y-33096722D01*
X70249593Y-33026034D01*
X70259912Y-32954267D01*
X70259912Y-32954265D01*
X70256823Y-32932783D01*
X70267255Y-32872493D01*
X70284808Y-32848691D01*
X70546855Y-32586644D01*
X70601370Y-32558869D01*
X70661802Y-32568440D01*
X70705067Y-32611705D01*
X70712677Y-32635709D01*
X70712839Y-32635662D01*
X70714833Y-32642455D01*
X70760485Y-32742416D01*
X70774623Y-32773373D01*
X70848452Y-32858577D01*
X70868873Y-32882144D01*
X70949731Y-32934108D01*
X70989947Y-32959953D01*
X71096403Y-32991211D01*
X71128035Y-33000499D01*
X71128036Y-33000499D01*
X71128039Y-33000500D01*
X71128041Y-33000500D01*
X71271959Y-33000500D01*
X71271961Y-33000500D01*
X71410053Y-32959953D01*
X71478110Y-32916215D01*
X71531632Y-32900500D01*
X74925517Y-32900500D01*
X74925519Y-32900500D01*
X75027380Y-32873207D01*
X75027382Y-32873205D01*
X75027384Y-32873205D01*
X75118700Y-32820483D01*
X75118700Y-32820482D01*
X75118705Y-32820480D01*
X76745910Y-31193273D01*
X76745913Y-31193272D01*
X76820480Y-31118705D01*
X76873207Y-31027379D01*
X76900501Y-30925519D01*
X76900501Y-30820065D01*
X76900501Y-30814003D01*
X76900500Y-30813985D01*
X76900500Y-26679692D01*
X76919407Y-26621501D01*
X76929496Y-26609688D01*
X78939183Y-24600001D01*
X79725001Y-24600001D01*
X79725001Y-24683216D01*
X79734912Y-24751250D01*
X79786214Y-24856188D01*
X79868812Y-24938786D01*
X79973751Y-24990087D01*
X80041784Y-24999999D01*
X80599998Y-24999999D01*
X80600000Y-24999998D01*
X80600000Y-24600001D01*
X80800000Y-24600001D01*
X80800000Y-24999998D01*
X80800001Y-24999999D01*
X81358213Y-24999999D01*
X81358216Y-24999998D01*
X81426250Y-24990087D01*
X81531188Y-24938785D01*
X81613786Y-24856187D01*
X81665087Y-24751248D01*
X81675000Y-24683215D01*
X81675000Y-24600001D01*
X81674999Y-24600000D01*
X80800001Y-24600000D01*
X80800000Y-24600001D01*
X80600000Y-24600001D01*
X80599999Y-24600000D01*
X79725002Y-24600000D01*
X79725001Y-24600001D01*
X78939183Y-24600001D01*
X79609688Y-23929496D01*
X79664205Y-23901719D01*
X79679692Y-23900500D01*
X79788812Y-23900500D01*
X79796437Y-23902977D01*
X79804356Y-23901728D01*
X79824980Y-23912251D01*
X79847003Y-23919407D01*
X79858850Y-23929531D01*
X79859668Y-23930349D01*
X79859709Y-23930390D01*
X79887454Y-23984923D01*
X79877847Y-24045350D01*
X79859668Y-24070356D01*
X79786215Y-24143809D01*
X79786213Y-24143812D01*
X79734912Y-24248751D01*
X79725000Y-24316784D01*
X79725000Y-24399999D01*
X79725001Y-24400000D01*
X81674998Y-24400000D01*
X81674999Y-24399999D01*
X81674999Y-24316786D01*
X81674998Y-24316783D01*
X81665087Y-24248749D01*
X81613785Y-24143811D01*
X81540331Y-24070357D01*
X81512554Y-24015840D01*
X81522125Y-23955408D01*
X81540328Y-23930352D01*
X81614198Y-23856483D01*
X81665573Y-23751393D01*
X81675500Y-23683260D01*
X81675500Y-23316740D01*
X81665573Y-23248607D01*
X81614198Y-23143517D01*
X81540682Y-23070001D01*
X81534455Y-23057778D01*
X81524369Y-23048478D01*
X81520909Y-23031192D01*
X81512907Y-23015487D01*
X81515053Y-23001936D01*
X81512360Y-22988482D01*
X81519528Y-22973680D01*
X81522478Y-22955055D01*
X81537909Y-22932886D01*
X81539259Y-22931421D01*
X81614198Y-22856483D01*
X81620779Y-22843020D01*
X81630586Y-22832386D01*
X81645262Y-22824143D01*
X81656965Y-22812047D01*
X81674630Y-22807650D01*
X81683934Y-22802426D01*
X81691883Y-22803357D01*
X81703365Y-22800500D01*
X82039563Y-22800500D01*
X82039563Y-22800499D01*
X82115989Y-22780021D01*
X82184511Y-22740460D01*
X82212485Y-22712485D01*
X82240461Y-22684511D01*
X82440459Y-22484512D01*
X82640460Y-22284511D01*
X82677717Y-22219979D01*
X82680021Y-22215989D01*
X82700500Y-22139562D01*
X82700500Y-20860438D01*
X82688456Y-20815489D01*
X82688456Y-20815488D01*
X82688456Y-20815487D01*
X82680021Y-20784010D01*
X82680020Y-20784008D01*
X82640463Y-20715493D01*
X82640461Y-20715491D01*
X82640460Y-20715489D01*
X82084511Y-20159540D01*
X82084508Y-20159538D01*
X82015992Y-20119980D01*
X82015988Y-20119978D01*
X81939564Y-20099500D01*
X81939562Y-20099500D01*
X79731165Y-20099500D01*
X79672974Y-20080593D01*
X79661161Y-20070504D01*
X71329496Y-11738839D01*
X71301719Y-11684322D01*
X71300500Y-11668835D01*
X71300500Y-11351275D01*
X71319407Y-11293084D01*
X71368907Y-11257120D01*
X71430093Y-11257120D01*
X71434633Y-11259001D01*
X71439694Y-11260645D01*
X71439696Y-11260646D01*
X71533481Y-11275500D01*
X71996518Y-11275499D01*
X71996520Y-11275499D01*
X71996521Y-11275498D01*
X72065502Y-11264574D01*
X72090299Y-11260647D01*
X72090299Y-11260646D01*
X72090304Y-11260646D01*
X72203342Y-11203050D01*
X72293050Y-11113342D01*
X72350646Y-11000304D01*
X72365500Y-10906519D01*
X72365499Y-10293482D01*
X72352407Y-10210816D01*
X72350647Y-10199700D01*
X72350646Y-10199698D01*
X72350646Y-10199696D01*
X72293050Y-10086658D01*
X72203342Y-9996950D01*
X72201079Y-9995797D01*
X72119554Y-9954257D01*
X72076290Y-9910992D01*
X72065500Y-9866048D01*
X72065500Y-8793951D01*
X72084407Y-8735760D01*
X72119552Y-8705742D01*
X72203342Y-8663050D01*
X72293050Y-8573342D01*
X72350646Y-8460304D01*
X72365500Y-8366519D01*
X72365499Y-7753482D01*
X72352407Y-7670815D01*
X72350647Y-7659700D01*
X72350646Y-7659698D01*
X72350646Y-7659696D01*
X72293050Y-7546658D01*
X72203342Y-7456950D01*
X72201079Y-7455797D01*
X72119554Y-7414257D01*
X72076290Y-7370992D01*
X72065500Y-7326048D01*
X72065500Y-7125437D01*
X72065499Y-7125435D01*
X72064455Y-7121540D01*
X72045021Y-7049011D01*
X72034793Y-7031296D01*
X72005460Y-6980489D01*
X71949511Y-6924539D01*
X71949511Y-6924540D01*
X70984511Y-5959540D01*
X70984508Y-5959538D01*
X70915992Y-5919980D01*
X70915988Y-5919978D01*
X70839564Y-5899500D01*
X70839562Y-5899500D01*
X60140438Y-5899500D01*
X60140435Y-5899500D01*
X60064011Y-5919978D01*
X60064007Y-5919980D01*
X59995489Y-5959539D01*
X58861263Y-7093763D01*
X58806747Y-7121540D01*
X58746315Y-7111969D01*
X58744643Y-7111096D01*
X58709184Y-7092143D01*
X58508600Y-7031296D01*
X58508597Y-7031295D01*
X58508594Y-7031294D01*
X58300003Y-7010751D01*
X58299997Y-7010751D01*
X58091405Y-7031294D01*
X58091402Y-7031295D01*
X57890812Y-7092144D01*
X57890810Y-7092145D01*
X57705968Y-7190944D01*
X57705958Y-7190951D01*
X57543931Y-7323922D01*
X57543922Y-7323931D01*
X57410951Y-7485958D01*
X57410944Y-7485968D01*
X57312145Y-7670810D01*
X57312144Y-7670812D01*
X57251295Y-7871402D01*
X57251294Y-7871405D01*
X57230751Y-8079996D01*
X57230751Y-8080003D01*
X57251294Y-8288594D01*
X57251295Y-8288597D01*
X57312144Y-8489187D01*
X57312145Y-8489189D01*
X57410944Y-8674031D01*
X57410950Y-8674040D01*
X57410952Y-8674043D01*
X57449198Y-8720646D01*
X57545257Y-8837695D01*
X57567557Y-8894672D01*
X57552108Y-8953875D01*
X57504811Y-8992690D01*
X57468729Y-8999500D01*
X26111271Y-8999500D01*
X26053080Y-8980593D01*
X26017116Y-8931093D01*
X26017116Y-8869907D01*
X26034743Y-8837695D01*
X26107527Y-8749006D01*
X26169048Y-8674043D01*
X26169052Y-8674034D01*
X26169055Y-8674031D01*
X26232432Y-8555459D01*
X26267857Y-8489184D01*
X26328704Y-8288600D01*
X26349249Y-8080000D01*
X26349249Y-8079996D01*
X26328705Y-7871405D01*
X26328704Y-7871402D01*
X26328704Y-7871400D01*
X26267857Y-7670816D01*
X26267852Y-7670807D01*
X26169055Y-7485968D01*
X26169050Y-7485961D01*
X26169048Y-7485957D01*
X26075927Y-7372489D01*
X26036077Y-7323931D01*
X26036068Y-7323922D01*
X25912226Y-7222288D01*
X25874043Y-7190952D01*
X25874040Y-7190950D01*
X25874031Y-7190944D01*
X25689189Y-7092145D01*
X25689187Y-7092144D01*
X25682277Y-7090048D01*
X25488600Y-7031296D01*
X25488597Y-7031295D01*
X25488594Y-7031294D01*
X25280003Y-7010751D01*
X25279997Y-7010751D01*
X25071405Y-7031294D01*
X25071402Y-7031295D01*
X24870812Y-7092144D01*
X24870810Y-7092145D01*
X24685968Y-7190944D01*
X24685958Y-7190951D01*
X24523931Y-7323922D01*
X24523922Y-7323931D01*
X24390951Y-7485958D01*
X24390944Y-7485968D01*
X24292145Y-7670810D01*
X24292144Y-7670812D01*
X24231295Y-7871402D01*
X24231294Y-7871405D01*
X24210751Y-8079996D01*
X24210751Y-8080003D01*
X24231294Y-8288594D01*
X24231295Y-8288597D01*
X24292144Y-8489187D01*
X24292145Y-8489189D01*
X24390944Y-8674031D01*
X24390950Y-8674040D01*
X24390952Y-8674043D01*
X24429198Y-8720646D01*
X24525257Y-8837695D01*
X24547557Y-8894672D01*
X24532108Y-8953875D01*
X24484811Y-8992690D01*
X24448729Y-8999500D01*
X24125479Y-8999500D01*
X24067288Y-8980593D01*
X24055475Y-8970504D01*
X23726236Y-8641265D01*
X23698459Y-8586748D01*
X23708030Y-8526316D01*
X23708931Y-8524591D01*
X23727853Y-8489191D01*
X23727854Y-8489189D01*
X23727857Y-8489184D01*
X23788704Y-8288600D01*
X23809249Y-8080000D01*
X23809249Y-8079996D01*
X23788705Y-7871405D01*
X23788704Y-7871402D01*
X23788704Y-7871400D01*
X23727857Y-7670816D01*
X23727852Y-7670807D01*
X23629055Y-7485968D01*
X23629050Y-7485961D01*
X23629048Y-7485957D01*
X23535927Y-7372489D01*
X23496077Y-7323931D01*
X23496068Y-7323922D01*
X23372226Y-7222288D01*
X23334043Y-7190952D01*
X23334040Y-7190950D01*
X23334031Y-7190944D01*
X23149189Y-7092145D01*
X23149187Y-7092144D01*
X23142277Y-7090048D01*
X22948600Y-7031296D01*
X22948597Y-7031295D01*
X22948594Y-7031294D01*
X22740003Y-7010751D01*
X22739997Y-7010751D01*
X22531405Y-7031294D01*
X22531402Y-7031295D01*
X22330812Y-7092144D01*
X22330810Y-7092145D01*
X22145968Y-7190944D01*
X22145958Y-7190951D01*
X21983931Y-7323922D01*
X21983922Y-7323931D01*
X21850951Y-7485958D01*
X21850944Y-7485968D01*
X21752145Y-7670810D01*
X21752144Y-7670812D01*
X21691295Y-7871402D01*
X21691294Y-7871405D01*
X21670751Y-8079996D01*
X21269249Y-8079996D01*
X21248705Y-7871405D01*
X21248704Y-7871402D01*
X21248704Y-7871400D01*
X21187857Y-7670816D01*
X21187852Y-7670807D01*
X21089055Y-7485968D01*
X21089050Y-7485961D01*
X21089048Y-7485957D01*
X20995927Y-7372489D01*
X20956077Y-7323931D01*
X20956068Y-7323922D01*
X20832226Y-7222288D01*
X20794043Y-7190952D01*
X20794040Y-7190950D01*
X20794031Y-7190944D01*
X20609189Y-7092145D01*
X20609187Y-7092144D01*
X20602277Y-7090048D01*
X20408600Y-7031296D01*
X20408597Y-7031295D01*
X20408594Y-7031294D01*
X20200003Y-7010751D01*
X20199997Y-7010751D01*
X19991405Y-7031294D01*
X19991402Y-7031295D01*
X19790812Y-7092144D01*
X19790810Y-7092145D01*
X19605968Y-7190944D01*
X19605958Y-7190951D01*
X19443931Y-7323922D01*
X19443922Y-7323931D01*
X19310951Y-7485958D01*
X19310944Y-7485968D01*
X19212145Y-7670810D01*
X19212143Y-7670815D01*
X19200488Y-7709238D01*
X19165503Y-7759435D01*
X19107695Y-7779481D01*
X19105751Y-7779500D01*
X14034175Y-7779500D01*
X13975984Y-7760593D01*
X13940020Y-7711093D01*
X13936394Y-7695985D01*
X13930647Y-7659700D01*
X13930646Y-7659698D01*
X13930646Y-7659696D01*
X13873050Y-7546658D01*
X13783342Y-7456950D01*
X13670304Y-7399354D01*
X13670305Y-7399354D01*
X13576522Y-7384500D01*
X13113479Y-7384500D01*
X13113476Y-7384501D01*
X13019700Y-7399352D01*
X13019695Y-7399354D01*
X12906659Y-7456949D01*
X12816949Y-7546659D01*
X12759354Y-7659695D01*
X12744500Y-7753477D01*
X12295498Y-7753477D01*
X12295498Y-7753475D01*
X12280647Y-7659700D01*
X12280646Y-7659698D01*
X12280646Y-7659696D01*
X12223050Y-7546658D01*
X12133342Y-7456950D01*
X12020304Y-7399354D01*
X12020305Y-7399354D01*
X11926522Y-7384500D01*
X11463479Y-7384500D01*
X11463476Y-7384501D01*
X11369700Y-7399352D01*
X11369695Y-7399354D01*
X11256659Y-7456949D01*
X11166949Y-7546659D01*
X11109354Y-7659695D01*
X11094500Y-7753477D01*
X500500Y-7753477D01*
X500500Y-3698955D01*
X519407Y-3640764D01*
X568907Y-3604800D01*
X630093Y-3604800D01*
X679593Y-3640764D01*
X693655Y-3668362D01*
X764127Y-3885252D01*
X892706Y-4158495D01*
X892713Y-4158508D01*
X1054519Y-4413473D01*
X1231351Y-4627225D01*
X2152975Y-3705601D01*
X2160967Y-3716602D01*
X2283398Y-3839033D01*
X2294396Y-3847023D01*
X1375038Y-4766382D01*
X1467155Y-4852885D01*
X1711483Y-5030400D01*
X1976107Y-5175877D01*
X1976110Y-5175879D01*
X2256892Y-5287047D01*
X2549402Y-5362150D01*
X2549398Y-5362150D01*
X2849005Y-5400000D01*
X3150995Y-5400000D01*
X3450599Y-5362150D01*
X3743107Y-5287047D01*
X4023889Y-5175879D01*
X4023892Y-5175877D01*
X4288516Y-5030400D01*
X4532844Y-4852886D01*
X4624960Y-4766382D01*
X3705602Y-3847024D01*
X3716602Y-3839033D01*
X3839033Y-3716602D01*
X3847024Y-3705602D01*
X4768648Y-4627226D01*
X4945473Y-4413482D01*
X4945480Y-4413473D01*
X5107286Y-4158508D01*
X5107293Y-4158495D01*
X5235872Y-3885252D01*
X5329194Y-3598037D01*
X5329197Y-3598027D01*
X5385782Y-3301399D01*
X5404744Y-3000000D01*
X5385782Y-2698600D01*
X5329197Y-2401972D01*
X5329194Y-2401962D01*
X5235872Y-2114747D01*
X5107293Y-1841504D01*
X5107286Y-1841491D01*
X4945480Y-1586526D01*
X4945473Y-1586517D01*
X4768647Y-1372773D01*
X3847023Y-2294396D01*
X3839033Y-2283398D01*
X3716602Y-2160967D01*
X3705602Y-2152975D01*
X4624960Y-1233616D01*
X4532844Y-1147114D01*
X4288516Y-969599D01*
X4023892Y-824122D01*
X4023889Y-824120D01*
X3743107Y-712952D01*
X3674707Y-695390D01*
X3623046Y-662605D01*
X3600522Y-605716D01*
X3615739Y-546453D01*
X3662883Y-507452D01*
X3699327Y-500500D01*
X82300673Y-500500D01*
X82358864Y-519407D01*
G37*
%TD.AperFunction*%
%TD*%
M02*
