%TF.GenerationSoftware,KiCad,Pcbnew,8.99.0-2433-g53022ab347*%
%TF.CreationDate,2024-10-05T16:52:00+02:00*%
%TF.ProjectId,Flipper SAO Debug,466c6970-7065-4722-9053-414f20446562,1.0*%
%TF.SameCoordinates,PX25b7c30PY3881550*%
%TF.FileFunction,Soldermask,Bot*%
%TF.FilePolarity,Negative*%
%FSLAX46Y46*%
G04 Gerber Fmt 4.6, Leading zero omitted, Abs format (unit mm)*
G04 Created by KiCad (PCBNEW 8.99.0-2433-g53022ab347) date 2024-10-05 16:52:00*
%MOMM*%
%LPD*%
G01*
G04 APERTURE LIST*
G04 Aperture macros list*
%AMRoundRect*
0 Rectangle with rounded corners*
0 $1 Rounding radius*
0 $2 $3 $4 $5 $6 $7 $8 $9 X,Y pos of 4 corners*
0 Add a 4 corners polygon primitive as box body*
4,1,4,$2,$3,$4,$5,$6,$7,$8,$9,$2,$3,0*
0 Add four circle primitives for the rounded corners*
1,1,$1+$1,$2,$3*
1,1,$1+$1,$4,$5*
1,1,$1+$1,$6,$7*
1,1,$1+$1,$8,$9*
0 Add four rect primitives between the rounded corners*
20,1,$1+$1,$2,$3,$4,$5,0*
20,1,$1+$1,$4,$5,$6,$7,0*
20,1,$1+$1,$6,$7,$8,$9,0*
20,1,$1+$1,$8,$9,$2,$3,0*%
G04 Aperture macros list end*
%ADD10C,0.010000*%
%ADD11C,0.700000*%
%ADD12C,4.400000*%
%ADD13O,1.727200X1.727200*%
%ADD14R,1.727200X1.727200*%
%ADD15C,1.727200*%
%ADD16RoundRect,0.425000X-0.425000X0.425000X-0.425000X-0.425000X0.425000X-0.425000X0.425000X0.425000X0*%
%ADD17O,1.700000X1.700000*%
G04 APERTURE END LIST*
D10*
%TO.C,G\u002A\u002A\u002A*%
X78616445Y-20816446D02*
X78614852Y-20978721D01*
X78610222Y-21079828D01*
X78583512Y-21220942D01*
X78530258Y-21322775D01*
X78447112Y-21393608D01*
X78444977Y-21394850D01*
X78417184Y-21409624D01*
X78385907Y-21421576D01*
X78345259Y-21431009D01*
X78289359Y-21438217D01*
X78212322Y-21443499D01*
X78108262Y-21447155D01*
X77971295Y-21449478D01*
X77795538Y-21450769D01*
X77575104Y-21451325D01*
X77304111Y-21451445D01*
X77145468Y-21451393D01*
X76901652Y-21450933D01*
X76705194Y-21449779D01*
X76550259Y-21447668D01*
X76431012Y-21444336D01*
X76341622Y-21439522D01*
X76276255Y-21432961D01*
X76229074Y-21424395D01*
X76194250Y-21413555D01*
X76165945Y-21400181D01*
X76133550Y-21379748D01*
X76053751Y-21290422D01*
X76007013Y-21160630D01*
X75991777Y-20986684D01*
X75991777Y-20816444D01*
X78616445Y-20816446D01*
G36*
X78616445Y-20816446D02*
G01*
X78614852Y-20978721D01*
X78610222Y-21079828D01*
X78583512Y-21220942D01*
X78530258Y-21322775D01*
X78447112Y-21393608D01*
X78444977Y-21394850D01*
X78417184Y-21409624D01*
X78385907Y-21421576D01*
X78345259Y-21431009D01*
X78289359Y-21438217D01*
X78212322Y-21443499D01*
X78108262Y-21447155D01*
X77971295Y-21449478D01*
X77795538Y-21450769D01*
X77575104Y-21451325D01*
X77304111Y-21451445D01*
X77145468Y-21451393D01*
X76901652Y-21450933D01*
X76705194Y-21449779D01*
X76550259Y-21447668D01*
X76431012Y-21444336D01*
X76341622Y-21439522D01*
X76276255Y-21432961D01*
X76229074Y-21424395D01*
X76194250Y-21413555D01*
X76165945Y-21400181D01*
X76133550Y-21379748D01*
X76053751Y-21290422D01*
X76007013Y-21160630D01*
X75991777Y-20986684D01*
X75991777Y-20816444D01*
X78616445Y-20816446D01*
G37*
X78635023Y-19501642D02*
X78836345Y-19569378D01*
X79045177Y-19639818D01*
X79232576Y-19703214D01*
X79392124Y-19757385D01*
X79517405Y-19800156D01*
X79602002Y-19829344D01*
X79639500Y-19842770D01*
X79642586Y-19844277D01*
X79650766Y-19852140D01*
X79657922Y-19867932D01*
X79664128Y-19895124D01*
X79669447Y-19937175D01*
X79673950Y-19997556D01*
X79677702Y-20079728D01*
X79680772Y-20187157D01*
X79683227Y-20323309D01*
X79685134Y-20491649D01*
X79686564Y-20695642D01*
X79687582Y-20938752D01*
X79688255Y-21224448D01*
X79688651Y-21556192D01*
X79688840Y-21937449D01*
X79688889Y-22371686D01*
X79688890Y-24880446D01*
X74919334Y-24880445D01*
X74919334Y-22933111D01*
X75540222Y-22933111D01*
X76346221Y-22933111D01*
X76393318Y-22933153D01*
X76595212Y-22934295D01*
X76775151Y-22936853D01*
X76926242Y-22940614D01*
X77041582Y-22945377D01*
X77114274Y-22950926D01*
X77137422Y-22957055D01*
X77131072Y-22961837D01*
X77082380Y-22988219D01*
X76991375Y-23033507D01*
X76864416Y-23094667D01*
X76707864Y-23168646D01*
X76528078Y-23252402D01*
X76331424Y-23342889D01*
X75540222Y-23704780D01*
X75540223Y-24200282D01*
X76210500Y-23873944D01*
X76379893Y-23791748D01*
X76546924Y-23711287D01*
X76691930Y-23642050D01*
X76807737Y-23587438D01*
X76887188Y-23550851D01*
X76923111Y-23535690D01*
X76928852Y-23535881D01*
X76979313Y-23549352D01*
X77074568Y-23580675D01*
X77208757Y-23627736D01*
X77376022Y-23688421D01*
X77570510Y-23760610D01*
X77786357Y-23842190D01*
X78017709Y-23931045D01*
X79069972Y-24338311D01*
X79053889Y-23801201D01*
X78715222Y-23677400D01*
X78476709Y-23590200D01*
X78232899Y-23500916D01*
X78034170Y-23427747D01*
X77876183Y-23368898D01*
X77754599Y-23322569D01*
X77665076Y-23286958D01*
X77603276Y-23260267D01*
X77564858Y-23240696D01*
X77545488Y-23226445D01*
X77540824Y-23215719D01*
X77546521Y-23206715D01*
X77558249Y-23197632D01*
X77569525Y-23190026D01*
X77630486Y-23153836D01*
X77721441Y-23103400D01*
X77827266Y-23047175D01*
X78046508Y-22933111D01*
X79068002Y-22933111D01*
X79068000Y-22453334D01*
X75540222Y-22453334D01*
X75540222Y-22933111D01*
X74919334Y-22933111D01*
X74919334Y-20811416D01*
X75540222Y-20811416D01*
X75541296Y-20983733D01*
X75546896Y-21166700D01*
X75558914Y-21309617D01*
X75579163Y-21421725D01*
X75609447Y-21512267D01*
X75651579Y-21590492D01*
X75707364Y-21665642D01*
X75749748Y-21709476D01*
X75840586Y-21783518D01*
X75939411Y-21847505D01*
X76090556Y-21931222D01*
X78489445Y-21931222D01*
X78624075Y-21864344D01*
X78707712Y-21814571D01*
X78844875Y-21695634D01*
X78955817Y-21551717D01*
X79025797Y-21399868D01*
X79029346Y-21387262D01*
X79047008Y-21295034D01*
X79059004Y-21168479D01*
X79065834Y-21000276D01*
X79068000Y-20783100D01*
X79067999Y-20308445D01*
X75540223Y-20308445D01*
X75540222Y-20811416D01*
X74919334Y-20811416D01*
X74919334Y-19203380D01*
X75039278Y-19306186D01*
X75043983Y-19310200D01*
X75231688Y-19443581D01*
X75445219Y-19544483D01*
X75540222Y-19571645D01*
X75690724Y-19614676D01*
X75974341Y-19655930D01*
X76302222Y-19670016D01*
X76459312Y-19667980D01*
X76725894Y-19648610D01*
X76954879Y-19606330D01*
X77156665Y-19538079D01*
X77341653Y-19440799D01*
X77520245Y-19311421D01*
X77679935Y-19180673D01*
X78635023Y-19501642D01*
G36*
X78635023Y-19501642D02*
G01*
X78836345Y-19569378D01*
X79045177Y-19639818D01*
X79232576Y-19703214D01*
X79392124Y-19757385D01*
X79517405Y-19800156D01*
X79602002Y-19829344D01*
X79639500Y-19842770D01*
X79642586Y-19844277D01*
X79650766Y-19852140D01*
X79657922Y-19867932D01*
X79664128Y-19895124D01*
X79669447Y-19937175D01*
X79673950Y-19997556D01*
X79677702Y-20079728D01*
X79680772Y-20187157D01*
X79683227Y-20323309D01*
X79685134Y-20491649D01*
X79686564Y-20695642D01*
X79687582Y-20938752D01*
X79688255Y-21224448D01*
X79688651Y-21556192D01*
X79688840Y-21937449D01*
X79688889Y-22371686D01*
X79688890Y-24880446D01*
X74919334Y-24880445D01*
X74919334Y-22933111D01*
X75540222Y-22933111D01*
X76346221Y-22933111D01*
X76393318Y-22933153D01*
X76595212Y-22934295D01*
X76775151Y-22936853D01*
X76926242Y-22940614D01*
X77041582Y-22945377D01*
X77114274Y-22950926D01*
X77137422Y-22957055D01*
X77131072Y-22961837D01*
X77082380Y-22988219D01*
X76991375Y-23033507D01*
X76864416Y-23094667D01*
X76707864Y-23168646D01*
X76528078Y-23252402D01*
X76331424Y-23342889D01*
X75540222Y-23704780D01*
X75540223Y-24200282D01*
X76210500Y-23873944D01*
X76379893Y-23791748D01*
X76546924Y-23711287D01*
X76691930Y-23642050D01*
X76807737Y-23587438D01*
X76887188Y-23550851D01*
X76923111Y-23535690D01*
X76928852Y-23535881D01*
X76979313Y-23549352D01*
X77074568Y-23580675D01*
X77208757Y-23627736D01*
X77376022Y-23688421D01*
X77570510Y-23760610D01*
X77786357Y-23842190D01*
X78017709Y-23931045D01*
X79069972Y-24338311D01*
X79053889Y-23801201D01*
X78715222Y-23677400D01*
X78476709Y-23590200D01*
X78232899Y-23500916D01*
X78034170Y-23427747D01*
X77876183Y-23368898D01*
X77754599Y-23322569D01*
X77665076Y-23286958D01*
X77603276Y-23260267D01*
X77564858Y-23240696D01*
X77545488Y-23226445D01*
X77540824Y-23215719D01*
X77546521Y-23206715D01*
X77558249Y-23197632D01*
X77569525Y-23190026D01*
X77630486Y-23153836D01*
X77721441Y-23103400D01*
X77827266Y-23047175D01*
X78046508Y-22933111D01*
X79068002Y-22933111D01*
X79068000Y-22453334D01*
X75540222Y-22453334D01*
X75540222Y-22933111D01*
X74919334Y-22933111D01*
X74919334Y-20811416D01*
X75540222Y-20811416D01*
X75541296Y-20983733D01*
X75546896Y-21166700D01*
X75558914Y-21309617D01*
X75579163Y-21421725D01*
X75609447Y-21512267D01*
X75651579Y-21590492D01*
X75707364Y-21665642D01*
X75749748Y-21709476D01*
X75840586Y-21783518D01*
X75939411Y-21847505D01*
X76090556Y-21931222D01*
X78489445Y-21931222D01*
X78624075Y-21864344D01*
X78707712Y-21814571D01*
X78844875Y-21695634D01*
X78955817Y-21551717D01*
X79025797Y-21399868D01*
X79029346Y-21387262D01*
X79047008Y-21295034D01*
X79059004Y-21168479D01*
X79065834Y-21000276D01*
X79068000Y-20783100D01*
X79067999Y-20308445D01*
X75540223Y-20308445D01*
X75540222Y-20811416D01*
X74919334Y-20811416D01*
X74919334Y-19203380D01*
X75039278Y-19306186D01*
X75043983Y-19310200D01*
X75231688Y-19443581D01*
X75445219Y-19544483D01*
X75540222Y-19571645D01*
X75690724Y-19614676D01*
X75974341Y-19655930D01*
X76302222Y-19670016D01*
X76459312Y-19667980D01*
X76725894Y-19648610D01*
X76954879Y-19606330D01*
X77156665Y-19538079D01*
X77341653Y-19440799D01*
X77520245Y-19311421D01*
X77679935Y-19180673D01*
X78635023Y-19501642D01*
G37*
%TD*%
D11*
%TO.C,REF\u002A\u002A*%
X1350000Y-3000000D03*
X1833274Y-1833274D03*
X1833274Y-4166726D03*
X3000000Y-1350000D03*
D12*
X3000000Y-3000000D03*
D11*
X3000000Y-4650000D03*
X4166726Y-1833274D03*
X4166726Y-4166726D03*
X4650000Y-3000000D03*
%TD*%
D13*
%TO.C,X2*%
X20200000Y-8080000D03*
D14*
X20200000Y-10620000D03*
D13*
X22740000Y-8080000D03*
X22740000Y-10620000D03*
D15*
X25280000Y-8080000D03*
X25280000Y-10620000D03*
%TD*%
D11*
%TO.C,REF\u002A\u002A*%
X81350000Y-33000000D03*
X81833274Y-31833274D03*
X81833274Y-34166726D03*
X83000000Y-31350000D03*
D12*
X83000000Y-33000000D03*
D11*
X83000000Y-34650000D03*
X84166726Y-31833274D03*
X84166726Y-34166726D03*
X84650000Y-33000000D03*
%TD*%
%TO.C,REF\u002A\u002A*%
X81350000Y-3000000D03*
X81833274Y-1833274D03*
X81833274Y-4166726D03*
X83000000Y-1350000D03*
D12*
X83000000Y-3000000D03*
D11*
X83000000Y-4650000D03*
X84166726Y-1833274D03*
X84166726Y-4166726D03*
X84650000Y-3000000D03*
%TD*%
D16*
%TO.C,J1*%
X31570000Y-34730000D03*
D17*
X29029996Y-34729999D03*
X26490000Y-34730000D03*
X23950000Y-34730000D03*
X21410001Y-34730000D03*
X18870001Y-34730000D03*
X16330000Y-34730000D03*
X13790000Y-34730000D03*
%TD*%
D11*
%TO.C,REF\u002A\u002A*%
X1350000Y-33000000D03*
X1833274Y-31833274D03*
X1833274Y-34166726D03*
X3000000Y-31350000D03*
D12*
X3000000Y-33000000D03*
D11*
X3000000Y-34650000D03*
X4166726Y-31833274D03*
X4166726Y-34166726D03*
X4650000Y-33000000D03*
%TD*%
D13*
%TO.C,X1*%
X58300000Y-8080000D03*
D14*
X58300000Y-10620000D03*
D13*
X60840000Y-8080000D03*
X60840000Y-10620000D03*
D15*
X63380000Y-8080000D03*
X63380000Y-10620000D03*
%TD*%
D16*
%TO.C,J2*%
X72210000Y-34730000D03*
D17*
X69669996Y-34729998D03*
X67130000Y-34730000D03*
X64590000Y-34730000D03*
X62050001Y-34729997D03*
X59510001Y-34730000D03*
X56970000Y-34730000D03*
D16*
X54430000Y-34730000D03*
D17*
X51890000Y-34730000D03*
X49350002Y-34730000D03*
%TD*%
M02*
