%TF.GenerationSoftware,KiCad,Pcbnew,8.99.0-2433-g53022ab347*%
%TF.CreationDate,2024-10-05T16:52:00+02:00*%
%TF.ProjectId,Flipper SAO Debug,466c6970-7065-4722-9053-414f20446562,1.0*%
%TF.SameCoordinates,PX25b7c30PY3881550*%
%TF.FileFunction,Soldermask,Top*%
%TF.FilePolarity,Negative*%
%FSLAX46Y46*%
G04 Gerber Fmt 4.6, Leading zero omitted, Abs format (unit mm)*
G04 Created by KiCad (PCBNEW 8.99.0-2433-g53022ab347) date 2024-10-05 16:52:00*
%MOMM*%
%LPD*%
G01*
G04 APERTURE LIST*
G04 Aperture macros list*
%AMRoundRect*
0 Rectangle with rounded corners*
0 $1 Rounding radius*
0 $2 $3 $4 $5 $6 $7 $8 $9 X,Y pos of 4 corners*
0 Add a 4 corners polygon primitive as box body*
4,1,4,$2,$3,$4,$5,$6,$7,$8,$9,$2,$3,0*
0 Add four circle primitives for the rounded corners*
1,1,$1+$1,$2,$3*
1,1,$1+$1,$4,$5*
1,1,$1+$1,$6,$7*
1,1,$1+$1,$8,$9*
0 Add four rect primitives between the rounded corners*
20,1,$1+$1,$2,$3,$4,$5,0*
20,1,$1+$1,$4,$5,$6,$7,0*
20,1,$1+$1,$6,$7,$8,$9,0*
20,1,$1+$1,$8,$9,$2,$3,0*%
G04 Aperture macros list end*
%ADD10C,0.010000*%
%ADD11C,0.700000*%
%ADD12C,4.400000*%
%ADD13RoundRect,0.200000X0.200000X0.275000X-0.200000X0.275000X-0.200000X-0.275000X0.200000X-0.275000X0*%
%ADD14O,1.727200X1.727200*%
%ADD15R,1.727200X1.727200*%
%ADD16C,1.727200*%
%ADD17RoundRect,0.200000X-0.200000X-0.275000X0.200000X-0.275000X0.200000X0.275000X-0.200000X0.275000X0*%
%ADD18RoundRect,0.425000X-0.425000X0.425000X-0.425000X-0.425000X0.425000X-0.425000X0.425000X0.425000X0*%
%ADD19O,1.700000X1.700000*%
%ADD20RoundRect,0.150000X0.625000X-0.150000X0.625000X0.150000X-0.625000X0.150000X-0.625000X-0.150000X0*%
%ADD21RoundRect,0.250000X0.650000X-0.350000X0.650000X0.350000X-0.650000X0.350000X-0.650000X-0.350000X0*%
G04 APERTURE END LIST*
D10*
%TO.C,G\u002A\u002A\u002A*%
X6785104Y-15168675D02*
X7005538Y-15169231D01*
X7181295Y-15170522D01*
X7318260Y-15172845D01*
X7422323Y-15176501D01*
X7499359Y-15181784D01*
X7555261Y-15188991D01*
X7595908Y-15198423D01*
X7627186Y-15210377D01*
X7654975Y-15225151D01*
X7657113Y-15226389D01*
X7740258Y-15297223D01*
X7793512Y-15399058D01*
X7820223Y-15540173D01*
X7824851Y-15641278D01*
X7826443Y-15803556D01*
X5201777Y-15803556D01*
X5201775Y-15633316D01*
X5217013Y-15459370D01*
X5263751Y-15329578D01*
X5343550Y-15240252D01*
X5375945Y-15219819D01*
X5404248Y-15206445D01*
X5439075Y-15195607D01*
X5486255Y-15187040D01*
X5551622Y-15180478D01*
X5641012Y-15175664D01*
X5760259Y-15172332D01*
X5915194Y-15170220D01*
X6111655Y-15169068D01*
X6355468Y-15168609D01*
X6514111Y-15168555D01*
X6785104Y-15168675D01*
G36*
X6785104Y-15168675D02*
G01*
X7005538Y-15169231D01*
X7181295Y-15170522D01*
X7318260Y-15172845D01*
X7422323Y-15176501D01*
X7499359Y-15181784D01*
X7555261Y-15188991D01*
X7595908Y-15198423D01*
X7627186Y-15210377D01*
X7654975Y-15225151D01*
X7657113Y-15226389D01*
X7740258Y-15297223D01*
X7793512Y-15399058D01*
X7820223Y-15540173D01*
X7824851Y-15641278D01*
X7826443Y-15803556D01*
X5201777Y-15803556D01*
X5201775Y-15633316D01*
X5217013Y-15459370D01*
X5263751Y-15329578D01*
X5343550Y-15240252D01*
X5375945Y-15219819D01*
X5404248Y-15206445D01*
X5439075Y-15195607D01*
X5486255Y-15187040D01*
X5551622Y-15180478D01*
X5641012Y-15175664D01*
X5760259Y-15172332D01*
X5915194Y-15170220D01*
X6111655Y-15169068D01*
X6355468Y-15168609D01*
X6514111Y-15168555D01*
X6785104Y-15168675D01*
G37*
X8898889Y-14248314D02*
X8898840Y-14682552D01*
X8898651Y-15063808D01*
X8898255Y-15395552D01*
X8897581Y-15681246D01*
X8896566Y-15924359D01*
X8895136Y-16128352D01*
X8893227Y-16296692D01*
X8890771Y-16432842D01*
X8887702Y-16540272D01*
X8883951Y-16622444D01*
X8879447Y-16682824D01*
X8874128Y-16724876D01*
X8867924Y-16752068D01*
X8860764Y-16767859D01*
X8852586Y-16775725D01*
X8849502Y-16777231D01*
X8812003Y-16790658D01*
X8727407Y-16819844D01*
X8602125Y-16862613D01*
X8442576Y-16916786D01*
X8255177Y-16980182D01*
X8046345Y-17050622D01*
X7845023Y-17118358D01*
X6889933Y-17439327D01*
X6730245Y-17308579D01*
X6551653Y-17179201D01*
X6366664Y-17081921D01*
X6164877Y-17013669D01*
X5935894Y-16971390D01*
X5669313Y-16952019D01*
X5512220Y-16949983D01*
X5184341Y-16964070D01*
X4900722Y-17005325D01*
X4750222Y-17048355D01*
X4655220Y-17075516D01*
X4441688Y-17176419D01*
X4253983Y-17309800D01*
X4249277Y-17313816D01*
X4129334Y-17416620D01*
X4129334Y-16311555D01*
X4750220Y-16311555D01*
X8277999Y-16311555D01*
X8278000Y-15836900D01*
X8275835Y-15619725D01*
X8269005Y-15451520D01*
X8257008Y-15324966D01*
X8239345Y-15232738D01*
X8235797Y-15220132D01*
X8165817Y-15068283D01*
X8054875Y-14924366D01*
X7917712Y-14805429D01*
X7834075Y-14755656D01*
X7699445Y-14688778D01*
X5300556Y-14688778D01*
X5149409Y-14772494D01*
X5050586Y-14836480D01*
X4959747Y-14910526D01*
X4917364Y-14954360D01*
X4861578Y-15029508D01*
X4819449Y-15107731D01*
X4789162Y-15198275D01*
X4768914Y-15310383D01*
X4756896Y-15453300D01*
X4751296Y-15636269D01*
X4750223Y-15808586D01*
X4750220Y-16311555D01*
X4129334Y-16311555D01*
X4129333Y-12419718D01*
X4750221Y-12419718D01*
X4750222Y-12915219D01*
X5541424Y-13277111D01*
X5738078Y-13367598D01*
X5917863Y-13451352D01*
X6074416Y-13525332D01*
X6201376Y-13586491D01*
X6292381Y-13631783D01*
X6341072Y-13658163D01*
X6347422Y-13662945D01*
X6324274Y-13669074D01*
X6251581Y-13674624D01*
X6136242Y-13679387D01*
X5985153Y-13683148D01*
X5805210Y-13685704D01*
X5603318Y-13686849D01*
X5556221Y-13686888D01*
X4750222Y-13686889D01*
X4750223Y-14166665D01*
X8277999Y-14166666D01*
X8278000Y-13686888D01*
X7256508Y-13686889D01*
X7037265Y-13572827D01*
X6931441Y-13516600D01*
X6840486Y-13466164D01*
X6779525Y-13429974D01*
X6768249Y-13422368D01*
X6756521Y-13413285D01*
X6750822Y-13404279D01*
X6755490Y-13393553D01*
X6774858Y-13379304D01*
X6813275Y-13359731D01*
X6875074Y-13333042D01*
X6964599Y-13297431D01*
X7086184Y-13251103D01*
X7244172Y-13192252D01*
X7442901Y-13119083D01*
X7686709Y-13029800D01*
X7925222Y-12942600D01*
X8263889Y-12818799D01*
X8279973Y-12281690D01*
X7227709Y-12688955D01*
X6996357Y-12777810D01*
X6780509Y-12859389D01*
X6586022Y-12931579D01*
X6418758Y-12992263D01*
X6284566Y-13039325D01*
X6189315Y-13070649D01*
X6138853Y-13084119D01*
X6133111Y-13084310D01*
X6097186Y-13069151D01*
X6017737Y-13032562D01*
X5901929Y-12977949D01*
X5756926Y-12908714D01*
X5589895Y-12828252D01*
X5420499Y-12746058D01*
X4750221Y-12419718D01*
X4129333Y-12419718D01*
X4129333Y-11739555D01*
X8898891Y-11739554D01*
X8898889Y-14248314D01*
G36*
X8898889Y-14248314D02*
G01*
X8898840Y-14682552D01*
X8898651Y-15063808D01*
X8898255Y-15395552D01*
X8897581Y-15681246D01*
X8896566Y-15924359D01*
X8895136Y-16128352D01*
X8893227Y-16296692D01*
X8890771Y-16432842D01*
X8887702Y-16540272D01*
X8883951Y-16622444D01*
X8879447Y-16682824D01*
X8874128Y-16724876D01*
X8867924Y-16752068D01*
X8860764Y-16767859D01*
X8852586Y-16775725D01*
X8849502Y-16777231D01*
X8812003Y-16790658D01*
X8727407Y-16819844D01*
X8602125Y-16862613D01*
X8442576Y-16916786D01*
X8255177Y-16980182D01*
X8046345Y-17050622D01*
X7845023Y-17118358D01*
X6889933Y-17439327D01*
X6730245Y-17308579D01*
X6551653Y-17179201D01*
X6366664Y-17081921D01*
X6164877Y-17013669D01*
X5935894Y-16971390D01*
X5669313Y-16952019D01*
X5512220Y-16949983D01*
X5184341Y-16964070D01*
X4900722Y-17005325D01*
X4750222Y-17048355D01*
X4655220Y-17075516D01*
X4441688Y-17176419D01*
X4253983Y-17309800D01*
X4249277Y-17313816D01*
X4129334Y-17416620D01*
X4129334Y-16311555D01*
X4750220Y-16311555D01*
X8277999Y-16311555D01*
X8278000Y-15836900D01*
X8275835Y-15619725D01*
X8269005Y-15451520D01*
X8257008Y-15324966D01*
X8239345Y-15232738D01*
X8235797Y-15220132D01*
X8165817Y-15068283D01*
X8054875Y-14924366D01*
X7917712Y-14805429D01*
X7834075Y-14755656D01*
X7699445Y-14688778D01*
X5300556Y-14688778D01*
X5149409Y-14772494D01*
X5050586Y-14836480D01*
X4959747Y-14910526D01*
X4917364Y-14954360D01*
X4861578Y-15029508D01*
X4819449Y-15107731D01*
X4789162Y-15198275D01*
X4768914Y-15310383D01*
X4756896Y-15453300D01*
X4751296Y-15636269D01*
X4750223Y-15808586D01*
X4750220Y-16311555D01*
X4129334Y-16311555D01*
X4129333Y-12419718D01*
X4750221Y-12419718D01*
X4750222Y-12915219D01*
X5541424Y-13277111D01*
X5738078Y-13367598D01*
X5917863Y-13451352D01*
X6074416Y-13525332D01*
X6201376Y-13586491D01*
X6292381Y-13631783D01*
X6341072Y-13658163D01*
X6347422Y-13662945D01*
X6324274Y-13669074D01*
X6251581Y-13674624D01*
X6136242Y-13679387D01*
X5985153Y-13683148D01*
X5805210Y-13685704D01*
X5603318Y-13686849D01*
X5556221Y-13686888D01*
X4750222Y-13686889D01*
X4750223Y-14166665D01*
X8277999Y-14166666D01*
X8278000Y-13686888D01*
X7256508Y-13686889D01*
X7037265Y-13572827D01*
X6931441Y-13516600D01*
X6840486Y-13466164D01*
X6779525Y-13429974D01*
X6768249Y-13422368D01*
X6756521Y-13413285D01*
X6750822Y-13404279D01*
X6755490Y-13393553D01*
X6774858Y-13379304D01*
X6813275Y-13359731D01*
X6875074Y-13333042D01*
X6964599Y-13297431D01*
X7086184Y-13251103D01*
X7244172Y-13192252D01*
X7442901Y-13119083D01*
X7686709Y-13029800D01*
X7925222Y-12942600D01*
X8263889Y-12818799D01*
X8279973Y-12281690D01*
X7227709Y-12688955D01*
X6996357Y-12777810D01*
X6780509Y-12859389D01*
X6586022Y-12931579D01*
X6418758Y-12992263D01*
X6284566Y-13039325D01*
X6189315Y-13070649D01*
X6138853Y-13084119D01*
X6133111Y-13084310D01*
X6097186Y-13069151D01*
X6017737Y-13032562D01*
X5901929Y-12977949D01*
X5756926Y-12908714D01*
X5589895Y-12828252D01*
X5420499Y-12746058D01*
X4750221Y-12419718D01*
X4129333Y-12419718D01*
X4129333Y-11739555D01*
X8898891Y-11739554D01*
X8898889Y-14248314D01*
G37*
%TD*%
D11*
%TO.C,REF\u002A\u002A*%
X1350000Y-3000000D03*
X1833274Y-1833274D03*
X1833274Y-4166726D03*
X3000000Y-1350000D03*
D12*
X3000000Y-3000000D03*
D11*
X3000000Y-4650000D03*
X4166726Y-1833274D03*
X4166726Y-4166726D03*
X4650000Y-3000000D03*
%TD*%
D13*
%TO.C,R2*%
X13345000Y-8060000D03*
X11695000Y-8060000D03*
%TD*%
D14*
%TO.C,X2*%
X20200000Y-8080000D03*
D15*
X20200000Y-10620000D03*
D14*
X22740000Y-8080000D03*
X22740000Y-10620000D03*
D16*
X25280000Y-8080000D03*
X25280000Y-10620000D03*
%TD*%
D11*
%TO.C,REF\u002A\u002A*%
X81350000Y-33000000D03*
X81833274Y-31833274D03*
X81833274Y-34166726D03*
X83000000Y-31350000D03*
D12*
X83000000Y-33000000D03*
D11*
X83000000Y-34650000D03*
X84166726Y-31833274D03*
X84166726Y-34166726D03*
X84650000Y-33000000D03*
%TD*%
%TO.C,REF\u002A\u002A*%
X81350000Y-3000000D03*
X81833274Y-1833274D03*
X81833274Y-4166726D03*
X83000000Y-1350000D03*
D12*
X83000000Y-3000000D03*
D11*
X83000000Y-4650000D03*
X84166726Y-1833274D03*
X84166726Y-4166726D03*
X84650000Y-3000000D03*
%TD*%
D17*
%TO.C,R1*%
X11695000Y-10600000D03*
X13345000Y-10600000D03*
%TD*%
D18*
%TO.C,J1*%
X31570000Y-34730000D03*
D19*
X29029996Y-34729999D03*
X26490000Y-34730000D03*
X23950000Y-34730000D03*
X21410001Y-34730000D03*
X18870001Y-34730000D03*
X16330000Y-34730000D03*
X13790000Y-34730000D03*
%TD*%
D11*
%TO.C,REF\u002A\u002A*%
X1350000Y-33000000D03*
X1833274Y-31833274D03*
X1833274Y-34166726D03*
X3000000Y-31350000D03*
D12*
X3000000Y-33000000D03*
D11*
X3000000Y-34650000D03*
X4166726Y-31833274D03*
X4166726Y-34166726D03*
X4650000Y-33000000D03*
%TD*%
D20*
%TO.C,J3*%
X80700000Y-24500000D03*
X80700000Y-23500000D03*
X80700000Y-22500000D03*
X80700001Y-21500000D03*
D21*
X84574998Y-25800000D03*
X84575001Y-20200000D03*
%TD*%
D13*
%TO.C,R4*%
X71765000Y-8060000D03*
X70115000Y-8060000D03*
%TD*%
%TO.C,R3*%
X71765000Y-10600000D03*
X70115000Y-10600000D03*
%TD*%
D14*
%TO.C,X1*%
X58300000Y-8080000D03*
D15*
X58300000Y-10620000D03*
D14*
X60840000Y-8080000D03*
X60840000Y-10620000D03*
D16*
X63380000Y-8080000D03*
X63380000Y-10620000D03*
%TD*%
D18*
%TO.C,J2*%
X72210000Y-34730000D03*
D19*
X69669996Y-34729998D03*
X67130000Y-34730000D03*
X64590000Y-34730000D03*
X62050001Y-34729997D03*
X59510001Y-34730000D03*
X56970000Y-34730000D03*
D18*
X54430000Y-34730000D03*
D19*
X51890000Y-34730000D03*
X49350002Y-34730000D03*
%TD*%
M02*
