%TF.GenerationSoftware,KiCad,Pcbnew,8.99.0-2433-g53022ab347*%
%TF.CreationDate,2024-10-05T16:52:00+02:00*%
%TF.ProjectId,Flipper SAO Debug,466c6970-7065-4722-9053-414f20446562,1.0*%
%TF.SameCoordinates,PX25b7c30PY3881550*%
%TF.FileFunction,Legend,Bot*%
%TF.FilePolarity,Positive*%
%FSLAX46Y46*%
G04 Gerber Fmt 4.6, Leading zero omitted, Abs format (unit mm)*
G04 Created by KiCad (PCBNEW 8.99.0-2433-g53022ab347) date 2024-10-05 16:52:00*
%MOMM*%
%LPD*%
G01*
G04 APERTURE LIST*
%ADD10C,0.200000*%
%ADD11C,0.150000*%
%ADD12C,0.700000*%
%ADD13C,0.010000*%
G04 APERTURE END LIST*
D10*
G36*
X65850198Y-28505000D02*
G01*
X65850198Y-25969026D01*
X66278112Y-26283916D01*
X66278112Y-25830357D01*
X65850198Y-25515467D01*
X65421735Y-25515467D01*
X65421735Y-28505000D01*
X65850198Y-28505000D01*
G37*
G36*
X64756967Y-28505000D02*
G01*
X64756967Y-28076170D01*
X64328504Y-28076170D01*
X64328504Y-28505000D01*
X64756967Y-28505000D01*
G37*
G36*
X63497422Y-25496332D02*
G01*
X63615376Y-25529389D01*
X63724323Y-25583634D01*
X63819258Y-25657616D01*
X63898139Y-25749433D01*
X63960125Y-25859483D01*
X63998885Y-25982807D01*
X64012515Y-26128394D01*
X64012515Y-27885478D01*
X63998893Y-28030930D01*
X63960125Y-28154389D01*
X63898150Y-28264285D01*
X63819258Y-28356072D01*
X63724323Y-28430055D01*
X63615376Y-28484300D01*
X63497422Y-28517357D01*
X63373576Y-28528447D01*
X63249888Y-28517361D01*
X63131959Y-28484300D01*
X63023012Y-28430055D01*
X62928077Y-28356072D01*
X62849331Y-28264299D01*
X62787393Y-28154389D01*
X62748350Y-28030909D01*
X62734637Y-27885478D01*
X62734637Y-26128394D01*
X62734654Y-26128211D01*
X63163100Y-26128211D01*
X63163100Y-27885294D01*
X63178176Y-27970777D01*
X63222084Y-28038801D01*
X63288436Y-28084059D01*
X63373393Y-28099617D01*
X63458697Y-28084049D01*
X63525251Y-28038801D01*
X63569017Y-27970792D01*
X63584052Y-27885294D01*
X63584052Y-26128211D01*
X63569019Y-26042903D01*
X63525251Y-25975071D01*
X63458682Y-25929681D01*
X63373393Y-25914071D01*
X63288451Y-25929671D01*
X63222084Y-25975071D01*
X63178174Y-26042918D01*
X63163100Y-26128211D01*
X62734654Y-26128211D01*
X62748358Y-25982827D01*
X62787393Y-25859483D01*
X62849342Y-25749419D01*
X62928077Y-25657616D01*
X63023012Y-25583634D01*
X63131959Y-25529389D01*
X63249888Y-25496328D01*
X63373576Y-25485242D01*
X63497422Y-25496332D01*
G37*
G36*
X62415167Y-28811280D02*
G01*
X62415167Y-28071224D01*
X61986704Y-28071224D01*
X61986704Y-28500054D01*
X62415167Y-28811280D01*
G37*
G36*
X60797302Y-28505000D02*
G01*
X60797302Y-26711280D01*
X61008328Y-26711280D01*
X61008328Y-26371294D01*
X60797302Y-26371294D01*
X60797302Y-26083148D01*
X60784846Y-25935931D01*
X60750957Y-25822297D01*
X60695558Y-25723827D01*
X60624562Y-25644794D01*
X60542731Y-25584295D01*
X60449623Y-25544776D01*
X60349173Y-25522831D01*
X60245008Y-25515467D01*
X60046988Y-25515467D01*
X60046988Y-25914071D01*
X60241711Y-25914071D01*
X60312143Y-25930262D01*
X60353018Y-25975535D01*
X60368839Y-26060800D01*
X60368839Y-26371294D01*
X60046988Y-26371294D01*
X60046988Y-26711280D01*
X60368839Y-26711280D01*
X60368839Y-28505000D01*
X60797302Y-28505000D01*
G37*
G36*
X59452473Y-26357906D02*
G01*
X59565621Y-26386429D01*
X59662855Y-26431927D01*
X59787791Y-26530041D01*
X59879377Y-26654677D01*
X59917649Y-26743182D01*
X59942391Y-26847751D01*
X59959061Y-27087353D01*
X59959061Y-27788941D01*
X59942391Y-28028543D01*
X59917649Y-28133112D01*
X59879377Y-28221617D01*
X59787799Y-28346290D01*
X59662855Y-28444549D01*
X59565632Y-28489944D01*
X59452484Y-28518407D01*
X59320122Y-28528447D01*
X59187884Y-28518407D01*
X59074859Y-28489944D01*
X58977754Y-28444549D01*
X58852660Y-28346277D01*
X58761050Y-28221617D01*
X58722777Y-28133112D01*
X58698035Y-28028543D01*
X58681182Y-27788941D01*
X58681182Y-27087353D01*
X58685898Y-27020308D01*
X59109645Y-27020308D01*
X59109645Y-27856168D01*
X59125311Y-27967305D01*
X59166432Y-28038801D01*
X59231696Y-28083810D01*
X59319938Y-28099617D01*
X59408497Y-28083794D01*
X59473811Y-28038801D01*
X59514932Y-27967305D01*
X59530598Y-27856168D01*
X59530598Y-27020308D01*
X59514932Y-26909172D01*
X59473811Y-26837676D01*
X59408481Y-26792541D01*
X59319938Y-26776676D01*
X59231712Y-26792525D01*
X59166432Y-26837676D01*
X59125311Y-26909172D01*
X59109645Y-27020308D01*
X58685898Y-27020308D01*
X58698035Y-26847751D01*
X58722777Y-26743182D01*
X58761050Y-26654677D01*
X58852668Y-26530054D01*
X58977754Y-26431927D01*
X59074870Y-26386429D01*
X59187895Y-26357907D01*
X59320122Y-26347847D01*
X59452473Y-26357906D01*
G37*
G36*
X58393953Y-25515467D02*
G01*
X57965490Y-25515467D01*
X57965490Y-27907826D01*
X57952352Y-28017762D01*
X57921343Y-28073972D01*
X57864978Y-28107602D01*
X57755013Y-28130758D01*
X57755013Y-28534309D01*
X57898306Y-28528178D01*
X58019895Y-28511045D01*
X58130453Y-28476326D01*
X58221578Y-28420736D01*
X58294353Y-28346408D01*
X58349806Y-28242133D01*
X58381642Y-28116500D01*
X58393953Y-27937135D01*
X58393953Y-25515467D01*
G37*
G36*
X57614330Y-25515467D02*
G01*
X57185867Y-25515467D01*
X57185867Y-27907826D01*
X57172729Y-28017762D01*
X57141720Y-28073972D01*
X57085355Y-28107602D01*
X56975390Y-28130758D01*
X56975390Y-28534309D01*
X57118683Y-28528178D01*
X57240272Y-28511045D01*
X57350830Y-28476326D01*
X57441955Y-28420736D01*
X57514730Y-28346408D01*
X57570183Y-28242133D01*
X57602019Y-28116500D01*
X57614330Y-27937135D01*
X57614330Y-25515467D01*
G37*
G36*
X56339842Y-26357906D02*
G01*
X56452990Y-26386429D01*
X56550225Y-26431927D01*
X56675160Y-26530041D01*
X56766746Y-26654677D01*
X56805019Y-26743182D01*
X56829760Y-26847751D01*
X56846430Y-27087353D01*
X56846430Y-27788941D01*
X56829760Y-28028543D01*
X56805019Y-28133112D01*
X56766746Y-28221617D01*
X56675168Y-28346290D01*
X56550225Y-28444549D01*
X56453001Y-28489944D01*
X56339853Y-28518407D01*
X56207491Y-28528447D01*
X56075253Y-28518407D01*
X55962228Y-28489944D01*
X55865123Y-28444549D01*
X55740030Y-28346277D01*
X55648419Y-28221617D01*
X55610146Y-28133112D01*
X55585404Y-28028543D01*
X55568551Y-27788941D01*
X55568551Y-27087353D01*
X55573267Y-27020308D01*
X55997015Y-27020308D01*
X55997015Y-27856168D01*
X56012681Y-27967305D01*
X56053801Y-28038801D01*
X56119065Y-28083810D01*
X56207308Y-28099617D01*
X56295866Y-28083794D01*
X56361181Y-28038801D01*
X56402301Y-27967305D01*
X56417967Y-27856168D01*
X56417967Y-27020308D01*
X56402301Y-26909172D01*
X56361181Y-26837676D01*
X56295850Y-26792541D01*
X56207308Y-26776676D01*
X56119081Y-26792525D01*
X56053801Y-26837676D01*
X56012681Y-26909172D01*
X55997015Y-27020308D01*
X55573267Y-27020308D01*
X55585404Y-26847751D01*
X55610146Y-26743182D01*
X55648419Y-26654677D01*
X55740037Y-26530054D01*
X55865123Y-26431927D01*
X55962239Y-26386429D01*
X56075264Y-26357907D01*
X56207491Y-26347847D01*
X56339842Y-26357906D01*
G37*
G36*
X53213196Y-26371294D02*
G01*
X53717130Y-28505000D01*
X54095034Y-28505000D01*
X54330240Y-27238295D01*
X54338667Y-27238295D01*
X54573872Y-28505000D01*
X54951960Y-28505000D01*
X55455894Y-26371294D01*
X55002336Y-26371294D01*
X54741851Y-27696983D01*
X54733424Y-27696983D01*
X54494188Y-26371294D01*
X54158049Y-26371294D01*
X53931270Y-27696983D01*
X53922843Y-27696983D01*
X53666755Y-26371294D01*
X53213196Y-26371294D01*
G37*
G36*
X53033311Y-28505000D02*
G01*
X53033311Y-26371294D01*
X52604848Y-26371294D01*
X52604848Y-28505000D01*
X53033311Y-28505000D01*
G37*
G36*
X53033311Y-25944296D02*
G01*
X53033311Y-25515467D01*
X52604848Y-25515467D01*
X52604848Y-25944296D01*
X53033311Y-25944296D01*
G37*
G36*
X52253688Y-28505000D02*
G01*
X52253688Y-26371294D01*
X51825225Y-26371294D01*
X51825225Y-26578290D01*
X51816981Y-26578290D01*
X51742782Y-26486216D01*
X51655964Y-26412876D01*
X51552356Y-26365145D01*
X51415080Y-26347847D01*
X51336274Y-26354575D01*
X51256261Y-26375141D01*
X51181437Y-26411087D01*
X51113928Y-26465633D01*
X51058507Y-26535873D01*
X51013545Y-26627566D01*
X50985999Y-26732609D01*
X50975809Y-26869183D01*
X50975809Y-28505000D01*
X51404272Y-28505000D01*
X51404272Y-27029101D01*
X51418945Y-26920238D01*
X51458494Y-26844087D01*
X51522684Y-26794184D01*
X51612733Y-26776676D01*
X51689256Y-26786276D01*
X51742736Y-26811971D01*
X51779429Y-26852513D01*
X51812272Y-26938090D01*
X51825225Y-27071050D01*
X51825225Y-28505000D01*
X52253688Y-28505000D01*
G37*
G36*
X50320440Y-26369231D02*
G01*
X50411974Y-26408297D01*
X50510014Y-26489961D01*
X50574799Y-26593217D01*
X50608529Y-26723553D01*
X50621168Y-27063906D01*
X50621168Y-27875403D01*
X50604499Y-28156953D01*
X50581527Y-28256794D01*
X50549911Y-28333358D01*
X50488513Y-28420605D01*
X50408894Y-28482416D01*
X50307448Y-28521215D01*
X50177684Y-28535225D01*
X50053769Y-28520594D01*
X49949439Y-28478621D01*
X49859056Y-28410851D01*
X49779996Y-28316688D01*
X49771753Y-28316688D01*
X49771753Y-28736359D01*
X49784038Y-28830635D01*
X49818098Y-28902138D01*
X49876214Y-28949660D01*
X49969590Y-28967168D01*
X50068239Y-28949426D01*
X50135919Y-28900123D01*
X50179047Y-28829561D01*
X50192705Y-28757424D01*
X50621168Y-28757424D01*
X50587252Y-28935848D01*
X50535256Y-29066086D01*
X50462027Y-29175631D01*
X50378086Y-29257329D01*
X50285271Y-29322182D01*
X50185378Y-29364307D01*
X50081112Y-29388324D01*
X49984244Y-29395997D01*
X49824249Y-29380989D01*
X49695366Y-29339211D01*
X49583050Y-29272625D01*
X49494049Y-29189918D01*
X49425436Y-29095629D01*
X49379010Y-28990066D01*
X49352075Y-28878295D01*
X49343290Y-28769331D01*
X49343290Y-27046687D01*
X49771753Y-27046687D01*
X49771753Y-27875219D01*
X49787362Y-27968574D01*
X49832203Y-28041366D01*
X49900131Y-28090006D01*
X49984244Y-28106395D01*
X50060835Y-28096756D01*
X50113594Y-28071095D01*
X50149108Y-28030741D01*
X50181408Y-27950363D01*
X50192705Y-27854153D01*
X50192705Y-27071782D01*
X50179132Y-26949748D01*
X50142697Y-26861673D01*
X50103567Y-26817743D01*
X50052121Y-26791152D01*
X49984244Y-26781622D01*
X49897622Y-26800130D01*
X49830188Y-26855261D01*
X49787220Y-26937173D01*
X49771753Y-27046687D01*
X49343290Y-27046687D01*
X49343290Y-26377156D01*
X49771753Y-26377156D01*
X49771753Y-26570963D01*
X49851254Y-26485416D01*
X49934968Y-26416357D01*
X50037550Y-26370561D01*
X50173471Y-26353709D01*
X50320440Y-26369231D01*
G37*
G36*
X46795776Y-26372210D02*
G01*
X47224239Y-26372210D01*
X47224239Y-26275490D01*
X47242173Y-26136111D01*
X47293482Y-26021233D01*
X47347662Y-25963415D01*
X47422823Y-25927328D01*
X47526306Y-25914071D01*
X47608792Y-25923199D01*
X47668822Y-25947777D01*
X47718450Y-25985805D01*
X47756933Y-26031674D01*
X47784974Y-26089368D01*
X47803094Y-26155689D01*
X47815734Y-26300586D01*
X47809506Y-26447864D01*
X47777815Y-26553011D01*
X47747457Y-26595503D01*
X47704542Y-26632878D01*
X47572285Y-26699923D01*
X47244938Y-26830348D01*
X47111607Y-26892094D01*
X47014129Y-26958576D01*
X46934918Y-27038393D01*
X46875643Y-27128752D01*
X46837416Y-27234314D01*
X46812629Y-27357913D01*
X46795776Y-27649905D01*
X46805565Y-27835154D01*
X46833695Y-28001065D01*
X46884257Y-28153513D01*
X46955511Y-28276205D01*
X47056611Y-28380440D01*
X47187053Y-28461219D01*
X47339792Y-28510472D01*
X47536015Y-28528447D01*
X47687519Y-28514572D01*
X47826175Y-28473859D01*
X47952068Y-28408059D01*
X48057534Y-28322367D01*
X48143885Y-28218272D01*
X48210858Y-28097602D01*
X48253183Y-27964902D01*
X48267644Y-27818066D01*
X48267644Y-27658332D01*
X47839181Y-27658332D01*
X47839181Y-27792971D01*
X47821825Y-27904711D01*
X47769755Y-28005095D01*
X47716415Y-28055387D01*
X47641097Y-28087608D01*
X47536015Y-28099617D01*
X47433211Y-28090731D01*
X47365289Y-28068110D01*
X47311037Y-28029707D01*
X47270584Y-27977801D01*
X47244228Y-27914768D01*
X47230650Y-27836934D01*
X47224239Y-27654118D01*
X47232665Y-27460861D01*
X47246080Y-27389599D01*
X47266188Y-27338862D01*
X47300213Y-27297047D01*
X47343857Y-27263391D01*
X47471901Y-27200193D01*
X47778182Y-27073981D01*
X47952396Y-26983952D01*
X48072532Y-26883797D01*
X48149858Y-26773562D01*
X48200199Y-26645437D01*
X48232572Y-26490925D01*
X48244197Y-26304799D01*
X48232488Y-26139829D01*
X48198035Y-25985512D01*
X48139453Y-25842996D01*
X48059549Y-25725027D01*
X47960368Y-25627499D01*
X47834968Y-25550455D01*
X47689970Y-25502476D01*
X47509637Y-25485242D01*
X47355174Y-25500341D01*
X47217827Y-25544227D01*
X47093581Y-25613071D01*
X46989033Y-25699748D01*
X46880182Y-25843302D01*
X46816970Y-25995839D01*
X46795776Y-26161917D01*
X46795776Y-26372210D01*
G37*
G36*
X46673593Y-28510861D02*
G01*
X46245130Y-28510861D01*
X46119284Y-27860198D01*
X45535483Y-27860198D01*
X45409453Y-28510861D01*
X44980990Y-28510861D01*
X45214945Y-27461594D01*
X45615167Y-27461594D01*
X46043630Y-27461594D01*
X45833703Y-26377156D01*
X45825277Y-26377156D01*
X45615167Y-27461594D01*
X45214945Y-27461594D01*
X45648872Y-25515467D01*
X46005894Y-25515467D01*
X46673593Y-28510861D01*
G37*
G36*
X44208024Y-25496700D02*
G01*
X44337472Y-25531587D01*
X44459067Y-25588422D01*
X44566449Y-25666043D01*
X44660030Y-25768769D01*
X44734427Y-25897219D01*
X44781010Y-26042977D01*
X44797442Y-26216505D01*
X44797442Y-27797184D01*
X44780713Y-27977410D01*
X44734427Y-28120683D01*
X44660087Y-28244799D01*
X44566449Y-28343433D01*
X44458786Y-28424426D01*
X44337472Y-28482285D01*
X44208032Y-28517033D01*
X44079002Y-28528447D01*
X43950131Y-28517037D01*
X43820715Y-28482285D01*
X43698667Y-28424616D01*
X43587524Y-28343433D01*
X43497158Y-28245104D01*
X43423759Y-28120683D01*
X43377474Y-27977410D01*
X43360744Y-27797184D01*
X43360744Y-26216505D01*
X43789207Y-26216505D01*
X43789207Y-27797184D01*
X43800022Y-27897030D01*
X43829362Y-27971251D01*
X43875303Y-28026161D01*
X43968779Y-28081074D01*
X44079002Y-28099617D01*
X44189382Y-28081067D01*
X44282883Y-28026161D01*
X44328824Y-27971251D01*
X44358165Y-27897030D01*
X44368979Y-27797184D01*
X44368979Y-26216505D01*
X44358160Y-26116663D01*
X44328817Y-26042511D01*
X44282883Y-25987711D01*
X44189369Y-25932664D01*
X44079002Y-25914071D01*
X43968793Y-25932656D01*
X43875303Y-25987711D01*
X43829369Y-26042511D01*
X43800026Y-26116663D01*
X43789207Y-26216505D01*
X43360744Y-26216505D01*
X43377177Y-26042977D01*
X43423759Y-25897219D01*
X43497206Y-25768464D01*
X43587524Y-25666043D01*
X43698394Y-25588230D01*
X43820715Y-25531587D01*
X43950138Y-25496696D01*
X44079002Y-25485242D01*
X44208024Y-25496700D01*
G37*
G36*
X40923140Y-26371294D02*
G01*
X41477632Y-28505000D01*
X41855537Y-28505000D01*
X42410029Y-26371294D01*
X41956470Y-26371294D01*
X41670889Y-27734902D01*
X41662463Y-27734902D01*
X41376882Y-26371294D01*
X40923140Y-26371294D01*
G37*
G36*
X40984323Y-28505000D02*
G01*
X40984323Y-28076170D01*
X40555860Y-28076170D01*
X40555860Y-28505000D01*
X40984323Y-28505000D01*
G37*
G36*
X38956130Y-28505000D02*
G01*
X38956130Y-25969026D01*
X39384043Y-26283916D01*
X39384043Y-25830357D01*
X38956130Y-25515467D01*
X38527667Y-25515467D01*
X38527667Y-28505000D01*
X38956130Y-28505000D01*
G37*
G36*
X37862899Y-28505000D02*
G01*
X37862899Y-28076170D01*
X37434436Y-28076170D01*
X37434436Y-28505000D01*
X37862899Y-28505000D01*
G37*
G36*
X37034549Y-27021041D02*
G01*
X37072651Y-27132599D01*
X37098297Y-27248187D01*
X37106723Y-27406090D01*
X37106723Y-27635068D01*
X37106723Y-27877051D01*
X37093900Y-28034588D01*
X37066423Y-28148344D01*
X37013300Y-28245064D01*
X36914804Y-28365273D01*
X36788536Y-28457372D01*
X36641121Y-28515242D01*
X36470348Y-28535225D01*
X36299152Y-28515829D01*
X36150146Y-28459570D01*
X36022506Y-28368102D01*
X35923367Y-28244881D01*
X35874457Y-28148161D01*
X35842583Y-28034588D01*
X35834157Y-27876868D01*
X35834157Y-27634884D01*
X35834157Y-27342709D01*
X35834447Y-27336114D01*
X36262620Y-27336114D01*
X36262620Y-27891889D01*
X36278722Y-27980374D01*
X36325085Y-28047594D01*
X36392837Y-28091814D01*
X36470348Y-28106395D01*
X36548048Y-28091812D01*
X36615978Y-28047594D01*
X36662199Y-27980390D01*
X36678260Y-27891889D01*
X36678260Y-27336114D01*
X36662207Y-27247772D01*
X36615978Y-27180593D01*
X36548034Y-27136231D01*
X36470348Y-27121608D01*
X36392851Y-27136229D01*
X36325085Y-27180593D01*
X36278714Y-27247787D01*
X36262620Y-27336114D01*
X35834447Y-27336114D01*
X35842583Y-27151100D01*
X35872442Y-27029284D01*
X35918970Y-26936594D01*
X35983728Y-26860801D01*
X36071744Y-26797925D01*
X36173301Y-26756922D01*
X36283869Y-26743154D01*
X36400373Y-26753778D01*
X36466135Y-26781072D01*
X36474562Y-26772646D01*
X35986931Y-25515467D01*
X36466318Y-25515467D01*
X37034549Y-27021041D01*
G37*
G36*
X35079394Y-25504633D02*
G01*
X35228557Y-25560896D01*
X35356176Y-25652254D01*
X35455336Y-25775586D01*
X35504246Y-25872306D01*
X35531723Y-25981666D01*
X35544546Y-26143599D01*
X35544546Y-26385582D01*
X35544546Y-26677941D01*
X35531723Y-26869183D01*
X35506444Y-26993381D01*
X35459733Y-27083872D01*
X35395013Y-27159715D01*
X35307142Y-27222725D01*
X35205595Y-27263588D01*
X35095017Y-27277313D01*
X34978513Y-27266871D01*
X34912568Y-27239394D01*
X34904141Y-27247821D01*
X35391772Y-28505000D01*
X34912384Y-28505000D01*
X34344153Y-26999242D01*
X34308066Y-26887868D01*
X34280406Y-26767883D01*
X34271980Y-26614560D01*
X34271980Y-26385399D01*
X34271980Y-26143599D01*
X34272761Y-26128578D01*
X34700443Y-26128578D01*
X34700443Y-26684169D01*
X34716545Y-26772654D01*
X34762908Y-26839874D01*
X34830674Y-26884238D01*
X34908171Y-26898859D01*
X34985857Y-26884235D01*
X35053801Y-26839874D01*
X35100022Y-26772670D01*
X35116083Y-26684169D01*
X35116083Y-26128578D01*
X35100016Y-26040109D01*
X35053801Y-25973056D01*
X34985857Y-25928695D01*
X34908171Y-25914071D01*
X34830674Y-25928692D01*
X34762908Y-25973056D01*
X34716551Y-26040124D01*
X34700443Y-26128578D01*
X34272761Y-26128578D01*
X34280406Y-25981482D01*
X34314478Y-25872123D01*
X34365403Y-25775403D01*
X34463920Y-25655082D01*
X34590167Y-25563094D01*
X34737425Y-25505230D01*
X34908171Y-25485242D01*
X35079394Y-25504633D01*
G37*
G36*
X33958921Y-28505000D02*
G01*
X33530458Y-28505000D01*
X33530458Y-28310826D01*
X33448496Y-28396966D01*
X33367426Y-28465615D01*
X33271505Y-28510953D01*
X33124527Y-28528447D01*
X32997037Y-28514602D01*
X32896054Y-28476039D01*
X32815585Y-28414264D01*
X32752301Y-28326763D01*
X32720670Y-28250064D01*
X32697712Y-28150359D01*
X32681043Y-27868808D01*
X32681043Y-27057861D01*
X32682125Y-27028735D01*
X33109506Y-27028735D01*
X33109506Y-27809823D01*
X33123079Y-27931858D01*
X33159515Y-28019933D01*
X33198615Y-28063640D01*
X33250058Y-28090121D01*
X33317967Y-28099617D01*
X33404638Y-28081154D01*
X33472206Y-28026161D01*
X33515035Y-27944442D01*
X33530458Y-27835102D01*
X33530458Y-27007669D01*
X33514850Y-26914503D01*
X33470008Y-26841889D01*
X33402065Y-26793105D01*
X33317967Y-26776676D01*
X33241383Y-26786320D01*
X33188695Y-26811982D01*
X33153286Y-26852330D01*
X33120843Y-26932696D01*
X33109506Y-27028735D01*
X32682125Y-27028735D01*
X32693682Y-26717508D01*
X32714682Y-26615087D01*
X32748087Y-26541104D01*
X32810198Y-26464521D01*
X32888222Y-26402435D01*
X32984605Y-26363048D01*
X33128740Y-26347847D01*
X33248982Y-26362401D01*
X33352772Y-26404633D01*
X33443147Y-26472259D01*
X33522215Y-26566383D01*
X33530458Y-26566383D01*
X33530458Y-25515467D01*
X33958921Y-25515467D01*
X33958921Y-28505000D01*
G37*
G36*
X32326402Y-28505000D02*
G01*
X32326402Y-26371294D01*
X31897939Y-26371294D01*
X31897939Y-28505000D01*
X32326402Y-28505000D01*
G37*
G36*
X32326402Y-25944296D02*
G01*
X32326402Y-25515467D01*
X31897939Y-25515467D01*
X31897939Y-25944296D01*
X32326402Y-25944296D01*
G37*
G36*
X30773018Y-26966270D02*
G01*
X30790371Y-26867170D01*
X30837864Y-26801406D01*
X30907418Y-26760142D01*
X30986242Y-26746451D01*
X31076680Y-26763476D01*
X31140847Y-26811664D01*
X31181536Y-26881701D01*
X31195069Y-26961140D01*
X31187842Y-27019181D01*
X31165577Y-27077278D01*
X31119994Y-27126404D01*
X31013719Y-27180226D01*
X30760744Y-27281343D01*
X30609343Y-27355504D01*
X30501997Y-27439922D01*
X30429918Y-27534317D01*
X30379644Y-27644043D01*
X30349465Y-27760018D01*
X30339242Y-27884012D01*
X30351582Y-28015028D01*
X30387786Y-28134605D01*
X30445372Y-28243867D01*
X30520593Y-28338853D01*
X30612707Y-28417423D01*
X30723009Y-28477889D01*
X30845037Y-28515551D01*
X30980380Y-28528447D01*
X31148129Y-28509617D01*
X31292487Y-28455276D01*
X31418735Y-28365232D01*
X31498216Y-28277139D01*
X31562349Y-28166845D01*
X31602763Y-28041033D01*
X31617121Y-27888775D01*
X31215769Y-27888775D01*
X31193915Y-27974360D01*
X31153853Y-28053822D01*
X31115144Y-28094446D01*
X31059610Y-28120233D01*
X30981113Y-28129842D01*
X30892259Y-28114688D01*
X30812585Y-28068843D01*
X30757159Y-27996988D01*
X30737847Y-27898117D01*
X30749796Y-27814830D01*
X30784192Y-27746625D01*
X30843871Y-27691360D01*
X30952903Y-27636899D01*
X31159532Y-27561062D01*
X31287632Y-27500759D01*
X31392677Y-27425780D01*
X31477719Y-27335931D01*
X31541235Y-27230885D01*
X31580124Y-27110601D01*
X31593674Y-26971215D01*
X31580926Y-26840303D01*
X31543482Y-26720806D01*
X31483510Y-26612340D01*
X31405179Y-26520587D01*
X31314543Y-26446528D01*
X31208625Y-26392177D01*
X31092251Y-26359104D01*
X30965725Y-26347847D01*
X30839448Y-26359565D01*
X30725024Y-26393825D01*
X30621383Y-26449507D01*
X30534331Y-26523335D01*
X30463759Y-26613877D01*
X30408852Y-26721905D01*
X30374357Y-26839753D01*
X30362690Y-26966270D01*
X30773018Y-26966270D01*
G37*
G36*
X65667566Y-23455233D02*
G01*
X65974213Y-24952930D01*
X66163165Y-24952930D01*
X66467705Y-23455233D01*
X66240926Y-23455233D01*
X66070841Y-24500654D01*
X66066628Y-24500654D01*
X65894437Y-23455233D01*
X65667566Y-23455233D01*
G37*
G36*
X65394671Y-23876453D02*
G01*
X65451245Y-23890714D01*
X65499863Y-23913463D01*
X65562330Y-23962520D01*
X65608123Y-24024838D01*
X65627260Y-24069091D01*
X65639631Y-24121375D01*
X65647965Y-24241176D01*
X65647965Y-24591970D01*
X65639631Y-24711771D01*
X65627260Y-24764056D01*
X65608123Y-24808308D01*
X65562334Y-24870645D01*
X65499863Y-24919774D01*
X65451251Y-24942472D01*
X65394677Y-24956703D01*
X65328496Y-24961723D01*
X65257491Y-24955207D01*
X65196147Y-24936536D01*
X65141156Y-24906418D01*
X65095213Y-24867293D01*
X65048058Y-24805210D01*
X65019196Y-24730882D01*
X65009026Y-24640788D01*
X65223258Y-24640788D01*
X65231216Y-24675753D01*
X65247438Y-24711863D01*
X65263891Y-24730530D01*
X65289611Y-24742662D01*
X65328404Y-24747308D01*
X65372960Y-24740130D01*
X65405341Y-24720106D01*
X65426180Y-24688415D01*
X65433734Y-24642895D01*
X65433734Y-24498639D01*
X65009026Y-24498639D01*
X65009026Y-24207288D01*
X65223258Y-24207288D01*
X65223258Y-24328646D01*
X65433734Y-24328646D01*
X65433734Y-24207288D01*
X65425904Y-24151895D01*
X65405341Y-24116246D01*
X65372683Y-24093749D01*
X65328404Y-24085838D01*
X65284283Y-24093742D01*
X65251651Y-24116246D01*
X65231088Y-24151895D01*
X65223258Y-24207288D01*
X65009026Y-24207288D01*
X65009026Y-24203990D01*
X65018856Y-24111756D01*
X65046994Y-24033470D01*
X65093107Y-23966128D01*
X65139212Y-23926971D01*
X65195047Y-23896702D01*
X65257345Y-23877937D01*
X65328496Y-23871423D01*
X65394671Y-23876453D01*
G37*
G36*
X64853688Y-24950000D02*
G01*
X64853688Y-23883147D01*
X64639456Y-23883147D01*
X64639456Y-23997178D01*
X64573145Y-23943621D01*
X64511229Y-23905037D01*
X64443236Y-23880389D01*
X64355432Y-23871423D01*
X64355432Y-24098477D01*
X64387584Y-24088988D01*
X64420645Y-24085838D01*
X64493277Y-24097470D01*
X64530235Y-24112887D01*
X64563710Y-24136304D01*
X64593853Y-24167356D01*
X64618482Y-24207837D01*
X64633817Y-24255213D01*
X64639456Y-24317105D01*
X64639456Y-24950000D01*
X64853688Y-24950000D01*
G37*
G36*
X63883555Y-24180635D02*
G01*
X63892232Y-24131085D01*
X63915978Y-24098203D01*
X63950755Y-24077571D01*
X63990167Y-24070725D01*
X64035386Y-24079238D01*
X64067470Y-24103332D01*
X64087814Y-24138350D01*
X64094581Y-24178070D01*
X64090967Y-24207090D01*
X64079835Y-24236139D01*
X64057043Y-24260702D01*
X64003906Y-24287613D01*
X63877418Y-24338171D01*
X63801717Y-24375252D01*
X63748045Y-24417461D01*
X63712005Y-24464658D01*
X63686868Y-24519521D01*
X63671779Y-24577509D01*
X63666667Y-24639506D01*
X63672837Y-24705014D01*
X63690939Y-24764802D01*
X63719732Y-24819433D01*
X63757342Y-24866926D01*
X63803400Y-24906211D01*
X63858551Y-24936444D01*
X63919564Y-24955275D01*
X63987236Y-24961723D01*
X64071110Y-24952308D01*
X64143289Y-24925138D01*
X64206413Y-24880116D01*
X64246154Y-24836069D01*
X64278221Y-24780922D01*
X64298428Y-24718016D01*
X64305607Y-24641887D01*
X64104931Y-24641887D01*
X64094004Y-24684680D01*
X64073973Y-24724411D01*
X64054618Y-24744723D01*
X64026851Y-24757616D01*
X63987602Y-24762421D01*
X63943175Y-24754844D01*
X63903339Y-24731921D01*
X63875626Y-24695994D01*
X63865969Y-24646558D01*
X63871944Y-24604915D01*
X63889142Y-24570812D01*
X63918982Y-24543180D01*
X63973497Y-24515949D01*
X64076812Y-24478031D01*
X64140862Y-24447879D01*
X64193385Y-24410390D01*
X64235906Y-24365465D01*
X64267664Y-24312942D01*
X64287108Y-24252800D01*
X64293883Y-24183107D01*
X64287509Y-24117651D01*
X64268787Y-24057903D01*
X64238801Y-24003670D01*
X64199636Y-23957793D01*
X64154317Y-23920764D01*
X64101359Y-23893588D01*
X64043172Y-23877052D01*
X63979909Y-23871423D01*
X63916770Y-23877282D01*
X63859558Y-23894412D01*
X63807738Y-23922253D01*
X63764212Y-23959167D01*
X63728926Y-24004438D01*
X63701472Y-24058452D01*
X63684225Y-24117376D01*
X63678391Y-24180635D01*
X63883555Y-24180635D01*
G37*
G36*
X63531845Y-24950000D02*
G01*
X63531845Y-23883147D01*
X63317614Y-23883147D01*
X63317614Y-24950000D01*
X63531845Y-24950000D01*
G37*
G36*
X63531845Y-23669648D02*
G01*
X63531845Y-23455233D01*
X63317614Y-23455233D01*
X63317614Y-23669648D01*
X63531845Y-23669648D01*
G37*
G36*
X62906325Y-23876453D02*
G01*
X62962899Y-23890714D01*
X63011516Y-23913463D01*
X63073984Y-23962520D01*
X63119777Y-24024838D01*
X63138913Y-24069091D01*
X63151284Y-24121375D01*
X63159619Y-24241176D01*
X63159619Y-24591970D01*
X63151284Y-24711771D01*
X63138913Y-24764056D01*
X63119777Y-24808308D01*
X63073988Y-24870645D01*
X63011516Y-24919774D01*
X62962905Y-24942472D01*
X62906331Y-24956703D01*
X62840150Y-24961723D01*
X62774031Y-24956703D01*
X62717518Y-24942472D01*
X62668966Y-24919774D01*
X62606419Y-24870638D01*
X62560614Y-24808308D01*
X62541477Y-24764056D01*
X62529106Y-24711771D01*
X62520680Y-24591970D01*
X62520680Y-24241176D01*
X62523038Y-24207654D01*
X62734911Y-24207654D01*
X62734911Y-24625584D01*
X62742744Y-24681152D01*
X62763305Y-24716900D01*
X62795937Y-24739405D01*
X62840058Y-24747308D01*
X62884337Y-24739397D01*
X62916994Y-24716900D01*
X62937555Y-24681152D01*
X62945388Y-24625584D01*
X62945388Y-24207654D01*
X62937555Y-24152086D01*
X62916994Y-24116338D01*
X62884329Y-24093770D01*
X62840058Y-24085838D01*
X62795945Y-24093762D01*
X62763305Y-24116338D01*
X62742744Y-24152086D01*
X62734911Y-24207654D01*
X62523038Y-24207654D01*
X62529106Y-24121375D01*
X62541477Y-24069091D01*
X62560614Y-24024838D01*
X62606423Y-23962527D01*
X62668966Y-23913463D01*
X62717524Y-23890714D01*
X62774036Y-23876453D01*
X62840150Y-23871423D01*
X62906325Y-23876453D01*
G37*
G36*
X62365341Y-24950000D02*
G01*
X62365341Y-23883147D01*
X62151110Y-23883147D01*
X62151110Y-23986645D01*
X62146988Y-23986645D01*
X62109889Y-23940608D01*
X62066480Y-23903938D01*
X62014675Y-23880072D01*
X61946038Y-23871423D01*
X61906635Y-23874787D01*
X61866628Y-23885070D01*
X61829216Y-23903043D01*
X61795462Y-23930316D01*
X61767751Y-23965436D01*
X61745270Y-24011283D01*
X61731497Y-24063804D01*
X61726402Y-24132091D01*
X61726402Y-24950000D01*
X61940634Y-24950000D01*
X61940634Y-24212050D01*
X61947970Y-24157619D01*
X61967745Y-24119543D01*
X61999840Y-24094592D01*
X62044864Y-24085838D01*
X62083126Y-24090638D01*
X62109866Y-24103485D01*
X62128212Y-24123756D01*
X62144634Y-24166545D01*
X62151110Y-24233025D01*
X62151110Y-24950000D01*
X62365341Y-24950000D01*
G37*
G36*
X64897232Y-18508660D02*
G01*
X65102194Y-18548096D01*
X65297538Y-18613265D01*
X65483216Y-18702562D01*
X65650401Y-18810450D01*
X65800739Y-18937315D01*
X65936382Y-19082541D01*
X66051207Y-19242806D01*
X66146038Y-19419450D01*
X66215877Y-19606745D01*
X66257994Y-19803200D01*
X66272250Y-20010945D01*
X66258121Y-20227236D01*
X66216566Y-20430015D01*
X66148053Y-20621491D01*
X66054315Y-20802139D01*
X65941592Y-20962865D01*
X65809349Y-21105458D01*
X65658831Y-21232291D01*
X65491707Y-21339551D01*
X65306331Y-21427676D01*
X65111200Y-21491602D01*
X64906287Y-21530319D01*
X64689740Y-21543447D01*
X64477124Y-21531243D01*
X64270985Y-21494904D01*
X64071973Y-21435060D01*
X63885936Y-21353670D01*
X63716146Y-21250419D01*
X63559689Y-21125975D01*
X63421996Y-20982069D01*
X63309279Y-20822076D01*
X63636259Y-20822076D01*
X63718706Y-20906586D01*
X63823105Y-20991885D01*
X63939049Y-21067285D01*
X64068569Y-21132203D01*
X64205878Y-21184616D01*
X64353784Y-21226359D01*
X64505266Y-21253202D01*
X64656034Y-21262079D01*
X64838579Y-21250964D01*
X65007125Y-21218524D01*
X65163632Y-21165542D01*
X65381465Y-21050709D01*
X65570662Y-20901027D01*
X65679350Y-20785293D01*
X65770722Y-20656272D01*
X65845436Y-20512681D01*
X65899947Y-20360317D01*
X65932850Y-20200634D01*
X65943988Y-20032011D01*
X65933287Y-19871526D01*
X65901299Y-19715228D01*
X65847634Y-19561782D01*
X65774461Y-19416281D01*
X65683811Y-19282278D01*
X65574876Y-19158782D01*
X65385684Y-19000875D01*
X65170043Y-18879612D01*
X65014667Y-18822733D01*
X64850886Y-18788334D01*
X64676917Y-18776664D01*
X64455111Y-18794780D01*
X64249003Y-18848105D01*
X64058183Y-18935547D01*
X63892348Y-19053269D01*
X63752832Y-19200000D01*
X63644685Y-19372006D01*
X63593691Y-19497788D01*
X63562849Y-19631410D01*
X63552362Y-19774640D01*
X63564719Y-19925316D01*
X63602920Y-20082752D01*
X63662019Y-20234898D01*
X63737192Y-20374012D01*
X63827662Y-20498303D01*
X63922023Y-20592182D01*
X64026068Y-20656351D01*
X64123524Y-20675896D01*
X64171389Y-20666758D01*
X64199178Y-20642374D01*
X64214393Y-20605424D01*
X64220061Y-20554263D01*
X64209619Y-20474762D01*
X64178112Y-20365403D01*
X63996810Y-19793325D01*
X64341877Y-19793325D01*
X64353805Y-19920965D01*
X64392252Y-20066449D01*
X64451443Y-20207866D01*
X64526707Y-20335177D01*
X64618286Y-20451602D01*
X64721796Y-20545104D01*
X64837182Y-20608934D01*
X64950591Y-20629002D01*
X65053071Y-20617720D01*
X65136339Y-20585945D01*
X65204665Y-20534480D01*
X65255379Y-20465807D01*
X65287515Y-20377494D01*
X65299187Y-20263736D01*
X65287109Y-20132813D01*
X65248811Y-19988780D01*
X65188694Y-19849324D01*
X65110143Y-19722067D01*
X65017228Y-19610703D01*
X64908642Y-19522581D01*
X64785540Y-19464245D01*
X64652554Y-19444912D01*
X64556655Y-19456939D01*
X64481363Y-19490633D01*
X64421744Y-19545662D01*
X64362526Y-19655859D01*
X64341877Y-19793325D01*
X63996810Y-19793325D01*
X63812663Y-19212271D01*
X64077362Y-19212271D01*
X64161259Y-19470191D01*
X64169685Y-19470191D01*
X64222156Y-19359506D01*
X64288698Y-19276414D01*
X64369720Y-19216301D01*
X64510269Y-19158866D01*
X64654019Y-19140097D01*
X64802765Y-19151999D01*
X64937352Y-19186625D01*
X65060317Y-19243412D01*
X65226017Y-19361764D01*
X65365315Y-19510675D01*
X65480696Y-19684594D01*
X65567548Y-19881252D01*
X65621513Y-20088937D01*
X65639173Y-20293778D01*
X65620309Y-20464354D01*
X65565651Y-20612897D01*
X65474858Y-20744406D01*
X65387248Y-20823036D01*
X65283250Y-20883258D01*
X65167146Y-20920877D01*
X65036503Y-20933817D01*
X64942831Y-20927655D01*
X64863946Y-20910369D01*
X64724727Y-20848271D01*
X64617383Y-20762725D01*
X64522494Y-20664173D01*
X64514068Y-20664173D01*
X64478671Y-20786861D01*
X64412951Y-20867505D01*
X64318038Y-20915977D01*
X64185256Y-20933817D01*
X64048958Y-20914057D01*
X63883921Y-20847538D01*
X63724763Y-20745884D01*
X63569764Y-20605371D01*
X63436216Y-20440111D01*
X63323201Y-20236809D01*
X63268842Y-20089293D01*
X63235536Y-19929309D01*
X63224099Y-19754673D01*
X63237130Y-19572009D01*
X63275241Y-19403604D01*
X63337855Y-19247076D01*
X63423144Y-19101241D01*
X63527998Y-18968908D01*
X63653661Y-18849021D01*
X63793849Y-18746118D01*
X63949041Y-18659127D01*
X64120776Y-18587986D01*
X64299657Y-18536768D01*
X64485891Y-18505775D01*
X64680764Y-18495296D01*
X64897232Y-18508660D01*
G37*
G36*
X62955005Y-19386294D02*
G01*
X62955005Y-18741493D01*
X62526542Y-18741493D01*
X62526542Y-19386294D01*
X62268621Y-19386294D01*
X62268621Y-19726280D01*
X62526542Y-19726280D01*
X62526542Y-20910736D01*
X62512254Y-21028705D01*
X62492951Y-21066137D01*
X62465176Y-21092086D01*
X62385308Y-21117182D01*
X62268621Y-21121395D01*
X62268621Y-21520000D01*
X62443377Y-21520000D01*
X62581555Y-21507559D01*
X62686643Y-21473838D01*
X62776123Y-21420180D01*
X62842714Y-21356235D01*
X62893064Y-21280299D01*
X62928077Y-21194485D01*
X62948468Y-21104369D01*
X62955005Y-21020095D01*
X62955005Y-19726280D01*
X63171343Y-19726280D01*
X63171343Y-19386294D01*
X62955005Y-19386294D01*
G37*
G36*
X62104490Y-21520000D02*
G01*
X62104490Y-18530467D01*
X61676027Y-18530467D01*
X61676027Y-19594023D01*
X61667784Y-19594023D01*
X61593568Y-19501610D01*
X61506767Y-19428060D01*
X61403144Y-19380189D01*
X61265882Y-19362847D01*
X61187077Y-19369575D01*
X61107063Y-19390141D01*
X61032239Y-19426087D01*
X60964731Y-19480633D01*
X60909310Y-19550873D01*
X60864347Y-19642566D01*
X60836801Y-19747609D01*
X60826612Y-19884183D01*
X60826612Y-21520000D01*
X61255075Y-21520000D01*
X61255075Y-20044101D01*
X61269747Y-19935238D01*
X61309296Y-19859087D01*
X61373487Y-19809184D01*
X61463536Y-19791676D01*
X61540059Y-19801276D01*
X61593539Y-19826971D01*
X61630232Y-19867513D01*
X61663075Y-19953090D01*
X61676027Y-20086050D01*
X61676027Y-21520000D01*
X62104490Y-21520000D01*
G37*
G36*
X60000554Y-19372906D02*
G01*
X60113702Y-19401429D01*
X60210936Y-19446927D01*
X60335872Y-19545041D01*
X60427458Y-19669677D01*
X60465730Y-19758182D01*
X60490472Y-19862751D01*
X60507142Y-20102353D01*
X60507142Y-20803941D01*
X60490472Y-21043543D01*
X60465730Y-21148112D01*
X60427458Y-21236617D01*
X60335880Y-21361290D01*
X60210936Y-21459549D01*
X60113713Y-21504944D01*
X60000565Y-21533407D01*
X59868203Y-21543447D01*
X59735965Y-21533407D01*
X59622940Y-21504944D01*
X59525835Y-21459549D01*
X59400741Y-21361277D01*
X59309131Y-21236617D01*
X59270858Y-21148112D01*
X59246116Y-21043543D01*
X59229263Y-20803941D01*
X59229263Y-20102353D01*
X59233979Y-20035308D01*
X59657726Y-20035308D01*
X59657726Y-20871168D01*
X59673392Y-20982305D01*
X59714513Y-21053801D01*
X59779777Y-21098810D01*
X59868019Y-21114617D01*
X59956578Y-21098794D01*
X60021892Y-21053801D01*
X60063013Y-20982305D01*
X60078679Y-20871168D01*
X60078679Y-20035308D01*
X60063013Y-19924172D01*
X60021892Y-19852676D01*
X59956562Y-19807541D01*
X59868019Y-19791676D01*
X59779793Y-19807525D01*
X59714513Y-19852676D01*
X59673392Y-19924172D01*
X59657726Y-20035308D01*
X59233979Y-20035308D01*
X59246116Y-19862751D01*
X59270858Y-19758182D01*
X59309131Y-19669677D01*
X59400749Y-19545054D01*
X59525835Y-19446927D01*
X59622951Y-19401429D01*
X59735976Y-19372907D01*
X59868203Y-19362847D01*
X60000554Y-19372906D01*
G37*
G36*
X58918586Y-21520000D02*
G01*
X58918586Y-19386294D01*
X58490123Y-19386294D01*
X58490123Y-19593290D01*
X58481880Y-19593290D01*
X58407681Y-19501216D01*
X58320863Y-19427876D01*
X58217410Y-19380151D01*
X58080162Y-19362847D01*
X57950914Y-19380438D01*
X57850268Y-19429891D01*
X57765177Y-19501209D01*
X57699509Y-19576254D01*
X57615352Y-19494345D01*
X57523654Y-19425678D01*
X57415627Y-19380256D01*
X57255842Y-19362847D01*
X57176310Y-19369500D01*
X57092627Y-19390141D01*
X57013497Y-19426161D01*
X56941868Y-19480633D01*
X56882191Y-19551070D01*
X56833058Y-19642566D01*
X56802524Y-19747862D01*
X56791292Y-19884183D01*
X56791292Y-21520000D01*
X57219755Y-21520000D01*
X57219755Y-20044101D01*
X57234428Y-19935238D01*
X57273977Y-19859087D01*
X57338043Y-19809199D01*
X57428217Y-19791676D01*
X57504740Y-19801276D01*
X57558219Y-19826971D01*
X57594912Y-19867513D01*
X57627756Y-19953090D01*
X57640708Y-20086050D01*
X57640708Y-21520000D01*
X58069171Y-21520000D01*
X58069171Y-20044101D01*
X58083844Y-19935238D01*
X58123393Y-19859087D01*
X58187583Y-19809184D01*
X58277632Y-19791676D01*
X58354155Y-19801276D01*
X58407635Y-19826971D01*
X58444328Y-19867513D01*
X58477171Y-19953090D01*
X58490123Y-20086050D01*
X58490123Y-21520000D01*
X58918586Y-21520000D01*
G37*
G36*
X55976673Y-19375374D02*
G01*
X56099596Y-19411207D01*
X56209797Y-19469050D01*
X56301463Y-19543647D01*
X56400017Y-19670807D01*
X56464743Y-19822837D01*
X56495087Y-20005999D01*
X56079263Y-20005999D01*
X56044791Y-19911520D01*
X55988405Y-19846264D01*
X55914635Y-19805164D01*
X55834349Y-19791676D01*
X55756230Y-19800870D01*
X55702133Y-19825254D01*
X55665455Y-19863117D01*
X55631311Y-19941169D01*
X55618927Y-20043918D01*
X55618927Y-20266484D01*
X55682124Y-20262271D01*
X55732683Y-20258058D01*
X55779028Y-20253845D01*
X55825190Y-20253845D01*
X56017914Y-20266030D01*
X56158032Y-20297991D01*
X56277136Y-20354588D01*
X56364478Y-20430432D01*
X56430968Y-20531924D01*
X56474021Y-20659410D01*
X56495632Y-20801515D01*
X56503513Y-20976315D01*
X56491320Y-21143771D01*
X56459366Y-21264094D01*
X56406298Y-21365111D01*
X56343412Y-21434270D01*
X56268740Y-21488017D01*
X56193935Y-21520183D01*
X56040245Y-21543447D01*
X55895595Y-21526226D01*
X55797896Y-21480982D01*
X55715358Y-21408303D01*
X55627353Y-21301646D01*
X55618927Y-21301646D01*
X55618927Y-21518351D01*
X55190464Y-21518351D01*
X55190464Y-20606470D01*
X55618927Y-20606470D01*
X55618927Y-20895715D01*
X55635585Y-21015189D01*
X55680293Y-21097032D01*
X55751864Y-21149737D01*
X55851202Y-21168290D01*
X55946171Y-21148940D01*
X56015882Y-21092819D01*
X56059352Y-21008679D01*
X56075050Y-20895715D01*
X56062259Y-20785954D01*
X56028392Y-20710119D01*
X55975949Y-20658860D01*
X55869048Y-20610753D01*
X55737262Y-20593831D01*
X55618927Y-20606470D01*
X55190464Y-20606470D01*
X55190464Y-20035125D01*
X55203795Y-19873673D01*
X55241022Y-19741118D01*
X55301080Y-19623697D01*
X55375661Y-19530825D01*
X55471150Y-19457607D01*
X55581924Y-19404979D01*
X55702795Y-19373569D01*
X55834349Y-19362847D01*
X55976673Y-19375374D01*
G37*
G36*
X54106025Y-19981270D02*
G01*
X54123379Y-19882170D01*
X54170872Y-19816406D01*
X54240426Y-19775142D01*
X54319249Y-19761451D01*
X54409687Y-19778476D01*
X54473855Y-19826664D01*
X54514544Y-19896701D01*
X54528077Y-19976140D01*
X54520850Y-20034181D01*
X54498585Y-20092278D01*
X54453002Y-20141404D01*
X54346727Y-20195226D01*
X54093752Y-20296343D01*
X53942350Y-20370504D01*
X53835005Y-20454922D01*
X53762925Y-20549317D01*
X53712652Y-20659043D01*
X53682473Y-20775018D01*
X53672250Y-20899012D01*
X53684590Y-21030028D01*
X53720793Y-21149605D01*
X53778380Y-21258867D01*
X53853600Y-21353853D01*
X53945714Y-21432423D01*
X54056017Y-21492889D01*
X54178044Y-21530551D01*
X54313387Y-21543447D01*
X54481136Y-21524617D01*
X54625494Y-21470276D01*
X54751742Y-21380232D01*
X54831223Y-21292139D01*
X54895357Y-21181845D01*
X54935771Y-21056033D01*
X54950129Y-20903775D01*
X54548777Y-20903775D01*
X54526923Y-20989360D01*
X54486861Y-21068822D01*
X54448152Y-21109446D01*
X54392617Y-21135233D01*
X54314120Y-21144842D01*
X54225266Y-21129688D01*
X54145593Y-21083843D01*
X54090166Y-21011988D01*
X54070854Y-20913117D01*
X54082804Y-20829830D01*
X54117199Y-20761625D01*
X54176879Y-20706360D01*
X54285910Y-20651899D01*
X54492540Y-20576062D01*
X54620640Y-20515759D01*
X54725684Y-20440780D01*
X54810727Y-20350931D01*
X54874242Y-20245885D01*
X54913132Y-20125601D01*
X54926681Y-19986215D01*
X54913934Y-19855303D01*
X54876489Y-19735806D01*
X54816518Y-19627340D01*
X54738187Y-19535587D01*
X54647550Y-19461528D01*
X54541632Y-19407177D01*
X54425258Y-19374104D01*
X54298733Y-19362847D01*
X54172456Y-19374565D01*
X54058032Y-19408825D01*
X53954391Y-19464507D01*
X53867339Y-19538335D01*
X53796767Y-19628877D01*
X53741859Y-19736905D01*
X53707365Y-19854753D01*
X53695697Y-19981270D01*
X54106025Y-19981270D01*
G37*
G36*
X53343988Y-21520000D02*
G01*
X53343988Y-19726280D01*
X53555013Y-19726280D01*
X53555013Y-19386294D01*
X53343988Y-19386294D01*
X53343988Y-19098148D01*
X53331531Y-18950931D01*
X53297643Y-18837297D01*
X53242243Y-18738827D01*
X53171247Y-18659794D01*
X53089416Y-18599295D01*
X52996308Y-18559776D01*
X52895859Y-18537831D01*
X52791693Y-18530467D01*
X52593674Y-18530467D01*
X52593674Y-18929071D01*
X52788396Y-18929071D01*
X52858828Y-18945262D01*
X52899703Y-18990535D01*
X52915525Y-19075800D01*
X52915525Y-19386294D01*
X52593674Y-19386294D01*
X52593674Y-19726280D01*
X52915525Y-19726280D01*
X52915525Y-21520000D01*
X53343988Y-21520000D01*
G37*
G36*
X52494023Y-18530467D02*
G01*
X52065560Y-18530467D01*
X52065560Y-20922826D01*
X52052422Y-21032762D01*
X52021413Y-21088972D01*
X51965048Y-21122602D01*
X51855083Y-21145758D01*
X51855083Y-21549309D01*
X51998376Y-21543178D01*
X52119965Y-21526045D01*
X52230523Y-21491326D01*
X52321648Y-21435736D01*
X52394423Y-21361408D01*
X52449876Y-21257133D01*
X52481712Y-21131500D01*
X52494023Y-20952135D01*
X52494023Y-18530467D01*
G37*
G36*
X50413073Y-19386294D02*
G01*
X50413073Y-21520000D01*
X50841536Y-21520000D01*
X50841536Y-21313004D01*
X50849780Y-21313004D01*
X50924025Y-21405215D01*
X51010980Y-21478600D01*
X51114419Y-21526188D01*
X51251681Y-21543447D01*
X51330487Y-21536719D01*
X51410500Y-21516153D01*
X51485343Y-21480102D01*
X51552833Y-21425661D01*
X51608304Y-21355454D01*
X51653400Y-21263911D01*
X51680811Y-21158697D01*
X51690952Y-21021927D01*
X51690952Y-19386294D01*
X51262489Y-19386294D01*
X51262489Y-20862376D01*
X51247816Y-20971239D01*
X51208267Y-21047390D01*
X51144093Y-21097150D01*
X51054028Y-21114617D01*
X50977486Y-21105035D01*
X50924009Y-21079396D01*
X50887332Y-21038963D01*
X50854493Y-20953366D01*
X50841536Y-20820244D01*
X50841536Y-19386294D01*
X50413073Y-19386294D01*
G37*
G36*
X50058433Y-21520000D02*
G01*
X50058433Y-19386294D01*
X49629970Y-19386294D01*
X49629970Y-19593290D01*
X49621727Y-19593290D01*
X49547527Y-19501216D01*
X49460710Y-19427876D01*
X49357257Y-19380151D01*
X49220008Y-19362847D01*
X49090761Y-19380438D01*
X48990115Y-19429891D01*
X48905023Y-19501209D01*
X48839356Y-19576254D01*
X48755198Y-19494345D01*
X48663501Y-19425678D01*
X48555474Y-19380256D01*
X48395689Y-19362847D01*
X48316157Y-19369500D01*
X48232473Y-19390141D01*
X48153344Y-19426161D01*
X48081714Y-19480633D01*
X48022038Y-19551070D01*
X47972904Y-19642566D01*
X47942371Y-19747862D01*
X47931139Y-19884183D01*
X47931139Y-21520000D01*
X48359602Y-21520000D01*
X48359602Y-20044101D01*
X48374275Y-19935238D01*
X48413824Y-19859087D01*
X48477890Y-19809199D01*
X48568063Y-19791676D01*
X48644586Y-19801276D01*
X48698066Y-19826971D01*
X48734759Y-19867513D01*
X48767602Y-19953090D01*
X48780554Y-20086050D01*
X48780554Y-21520000D01*
X49209017Y-21520000D01*
X49209017Y-20044101D01*
X49223690Y-19935238D01*
X49263239Y-19859087D01*
X49327430Y-19809184D01*
X49417479Y-19791676D01*
X49494002Y-19801276D01*
X49547482Y-19826971D01*
X49584174Y-19867513D01*
X49617018Y-19953090D01*
X49629970Y-20086050D01*
X49629970Y-21520000D01*
X50058433Y-21520000D01*
G37*
G36*
X47573018Y-21520000D02*
G01*
X47573018Y-19386294D01*
X47144555Y-19386294D01*
X47144555Y-19593290D01*
X47136311Y-19593290D01*
X47062112Y-19501216D01*
X46975294Y-19427876D01*
X46871841Y-19380151D01*
X46734593Y-19362847D01*
X46605346Y-19380438D01*
X46504699Y-19429891D01*
X46419608Y-19501209D01*
X46353941Y-19576254D01*
X46269783Y-19494345D01*
X46178086Y-19425678D01*
X46070059Y-19380256D01*
X45910273Y-19362847D01*
X45830742Y-19369500D01*
X45747058Y-19390141D01*
X45667928Y-19426161D01*
X45596299Y-19480633D01*
X45536623Y-19551070D01*
X45487489Y-19642566D01*
X45456956Y-19747862D01*
X45445724Y-19884183D01*
X45445724Y-21520000D01*
X45874187Y-21520000D01*
X45874187Y-20044101D01*
X45888859Y-19935238D01*
X45928408Y-19859087D01*
X45992474Y-19809199D01*
X46082648Y-19791676D01*
X46159171Y-19801276D01*
X46212651Y-19826971D01*
X46249344Y-19867513D01*
X46282187Y-19953090D01*
X46295139Y-20086050D01*
X46295139Y-21520000D01*
X46723602Y-21520000D01*
X46723602Y-20044101D01*
X46738275Y-19935238D01*
X46777824Y-19859087D01*
X46842014Y-19809184D01*
X46932063Y-19791676D01*
X47008586Y-19801276D01*
X47062066Y-19826971D01*
X47098759Y-19867513D01*
X47131602Y-19953090D01*
X47144555Y-20086050D01*
X47144555Y-21520000D01*
X47573018Y-21520000D01*
G37*
G36*
X44616186Y-19372906D02*
G01*
X44729333Y-19401429D01*
X44826568Y-19446927D01*
X44951503Y-19545041D01*
X45043089Y-19669677D01*
X45081362Y-19758182D01*
X45106104Y-19862751D01*
X45122773Y-20102353D01*
X45122773Y-20803941D01*
X45106104Y-21043543D01*
X45081362Y-21148112D01*
X45043089Y-21236617D01*
X44951511Y-21361290D01*
X44826568Y-21459549D01*
X44729345Y-21504944D01*
X44616196Y-21533407D01*
X44483834Y-21543447D01*
X44341824Y-21530414D01*
X44219136Y-21493072D01*
X44109156Y-21432837D01*
X44017269Y-21354586D01*
X43922959Y-21230421D01*
X43865234Y-21081765D01*
X43844895Y-20901577D01*
X44273358Y-20901577D01*
X44289274Y-20971507D01*
X44321718Y-21043726D01*
X44354624Y-21081061D01*
X44406065Y-21105324D01*
X44483651Y-21114617D01*
X44572762Y-21100261D01*
X44637524Y-21060212D01*
X44679203Y-20996831D01*
X44694310Y-20905790D01*
X44694310Y-20617278D01*
X43844895Y-20617278D01*
X43844895Y-20034576D01*
X44273358Y-20034576D01*
X44273358Y-20277292D01*
X44694310Y-20277292D01*
X44694310Y-20034576D01*
X44678650Y-19923790D01*
X44637524Y-19852493D01*
X44572210Y-19807499D01*
X44483651Y-19791676D01*
X44395409Y-19807484D01*
X44330144Y-19852493D01*
X44289018Y-19923790D01*
X44273358Y-20034576D01*
X43844895Y-20034576D01*
X43844895Y-20027981D01*
X43864555Y-19843513D01*
X43920831Y-19686941D01*
X44013056Y-19552257D01*
X44105267Y-19473943D01*
X44216938Y-19413405D01*
X44341533Y-19375874D01*
X44483834Y-19362847D01*
X44616186Y-19372906D01*
G37*
G36*
X43534218Y-21520000D02*
G01*
X43534218Y-19386294D01*
X43105755Y-19386294D01*
X43105755Y-19614356D01*
X42973133Y-19507242D01*
X42849300Y-19430075D01*
X42713315Y-19380778D01*
X42537707Y-19362847D01*
X42537707Y-19816955D01*
X42602010Y-19797977D01*
X42668133Y-19791676D01*
X42813396Y-19814940D01*
X42887313Y-19845774D01*
X42954263Y-19892609D01*
X43014548Y-19954712D01*
X43063806Y-20035675D01*
X43094477Y-20130427D01*
X43105755Y-20254211D01*
X43105755Y-21520000D01*
X43534218Y-21520000D01*
G37*
G36*
X40945802Y-18508660D02*
G01*
X41150763Y-18548096D01*
X41346107Y-18613265D01*
X41531786Y-18702562D01*
X41698971Y-18810450D01*
X41849309Y-18937315D01*
X41984952Y-19082541D01*
X42099776Y-19242806D01*
X42194607Y-19419450D01*
X42264447Y-19606745D01*
X42306563Y-19803200D01*
X42320819Y-20010945D01*
X42306690Y-20227236D01*
X42265135Y-20430015D01*
X42196622Y-20621491D01*
X42102884Y-20802139D01*
X41990162Y-20962865D01*
X41857918Y-21105458D01*
X41707400Y-21232291D01*
X41540276Y-21339551D01*
X41354900Y-21427676D01*
X41159770Y-21491602D01*
X40954856Y-21530319D01*
X40738309Y-21543447D01*
X40525693Y-21531243D01*
X40319555Y-21494904D01*
X40120542Y-21435060D01*
X39934506Y-21353670D01*
X39764716Y-21250419D01*
X39608258Y-21125975D01*
X39470565Y-20982069D01*
X39357848Y-20822076D01*
X39684829Y-20822076D01*
X39767275Y-20906586D01*
X39871674Y-20991885D01*
X39987619Y-21067285D01*
X40117138Y-21132203D01*
X40254448Y-21184616D01*
X40402353Y-21226359D01*
X40553836Y-21253202D01*
X40704603Y-21262079D01*
X40887149Y-21250964D01*
X41055694Y-21218524D01*
X41212201Y-21165542D01*
X41430034Y-21050709D01*
X41619232Y-20901027D01*
X41727919Y-20785293D01*
X41819291Y-20656272D01*
X41894005Y-20512681D01*
X41948516Y-20360317D01*
X41981419Y-20200634D01*
X41992557Y-20032011D01*
X41981857Y-19871526D01*
X41949868Y-19715228D01*
X41896203Y-19561782D01*
X41823031Y-19416281D01*
X41732380Y-19282278D01*
X41623445Y-19158782D01*
X41434254Y-19000875D01*
X41218613Y-18879612D01*
X41063236Y-18822733D01*
X40899456Y-18788334D01*
X40725486Y-18776664D01*
X40503680Y-18794780D01*
X40297573Y-18848105D01*
X40106753Y-18935547D01*
X39940917Y-19053269D01*
X39801402Y-19200000D01*
X39693255Y-19372006D01*
X39642260Y-19497788D01*
X39611418Y-19631410D01*
X39600931Y-19774640D01*
X39613288Y-19925316D01*
X39651489Y-20082752D01*
X39710589Y-20234898D01*
X39785762Y-20374012D01*
X39876231Y-20498303D01*
X39970593Y-20592182D01*
X40074638Y-20656351D01*
X40172093Y-20675896D01*
X40219958Y-20666758D01*
X40247747Y-20642374D01*
X40262962Y-20605424D01*
X40268630Y-20554263D01*
X40258189Y-20474762D01*
X40226681Y-20365403D01*
X40045379Y-19793325D01*
X40390446Y-19793325D01*
X40402374Y-19920965D01*
X40440821Y-20066449D01*
X40500013Y-20207866D01*
X40575277Y-20335177D01*
X40666856Y-20451602D01*
X40770366Y-20545104D01*
X40885752Y-20608934D01*
X40999160Y-20629002D01*
X41101640Y-20617720D01*
X41184908Y-20585945D01*
X41253234Y-20534480D01*
X41303949Y-20465807D01*
X41336085Y-20377494D01*
X41347756Y-20263736D01*
X41335678Y-20132813D01*
X41297381Y-19988780D01*
X41237263Y-19849324D01*
X41158712Y-19722067D01*
X41065797Y-19610703D01*
X40957212Y-19522581D01*
X40834109Y-19464245D01*
X40701123Y-19444912D01*
X40605224Y-19456939D01*
X40529932Y-19490633D01*
X40470314Y-19545662D01*
X40411095Y-19655859D01*
X40390446Y-19793325D01*
X40045379Y-19793325D01*
X39861233Y-19212271D01*
X40125931Y-19212271D01*
X40209829Y-19470191D01*
X40218255Y-19470191D01*
X40270726Y-19359506D01*
X40337267Y-19276414D01*
X40418290Y-19216301D01*
X40558839Y-19158866D01*
X40702588Y-19140097D01*
X40851334Y-19151999D01*
X40985921Y-19186625D01*
X41108886Y-19243412D01*
X41274587Y-19361764D01*
X41413885Y-19510675D01*
X41529265Y-19684594D01*
X41616118Y-19881252D01*
X41670082Y-20088937D01*
X41687742Y-20293778D01*
X41668879Y-20464354D01*
X41614221Y-20612897D01*
X41523428Y-20744406D01*
X41435818Y-20823036D01*
X41331819Y-20883258D01*
X41215716Y-20920877D01*
X41085073Y-20933817D01*
X40991401Y-20927655D01*
X40912515Y-20910369D01*
X40773297Y-20848271D01*
X40665952Y-20762725D01*
X40571064Y-20664173D01*
X40562637Y-20664173D01*
X40527240Y-20786861D01*
X40461521Y-20867505D01*
X40366607Y-20915977D01*
X40233825Y-20933817D01*
X40097527Y-20914057D01*
X39932491Y-20847538D01*
X39773333Y-20745884D01*
X39618333Y-20605371D01*
X39484785Y-20440111D01*
X39371770Y-20236809D01*
X39317412Y-20089293D01*
X39284106Y-19929309D01*
X39272669Y-19754673D01*
X39285699Y-19572009D01*
X39323810Y-19403604D01*
X39386425Y-19247076D01*
X39471713Y-19101241D01*
X39576568Y-18968908D01*
X39702231Y-18849021D01*
X39842419Y-18746118D01*
X39997610Y-18659127D01*
X40169345Y-18587986D01*
X40348226Y-18536768D01*
X40534461Y-18505775D01*
X40729333Y-18495296D01*
X40945802Y-18508660D01*
G37*
G36*
X39008886Y-21520000D02*
G01*
X39008886Y-18530467D01*
X38580423Y-18530467D01*
X38580423Y-19594023D01*
X38572180Y-19594023D01*
X38497965Y-19501610D01*
X38411163Y-19428060D01*
X38307540Y-19380189D01*
X38170279Y-19362847D01*
X38091473Y-19369575D01*
X38011460Y-19390141D01*
X37936636Y-19426087D01*
X37869127Y-19480633D01*
X37813706Y-19550873D01*
X37768743Y-19642566D01*
X37741197Y-19747609D01*
X37731008Y-19884183D01*
X37731008Y-21520000D01*
X38159471Y-21520000D01*
X38159471Y-20044101D01*
X38174144Y-19935238D01*
X38213693Y-19859087D01*
X38277883Y-19809184D01*
X38367932Y-19791676D01*
X38444455Y-19801276D01*
X38497935Y-19826971D01*
X38534628Y-19867513D01*
X38567471Y-19953090D01*
X38580423Y-20086050D01*
X38580423Y-21520000D01*
X39008886Y-21520000D01*
G37*
G36*
X37598384Y-21520000D02*
G01*
X37073384Y-20430066D01*
X37573288Y-19386294D01*
X37119546Y-19386294D01*
X36855031Y-19992260D01*
X36590333Y-19386294D01*
X36136774Y-19386294D01*
X36645104Y-20430066D01*
X36111678Y-21520000D01*
X36565237Y-21520000D01*
X36855031Y-20867688D01*
X37144825Y-21520000D01*
X37598384Y-21520000D01*
G37*
G36*
X35984183Y-21520000D02*
G01*
X35984183Y-19386294D01*
X35555720Y-19386294D01*
X35555720Y-19614356D01*
X35423099Y-19507242D01*
X35299265Y-19430075D01*
X35163280Y-19380778D01*
X34987672Y-19362847D01*
X34987672Y-19816955D01*
X35051975Y-19797977D01*
X35118098Y-19791676D01*
X35263361Y-19814940D01*
X35337278Y-19845774D01*
X35404228Y-19892609D01*
X35464513Y-19954712D01*
X35513771Y-20035675D01*
X35544442Y-20130427D01*
X35555720Y-20254211D01*
X35555720Y-21520000D01*
X35984183Y-21520000D01*
G37*
G36*
X35128356Y-21520000D02*
G01*
X35128356Y-21091170D01*
X34699893Y-21091170D01*
X34699893Y-21520000D01*
X35128356Y-21520000D01*
G37*
G36*
X33574972Y-19981270D02*
G01*
X33592325Y-19882170D01*
X33639818Y-19816406D01*
X33709372Y-19775142D01*
X33788196Y-19761451D01*
X33878634Y-19778476D01*
X33942801Y-19826664D01*
X33983490Y-19896701D01*
X33997023Y-19976140D01*
X33989796Y-20034181D01*
X33967531Y-20092278D01*
X33921948Y-20141404D01*
X33815673Y-20195226D01*
X33562698Y-20296343D01*
X33411297Y-20370504D01*
X33303951Y-20454922D01*
X33231871Y-20549317D01*
X33181598Y-20659043D01*
X33151419Y-20775018D01*
X33141196Y-20899012D01*
X33153536Y-21030028D01*
X33189740Y-21149605D01*
X33247326Y-21258867D01*
X33322547Y-21353853D01*
X33414661Y-21432423D01*
X33524963Y-21492889D01*
X33646991Y-21530551D01*
X33782334Y-21543447D01*
X33950082Y-21524617D01*
X34094441Y-21470276D01*
X34220689Y-21380232D01*
X34300170Y-21292139D01*
X34364303Y-21181845D01*
X34404717Y-21056033D01*
X34419075Y-20903775D01*
X34017723Y-20903775D01*
X33995869Y-20989360D01*
X33955807Y-21068822D01*
X33917098Y-21109446D01*
X33861563Y-21135233D01*
X33783066Y-21144842D01*
X33694212Y-21129688D01*
X33614539Y-21083843D01*
X33559113Y-21011988D01*
X33539801Y-20913117D01*
X33551750Y-20829830D01*
X33586146Y-20761625D01*
X33645825Y-20706360D01*
X33754856Y-20651899D01*
X33961486Y-20576062D01*
X34089586Y-20515759D01*
X34194631Y-20440780D01*
X34279673Y-20350931D01*
X34343189Y-20245885D01*
X34382078Y-20125601D01*
X34395628Y-19986215D01*
X34382880Y-19855303D01*
X34345436Y-19735806D01*
X34285464Y-19627340D01*
X34207133Y-19535587D01*
X34116497Y-19461528D01*
X34010579Y-19407177D01*
X33894205Y-19374104D01*
X33767679Y-19362847D01*
X33641402Y-19374565D01*
X33526978Y-19408825D01*
X33423337Y-19464507D01*
X33336285Y-19538335D01*
X33265713Y-19628877D01*
X33210806Y-19736905D01*
X33176311Y-19854753D01*
X33164644Y-19981270D01*
X33574972Y-19981270D01*
G37*
G36*
X32400135Y-19372906D02*
G01*
X32513283Y-19401429D01*
X32610518Y-19446927D01*
X32735453Y-19545041D01*
X32827039Y-19669677D01*
X32865312Y-19758182D01*
X32890054Y-19862751D01*
X32906723Y-20102353D01*
X32906723Y-20803941D01*
X32890054Y-21043543D01*
X32865312Y-21148112D01*
X32827039Y-21236617D01*
X32735461Y-21361290D01*
X32610518Y-21459549D01*
X32513295Y-21504944D01*
X32400146Y-21533407D01*
X32267784Y-21543447D01*
X32135546Y-21533407D01*
X32022521Y-21504944D01*
X31925416Y-21459549D01*
X31800323Y-21361277D01*
X31708712Y-21236617D01*
X31670439Y-21148112D01*
X31645697Y-21043543D01*
X31628845Y-20803941D01*
X31628845Y-20102353D01*
X31633560Y-20035308D01*
X32057308Y-20035308D01*
X32057308Y-20871168D01*
X32072974Y-20982305D01*
X32114094Y-21053801D01*
X32179359Y-21098810D01*
X32267601Y-21114617D01*
X32356159Y-21098794D01*
X32421474Y-21053801D01*
X32462594Y-20982305D01*
X32478260Y-20871168D01*
X32478260Y-20035308D01*
X32462594Y-19924172D01*
X32421474Y-19852676D01*
X32356144Y-19807541D01*
X32267601Y-19791676D01*
X32179374Y-19807525D01*
X32114094Y-19852676D01*
X32072974Y-19924172D01*
X32057308Y-20035308D01*
X31633560Y-20035308D01*
X31645697Y-19862751D01*
X31670439Y-19758182D01*
X31708712Y-19669677D01*
X31800330Y-19545054D01*
X31925416Y-19446927D01*
X32022532Y-19401429D01*
X32135557Y-19372907D01*
X32267784Y-19362847D01*
X32400135Y-19372906D01*
G37*
G36*
X30866257Y-20904691D02*
G01*
X30851128Y-20996400D01*
X30809471Y-21060029D01*
X30744693Y-21100218D01*
X30655598Y-21114617D01*
X30578052Y-21105287D01*
X30526604Y-21080912D01*
X30493665Y-21043360D01*
X30461224Y-20970779D01*
X30445305Y-20900478D01*
X30016842Y-20900478D01*
X30037186Y-21081043D01*
X30094918Y-21230002D01*
X30189216Y-21354403D01*
X30281096Y-21432694D01*
X30391083Y-21493072D01*
X30513771Y-21530414D01*
X30655781Y-21543447D01*
X30788143Y-21533407D01*
X30901292Y-21504944D01*
X30998515Y-21459549D01*
X31123458Y-21361290D01*
X31215036Y-21236617D01*
X31253309Y-21148112D01*
X31278051Y-21043543D01*
X31294720Y-20803941D01*
X31294720Y-20102353D01*
X31278051Y-19862751D01*
X31253309Y-19758182D01*
X31215036Y-19669677D01*
X31123450Y-19545041D01*
X30998515Y-19446927D01*
X30901280Y-19401429D01*
X30788133Y-19372906D01*
X30655781Y-19362847D01*
X30513480Y-19375874D01*
X30388885Y-19413405D01*
X30277207Y-19473763D01*
X30185003Y-19551891D01*
X30093506Y-19686775D01*
X30036877Y-19848334D01*
X30016842Y-20043735D01*
X30445305Y-20043735D01*
X30461250Y-19925200D01*
X30502091Y-19852676D01*
X30567372Y-19807525D01*
X30655598Y-19791676D01*
X30744141Y-19807541D01*
X30809471Y-19852676D01*
X30850591Y-19924172D01*
X30866257Y-20035308D01*
X30866257Y-20904691D01*
G37*
G36*
X29764783Y-21520000D02*
G01*
X29764783Y-19386294D01*
X29336320Y-19386294D01*
X29336320Y-21520000D01*
X29764783Y-21520000D01*
G37*
G36*
X29764783Y-18959296D02*
G01*
X29764783Y-18530467D01*
X29336320Y-18530467D01*
X29336320Y-18959296D01*
X29764783Y-18959296D01*
G37*
G36*
X28528661Y-19375374D02*
G01*
X28651585Y-19411207D01*
X28761786Y-19469050D01*
X28853452Y-19543647D01*
X28952006Y-19670807D01*
X29016732Y-19822837D01*
X29047076Y-20005999D01*
X28631252Y-20005999D01*
X28596780Y-19911520D01*
X28540394Y-19846264D01*
X28466624Y-19805164D01*
X28386338Y-19791676D01*
X28308219Y-19800870D01*
X28254121Y-19825254D01*
X28217444Y-19863117D01*
X28183300Y-19941169D01*
X28170915Y-20043918D01*
X28170915Y-20266484D01*
X28234113Y-20262271D01*
X28284672Y-20258058D01*
X28331017Y-20253845D01*
X28377178Y-20253845D01*
X28569903Y-20266030D01*
X28710020Y-20297991D01*
X28829125Y-20354588D01*
X28916467Y-20430432D01*
X28982957Y-20531924D01*
X29026010Y-20659410D01*
X29047621Y-20801515D01*
X29055502Y-20976315D01*
X29043309Y-21143771D01*
X29011355Y-21264094D01*
X28958287Y-21365111D01*
X28895401Y-21434270D01*
X28820729Y-21488017D01*
X28745924Y-21520183D01*
X28592234Y-21543447D01*
X28447583Y-21526226D01*
X28349884Y-21480982D01*
X28267346Y-21408303D01*
X28179342Y-21301646D01*
X28170915Y-21301646D01*
X28170915Y-21518351D01*
X27742452Y-21518351D01*
X27742452Y-20606470D01*
X28170915Y-20606470D01*
X28170915Y-20895715D01*
X28187574Y-21015189D01*
X28232281Y-21097032D01*
X28303853Y-21149737D01*
X28403190Y-21168290D01*
X28498160Y-21148940D01*
X28567871Y-21092819D01*
X28611341Y-21008679D01*
X28627039Y-20895715D01*
X28614248Y-20785954D01*
X28580381Y-20710119D01*
X28527937Y-20658860D01*
X28421037Y-20610753D01*
X28289251Y-20593831D01*
X28170915Y-20606470D01*
X27742452Y-20606470D01*
X27742452Y-20035125D01*
X27755784Y-19873673D01*
X27793011Y-19741118D01*
X27853069Y-19623697D01*
X27927650Y-19530825D01*
X28023139Y-19457607D01*
X28133913Y-19404979D01*
X28254783Y-19373569D01*
X28386338Y-19362847D01*
X28528661Y-19375374D01*
G37*
G36*
X27455223Y-18530467D02*
G01*
X27026760Y-18530467D01*
X27026760Y-20922826D01*
X27013622Y-21032762D01*
X26982613Y-21088972D01*
X26926248Y-21122602D01*
X26816284Y-21145758D01*
X26816284Y-21549309D01*
X26959576Y-21543178D01*
X27081165Y-21526045D01*
X27191723Y-21491326D01*
X27282848Y-21435736D01*
X27355624Y-21361408D01*
X27411076Y-21257133D01*
X27442912Y-21131500D01*
X27455223Y-20952135D01*
X27455223Y-18530467D01*
G37*
G36*
X66395348Y-17965000D02*
G01*
X66097769Y-17965000D01*
X66002328Y-17957902D01*
X65923679Y-17938111D01*
X65858792Y-17907104D01*
X65805319Y-17865257D01*
X65763401Y-17812702D01*
X65731761Y-17745908D01*
X65711164Y-17661617D01*
X65703653Y-17555679D01*
X65703653Y-16856564D01*
X65703767Y-16855007D01*
X65917884Y-16855007D01*
X65917884Y-17578119D01*
X65922881Y-17641887D01*
X65936041Y-17687846D01*
X65955528Y-17720360D01*
X65983895Y-17744146D01*
X66024849Y-17759783D01*
X66082931Y-17765697D01*
X66181117Y-17765697D01*
X66181117Y-16669535D01*
X66082931Y-16669535D01*
X66022302Y-16675935D01*
X65980927Y-16692668D01*
X65953422Y-16717987D01*
X65927697Y-16773004D01*
X65917884Y-16855007D01*
X65703767Y-16855007D01*
X65710420Y-16764133D01*
X65729334Y-16687502D01*
X65759015Y-16623878D01*
X65799091Y-16571075D01*
X65849685Y-16528676D01*
X65911477Y-16497371D01*
X65986816Y-16477403D01*
X66078810Y-16470233D01*
X66395348Y-16470233D01*
X66395348Y-17965000D01*
G37*
G36*
X65277435Y-16891453D02*
G01*
X65334009Y-16905714D01*
X65382626Y-16928463D01*
X65445094Y-16977520D01*
X65490887Y-17039838D01*
X65510023Y-17084091D01*
X65522394Y-17136375D01*
X65530729Y-17256176D01*
X65530729Y-17606970D01*
X65522394Y-17726771D01*
X65510023Y-17779056D01*
X65490887Y-17823308D01*
X65445098Y-17885645D01*
X65382626Y-17934774D01*
X65334014Y-17957472D01*
X65277440Y-17971703D01*
X65211259Y-17976723D01*
X65140254Y-17970207D01*
X65078910Y-17951536D01*
X65023920Y-17921418D01*
X64977977Y-17882293D01*
X64930821Y-17820210D01*
X64901959Y-17745882D01*
X64891789Y-17655788D01*
X65106021Y-17655788D01*
X65113979Y-17690753D01*
X65130201Y-17726863D01*
X65146654Y-17745530D01*
X65172374Y-17757662D01*
X65211168Y-17762308D01*
X65255723Y-17755130D01*
X65288104Y-17735106D01*
X65308943Y-17703415D01*
X65316497Y-17657895D01*
X65316497Y-17513639D01*
X64891789Y-17513639D01*
X64891789Y-17222288D01*
X65106021Y-17222288D01*
X65106021Y-17343646D01*
X65316497Y-17343646D01*
X65316497Y-17222288D01*
X65308667Y-17166895D01*
X65288104Y-17131246D01*
X65255447Y-17108749D01*
X65211168Y-17100838D01*
X65167046Y-17108742D01*
X65134414Y-17131246D01*
X65113851Y-17166895D01*
X65106021Y-17222288D01*
X64891789Y-17222288D01*
X64891789Y-17218990D01*
X64901620Y-17126756D01*
X64929758Y-17048470D01*
X64975870Y-16981128D01*
X65021975Y-16941971D01*
X65077811Y-16911702D01*
X65140109Y-16892937D01*
X65211259Y-16886423D01*
X65277435Y-16891453D01*
G37*
G36*
X64349570Y-17195635D02*
G01*
X64358247Y-17146085D01*
X64381994Y-17113203D01*
X64416771Y-17092571D01*
X64456182Y-17085725D01*
X64501401Y-17094238D01*
X64533485Y-17118332D01*
X64553829Y-17153350D01*
X64560596Y-17193070D01*
X64556983Y-17222090D01*
X64545850Y-17251139D01*
X64523059Y-17275702D01*
X64469921Y-17302613D01*
X64343434Y-17353171D01*
X64267733Y-17390252D01*
X64214060Y-17432461D01*
X64178020Y-17479658D01*
X64152883Y-17534521D01*
X64137794Y-17592509D01*
X64132683Y-17654506D01*
X64138853Y-17720014D01*
X64156954Y-17779802D01*
X64185748Y-17834433D01*
X64223358Y-17881926D01*
X64269415Y-17921211D01*
X64324566Y-17951444D01*
X64385580Y-17970275D01*
X64453251Y-17976723D01*
X64537126Y-17967308D01*
X64609305Y-17940138D01*
X64672429Y-17895116D01*
X64712169Y-17851069D01*
X64744236Y-17795922D01*
X64764443Y-17733016D01*
X64771622Y-17656887D01*
X64570946Y-17656887D01*
X64560019Y-17699680D01*
X64539988Y-17739411D01*
X64520633Y-17759723D01*
X64492866Y-17772616D01*
X64453618Y-17777421D01*
X64409191Y-17769844D01*
X64369354Y-17746921D01*
X64341641Y-17710994D01*
X64331985Y-17661558D01*
X64337959Y-17619915D01*
X64355157Y-17585812D01*
X64384997Y-17558180D01*
X64439513Y-17530949D01*
X64542827Y-17493031D01*
X64606878Y-17462879D01*
X64659400Y-17425390D01*
X64701921Y-17380465D01*
X64733679Y-17327942D01*
X64753124Y-17267800D01*
X64759898Y-17198107D01*
X64753525Y-17132651D01*
X64734802Y-17072903D01*
X64704817Y-17018670D01*
X64665651Y-16972793D01*
X64620333Y-16935764D01*
X64567374Y-16908588D01*
X64509187Y-16892052D01*
X64445924Y-16886423D01*
X64382786Y-16892282D01*
X64325573Y-16909412D01*
X64273753Y-16937253D01*
X64230227Y-16974167D01*
X64194941Y-17019438D01*
X64167487Y-17073452D01*
X64150240Y-17132376D01*
X64144406Y-17195635D01*
X64349570Y-17195635D01*
G37*
G36*
X63997861Y-17965000D02*
G01*
X63997861Y-16898147D01*
X63783629Y-16898147D01*
X63783629Y-17965000D01*
X63997861Y-17965000D01*
G37*
G36*
X63997861Y-16684648D02*
G01*
X63997861Y-16470233D01*
X63783629Y-16470233D01*
X63783629Y-16684648D01*
X63997861Y-16684648D01*
G37*
G36*
X63457685Y-16897115D02*
G01*
X63503452Y-16916648D01*
X63552472Y-16957480D01*
X63584865Y-17009108D01*
X63601729Y-17074276D01*
X63608049Y-17244453D01*
X63608049Y-17650201D01*
X63599714Y-17790976D01*
X63588228Y-17840897D01*
X63572420Y-17879179D01*
X63541721Y-17922802D01*
X63501912Y-17953708D01*
X63451189Y-17973107D01*
X63386307Y-17980112D01*
X63324349Y-17972797D01*
X63272185Y-17951810D01*
X63226993Y-17917925D01*
X63187463Y-17870844D01*
X63183341Y-17870844D01*
X63183341Y-18080679D01*
X63189484Y-18127817D01*
X63206514Y-18163569D01*
X63235572Y-18187330D01*
X63282260Y-18196084D01*
X63331585Y-18187213D01*
X63365424Y-18162561D01*
X63386988Y-18127280D01*
X63393818Y-18091212D01*
X63608049Y-18091212D01*
X63591091Y-18180424D01*
X63565093Y-18245543D01*
X63528478Y-18300315D01*
X63486508Y-18341164D01*
X63440100Y-18373591D01*
X63390154Y-18394653D01*
X63338021Y-18406662D01*
X63289587Y-18410498D01*
X63209589Y-18402994D01*
X63145148Y-18382105D01*
X63088990Y-18348812D01*
X63044489Y-18307459D01*
X63010183Y-18260314D01*
X62986970Y-18207533D01*
X62973502Y-18151647D01*
X62969110Y-18097165D01*
X62969110Y-17235843D01*
X63183341Y-17235843D01*
X63183341Y-17650109D01*
X63191146Y-17696787D01*
X63213566Y-17733183D01*
X63247530Y-17757503D01*
X63289587Y-17765697D01*
X63327882Y-17760878D01*
X63354262Y-17748047D01*
X63372019Y-17727870D01*
X63388169Y-17687681D01*
X63393818Y-17639576D01*
X63393818Y-17248391D01*
X63387031Y-17187374D01*
X63368813Y-17143336D01*
X63349248Y-17121371D01*
X63323525Y-17108076D01*
X63289587Y-17103311D01*
X63246276Y-17112565D01*
X63212559Y-17140130D01*
X63191075Y-17181086D01*
X63183341Y-17235843D01*
X62969110Y-17235843D01*
X62969110Y-16901078D01*
X63183341Y-16901078D01*
X63183341Y-16997981D01*
X63223092Y-16955208D01*
X63264949Y-16920678D01*
X63316240Y-16897780D01*
X63384200Y-16889354D01*
X63457685Y-16897115D01*
G37*
G36*
X62791789Y-17965000D02*
G01*
X62791789Y-16898147D01*
X62577558Y-16898147D01*
X62577558Y-17001645D01*
X62573436Y-17001645D01*
X62536337Y-16955608D01*
X62492928Y-16918938D01*
X62441123Y-16895072D01*
X62372486Y-16886423D01*
X62333083Y-16889787D01*
X62293076Y-16900070D01*
X62255664Y-16918043D01*
X62221910Y-16945316D01*
X62194199Y-16980436D01*
X62171718Y-17026283D01*
X62157945Y-17078804D01*
X62152850Y-17147091D01*
X62152850Y-17965000D01*
X62367082Y-17965000D01*
X62367082Y-17227050D01*
X62374418Y-17172619D01*
X62394193Y-17134543D01*
X62426288Y-17109592D01*
X62471312Y-17100838D01*
X62509574Y-17105638D01*
X62536314Y-17118485D01*
X62554660Y-17138756D01*
X62571082Y-17181545D01*
X62577558Y-17248025D01*
X62577558Y-17965000D01*
X62791789Y-17965000D01*
G37*
G36*
X61739821Y-16891453D02*
G01*
X61796395Y-16905714D01*
X61845013Y-16928463D01*
X61907480Y-16977520D01*
X61953273Y-17039838D01*
X61972410Y-17084091D01*
X61984781Y-17136375D01*
X61993115Y-17256176D01*
X61993115Y-17606970D01*
X61984781Y-17726771D01*
X61972410Y-17779056D01*
X61953273Y-17823308D01*
X61907484Y-17885645D01*
X61845013Y-17934774D01*
X61796401Y-17957472D01*
X61739827Y-17971703D01*
X61673646Y-17976723D01*
X61602641Y-17970207D01*
X61541297Y-17951536D01*
X61486307Y-17921418D01*
X61440363Y-17882293D01*
X61393208Y-17820210D01*
X61364346Y-17745882D01*
X61354176Y-17655788D01*
X61568408Y-17655788D01*
X61576366Y-17690753D01*
X61592588Y-17726863D01*
X61609041Y-17745530D01*
X61634761Y-17757662D01*
X61673554Y-17762308D01*
X61718110Y-17755130D01*
X61750491Y-17735106D01*
X61771330Y-17703415D01*
X61778884Y-17657895D01*
X61778884Y-17513639D01*
X61354176Y-17513639D01*
X61354176Y-17222288D01*
X61568408Y-17222288D01*
X61568408Y-17343646D01*
X61778884Y-17343646D01*
X61778884Y-17222288D01*
X61771054Y-17166895D01*
X61750491Y-17131246D01*
X61717833Y-17108749D01*
X61673554Y-17100838D01*
X61629433Y-17108742D01*
X61596801Y-17131246D01*
X61576238Y-17166895D01*
X61568408Y-17222288D01*
X61354176Y-17222288D01*
X61354176Y-17218990D01*
X61364006Y-17126756D01*
X61392144Y-17048470D01*
X61438257Y-16981128D01*
X61484362Y-16941971D01*
X61540198Y-16911702D01*
X61602495Y-16892937D01*
X61673646Y-16886423D01*
X61739821Y-16891453D01*
G37*
G36*
X60776236Y-16995691D02*
G01*
X60815966Y-16948642D01*
X60861416Y-16914816D01*
X60913569Y-16893698D01*
X60973890Y-16886423D01*
X61047738Y-16894184D01*
X61093783Y-16913717D01*
X61143036Y-16954520D01*
X61175570Y-17006120D01*
X61192518Y-17071254D01*
X61198838Y-17241430D01*
X61198838Y-17646904D01*
X61190503Y-17787679D01*
X61179024Y-17837532D01*
X61163209Y-17875881D01*
X61132516Y-17919459D01*
X61092710Y-17950338D01*
X61041985Y-17969723D01*
X60977096Y-17976723D01*
X60908036Y-17968388D01*
X60855737Y-17945399D01*
X60813880Y-17911052D01*
X60774130Y-17868279D01*
X60774130Y-17965000D01*
X60559898Y-17965000D01*
X60559898Y-17216517D01*
X60774130Y-17216517D01*
X60774130Y-17630692D01*
X60781864Y-17685449D01*
X60803347Y-17726405D01*
X60837057Y-17753898D01*
X60880375Y-17763133D01*
X60914322Y-17758376D01*
X60940044Y-17745108D01*
X60959602Y-17723199D01*
X60977817Y-17679150D01*
X60984606Y-17618053D01*
X60984606Y-17227050D01*
X60978957Y-17178946D01*
X60962807Y-17138756D01*
X60945042Y-17118524D01*
X60918661Y-17105666D01*
X60880375Y-17100838D01*
X60838326Y-17109052D01*
X60804355Y-17133444D01*
X60781934Y-17169840D01*
X60774130Y-17216517D01*
X60559898Y-17216517D01*
X60559898Y-16470233D01*
X60776236Y-16470233D01*
X60776236Y-16995691D01*
G37*
G36*
X59992766Y-17965000D02*
G01*
X59778535Y-17965000D01*
X59778535Y-17867913D01*
X59737554Y-17910983D01*
X59697019Y-17945307D01*
X59649058Y-17967976D01*
X59575569Y-17976723D01*
X59511824Y-17969801D01*
X59461333Y-17950519D01*
X59421098Y-17919632D01*
X59389456Y-17875881D01*
X59373641Y-17837532D01*
X59362162Y-17787679D01*
X59353827Y-17646904D01*
X59353827Y-17241430D01*
X59354368Y-17226867D01*
X59568059Y-17226867D01*
X59568059Y-17617411D01*
X59574845Y-17678429D01*
X59593063Y-17722466D01*
X59612613Y-17744320D01*
X59638335Y-17757560D01*
X59672289Y-17762308D01*
X59715625Y-17753077D01*
X59749409Y-17725580D01*
X59770823Y-17684721D01*
X59778535Y-17630051D01*
X59778535Y-17216334D01*
X59770731Y-17169751D01*
X59748310Y-17133444D01*
X59714338Y-17109052D01*
X59672289Y-17100838D01*
X59633997Y-17105660D01*
X59607653Y-17118491D01*
X59589949Y-17138665D01*
X59573727Y-17178848D01*
X59568059Y-17226867D01*
X59354368Y-17226867D01*
X59360147Y-17071254D01*
X59370647Y-17020043D01*
X59387349Y-16983052D01*
X59418405Y-16944760D01*
X59457417Y-16913717D01*
X59505608Y-16894024D01*
X59577676Y-16886423D01*
X59637797Y-16893700D01*
X59689692Y-16914816D01*
X59734879Y-16948629D01*
X59774413Y-16995691D01*
X59778535Y-16995691D01*
X59778535Y-16470233D01*
X59992766Y-16470233D01*
X59992766Y-17965000D01*
G37*
G36*
X59289164Y-16901078D02*
G01*
X59062384Y-16901078D01*
X58915381Y-17567128D01*
X58911168Y-17567128D01*
X58766270Y-16901078D01*
X58545719Y-16901078D01*
X58852366Y-18152670D01*
X58873433Y-18220034D01*
X58899627Y-18270456D01*
X58932899Y-18313082D01*
X58969969Y-18346202D01*
X59011529Y-18371291D01*
X59055057Y-18387143D01*
X59100729Y-18395840D01*
X59148480Y-18398775D01*
X59207281Y-18398775D01*
X59207281Y-18199473D01*
X59158921Y-18199473D01*
X59104333Y-18191046D01*
X59083279Y-18178220D01*
X59062384Y-18153128D01*
X59047105Y-18120241D01*
X59030877Y-18069871D01*
X58997263Y-17921219D01*
X59289164Y-16901078D01*
G37*
D11*
X21139999Y-6098295D02*
X20889999Y-6898295D01*
X20889999Y-6898295D02*
X20639999Y-6098295D01*
X19961428Y-6822104D02*
X19997142Y-6860200D01*
X19997142Y-6860200D02*
X20104285Y-6898295D01*
X20104285Y-6898295D02*
X20175713Y-6898295D01*
X20175713Y-6898295D02*
X20282856Y-6860200D01*
X20282856Y-6860200D02*
X20354285Y-6784009D01*
X20354285Y-6784009D02*
X20389999Y-6707819D01*
X20389999Y-6707819D02*
X20425713Y-6555438D01*
X20425713Y-6555438D02*
X20425713Y-6441152D01*
X20425713Y-6441152D02*
X20389999Y-6288771D01*
X20389999Y-6288771D02*
X20354285Y-6212580D01*
X20354285Y-6212580D02*
X20282856Y-6136390D01*
X20282856Y-6136390D02*
X20175713Y-6098295D01*
X20175713Y-6098295D02*
X20104285Y-6098295D01*
X20104285Y-6098295D02*
X19997142Y-6136390D01*
X19997142Y-6136390D02*
X19961428Y-6174485D01*
X19211428Y-6822104D02*
X19247142Y-6860200D01*
X19247142Y-6860200D02*
X19354285Y-6898295D01*
X19354285Y-6898295D02*
X19425713Y-6898295D01*
X19425713Y-6898295D02*
X19532856Y-6860200D01*
X19532856Y-6860200D02*
X19604285Y-6784009D01*
X19604285Y-6784009D02*
X19639999Y-6707819D01*
X19639999Y-6707819D02*
X19675713Y-6555438D01*
X19675713Y-6555438D02*
X19675713Y-6441152D01*
X19675713Y-6441152D02*
X19639999Y-6288771D01*
X19639999Y-6288771D02*
X19604285Y-6212580D01*
X19604285Y-6212580D02*
X19532856Y-6136390D01*
X19532856Y-6136390D02*
X19425713Y-6098295D01*
X19425713Y-6098295D02*
X19354285Y-6098295D01*
X19354285Y-6098295D02*
X19247142Y-6136390D01*
X19247142Y-6136390D02*
X19211428Y-6174485D01*
X23590713Y-6860200D02*
X23483571Y-6898295D01*
X23483571Y-6898295D02*
X23304999Y-6898295D01*
X23304999Y-6898295D02*
X23233571Y-6860200D01*
X23233571Y-6860200D02*
X23197856Y-6822104D01*
X23197856Y-6822104D02*
X23162142Y-6745914D01*
X23162142Y-6745914D02*
X23162142Y-6669723D01*
X23162142Y-6669723D02*
X23197856Y-6593533D01*
X23197856Y-6593533D02*
X23233571Y-6555438D01*
X23233571Y-6555438D02*
X23304999Y-6517342D01*
X23304999Y-6517342D02*
X23447856Y-6479247D01*
X23447856Y-6479247D02*
X23519285Y-6441152D01*
X23519285Y-6441152D02*
X23554999Y-6403057D01*
X23554999Y-6403057D02*
X23590713Y-6326866D01*
X23590713Y-6326866D02*
X23590713Y-6250676D01*
X23590713Y-6250676D02*
X23554999Y-6174485D01*
X23554999Y-6174485D02*
X23519285Y-6136390D01*
X23519285Y-6136390D02*
X23447856Y-6098295D01*
X23447856Y-6098295D02*
X23269285Y-6098295D01*
X23269285Y-6098295D02*
X23162142Y-6136390D01*
X22840713Y-6898295D02*
X22840713Y-6098295D01*
X22840713Y-6098295D02*
X22662142Y-6098295D01*
X22662142Y-6098295D02*
X22554999Y-6136390D01*
X22554999Y-6136390D02*
X22483570Y-6212580D01*
X22483570Y-6212580D02*
X22447856Y-6288771D01*
X22447856Y-6288771D02*
X22412142Y-6441152D01*
X22412142Y-6441152D02*
X22412142Y-6555438D01*
X22412142Y-6555438D02*
X22447856Y-6707819D01*
X22447856Y-6707819D02*
X22483570Y-6784009D01*
X22483570Y-6784009D02*
X22554999Y-6860200D01*
X22554999Y-6860200D02*
X22662142Y-6898295D01*
X22662142Y-6898295D02*
X22840713Y-6898295D01*
X22126427Y-6669723D02*
X21769285Y-6669723D01*
X22197856Y-6898295D02*
X21947856Y-6098295D01*
X21947856Y-6098295D02*
X21697856Y-6898295D01*
X20711428Y-11978390D02*
X20782857Y-11940295D01*
X20782857Y-11940295D02*
X20889999Y-11940295D01*
X20889999Y-11940295D02*
X20997142Y-11978390D01*
X20997142Y-11978390D02*
X21068571Y-12054580D01*
X21068571Y-12054580D02*
X21104285Y-12130771D01*
X21104285Y-12130771D02*
X21139999Y-12283152D01*
X21139999Y-12283152D02*
X21139999Y-12397438D01*
X21139999Y-12397438D02*
X21104285Y-12549819D01*
X21104285Y-12549819D02*
X21068571Y-12626009D01*
X21068571Y-12626009D02*
X20997142Y-12702200D01*
X20997142Y-12702200D02*
X20889999Y-12740295D01*
X20889999Y-12740295D02*
X20818571Y-12740295D01*
X20818571Y-12740295D02*
X20711428Y-12702200D01*
X20711428Y-12702200D02*
X20675714Y-12664104D01*
X20675714Y-12664104D02*
X20675714Y-12397438D01*
X20675714Y-12397438D02*
X20818571Y-12397438D01*
X20354285Y-12740295D02*
X20354285Y-11940295D01*
X20354285Y-11940295D02*
X19925714Y-12740295D01*
X19925714Y-12740295D02*
X19925714Y-11940295D01*
X19568571Y-12740295D02*
X19568571Y-11940295D01*
X19568571Y-11940295D02*
X19390000Y-11940295D01*
X19390000Y-11940295D02*
X19282857Y-11978390D01*
X19282857Y-11978390D02*
X19211428Y-12054580D01*
X19211428Y-12054580D02*
X19175714Y-12130771D01*
X19175714Y-12130771D02*
X19140000Y-12283152D01*
X19140000Y-12283152D02*
X19140000Y-12397438D01*
X19140000Y-12397438D02*
X19175714Y-12549819D01*
X19175714Y-12549819D02*
X19211428Y-12626009D01*
X19211428Y-12626009D02*
X19282857Y-12702200D01*
X19282857Y-12702200D02*
X19390000Y-12740295D01*
X19390000Y-12740295D02*
X19568571Y-12740295D01*
X27724142Y-11978390D02*
X27795571Y-11940295D01*
X27795571Y-11940295D02*
X27902713Y-11940295D01*
X27902713Y-11940295D02*
X28009856Y-11978390D01*
X28009856Y-11978390D02*
X28081285Y-12054580D01*
X28081285Y-12054580D02*
X28116999Y-12130771D01*
X28116999Y-12130771D02*
X28152713Y-12283152D01*
X28152713Y-12283152D02*
X28152713Y-12397438D01*
X28152713Y-12397438D02*
X28116999Y-12549819D01*
X28116999Y-12549819D02*
X28081285Y-12626009D01*
X28081285Y-12626009D02*
X28009856Y-12702200D01*
X28009856Y-12702200D02*
X27902713Y-12740295D01*
X27902713Y-12740295D02*
X27831285Y-12740295D01*
X27831285Y-12740295D02*
X27724142Y-12702200D01*
X27724142Y-12702200D02*
X27688428Y-12664104D01*
X27688428Y-12664104D02*
X27688428Y-12397438D01*
X27688428Y-12397438D02*
X27831285Y-12397438D01*
X27366999Y-12740295D02*
X27366999Y-11940295D01*
X27366999Y-11940295D02*
X27081285Y-11940295D01*
X27081285Y-11940295D02*
X27009856Y-11978390D01*
X27009856Y-11978390D02*
X26974142Y-12016485D01*
X26974142Y-12016485D02*
X26938428Y-12092676D01*
X26938428Y-12092676D02*
X26938428Y-12206961D01*
X26938428Y-12206961D02*
X26974142Y-12283152D01*
X26974142Y-12283152D02*
X27009856Y-12321247D01*
X27009856Y-12321247D02*
X27081285Y-12359342D01*
X27081285Y-12359342D02*
X27366999Y-12359342D01*
X26616999Y-12740295D02*
X26616999Y-11940295D01*
X26116999Y-11940295D02*
X25974142Y-11940295D01*
X25974142Y-11940295D02*
X25902713Y-11978390D01*
X25902713Y-11978390D02*
X25831285Y-12054580D01*
X25831285Y-12054580D02*
X25795570Y-12206961D01*
X25795570Y-12206961D02*
X25795570Y-12473628D01*
X25795570Y-12473628D02*
X25831285Y-12626009D01*
X25831285Y-12626009D02*
X25902713Y-12702200D01*
X25902713Y-12702200D02*
X25974142Y-12740295D01*
X25974142Y-12740295D02*
X26116999Y-12740295D01*
X26116999Y-12740295D02*
X26188428Y-12702200D01*
X26188428Y-12702200D02*
X26259856Y-12626009D01*
X26259856Y-12626009D02*
X26295570Y-12473628D01*
X26295570Y-12473628D02*
X26295570Y-12206961D01*
X26295570Y-12206961D02*
X26259856Y-12054580D01*
X26259856Y-12054580D02*
X26188428Y-11978390D01*
X26188428Y-11978390D02*
X26116999Y-11940295D01*
X25509856Y-12016485D02*
X25474142Y-11978390D01*
X25474142Y-11978390D02*
X25402714Y-11940295D01*
X25402714Y-11940295D02*
X25224142Y-11940295D01*
X25224142Y-11940295D02*
X25152714Y-11978390D01*
X25152714Y-11978390D02*
X25116999Y-12016485D01*
X25116999Y-12016485D02*
X25081285Y-12092676D01*
X25081285Y-12092676D02*
X25081285Y-12168866D01*
X25081285Y-12168866D02*
X25116999Y-12283152D01*
X25116999Y-12283152D02*
X25545571Y-12740295D01*
X25545571Y-12740295D02*
X25081285Y-12740295D01*
X27724142Y-6136390D02*
X27795571Y-6098295D01*
X27795571Y-6098295D02*
X27902713Y-6098295D01*
X27902713Y-6098295D02*
X28009856Y-6136390D01*
X28009856Y-6136390D02*
X28081285Y-6212580D01*
X28081285Y-6212580D02*
X28116999Y-6288771D01*
X28116999Y-6288771D02*
X28152713Y-6441152D01*
X28152713Y-6441152D02*
X28152713Y-6555438D01*
X28152713Y-6555438D02*
X28116999Y-6707819D01*
X28116999Y-6707819D02*
X28081285Y-6784009D01*
X28081285Y-6784009D02*
X28009856Y-6860200D01*
X28009856Y-6860200D02*
X27902713Y-6898295D01*
X27902713Y-6898295D02*
X27831285Y-6898295D01*
X27831285Y-6898295D02*
X27724142Y-6860200D01*
X27724142Y-6860200D02*
X27688428Y-6822104D01*
X27688428Y-6822104D02*
X27688428Y-6555438D01*
X27688428Y-6555438D02*
X27831285Y-6555438D01*
X27366999Y-6898295D02*
X27366999Y-6098295D01*
X27366999Y-6098295D02*
X27081285Y-6098295D01*
X27081285Y-6098295D02*
X27009856Y-6136390D01*
X27009856Y-6136390D02*
X26974142Y-6174485D01*
X26974142Y-6174485D02*
X26938428Y-6250676D01*
X26938428Y-6250676D02*
X26938428Y-6364961D01*
X26938428Y-6364961D02*
X26974142Y-6441152D01*
X26974142Y-6441152D02*
X27009856Y-6479247D01*
X27009856Y-6479247D02*
X27081285Y-6517342D01*
X27081285Y-6517342D02*
X27366999Y-6517342D01*
X26616999Y-6898295D02*
X26616999Y-6098295D01*
X26116999Y-6098295D02*
X25974142Y-6098295D01*
X25974142Y-6098295D02*
X25902713Y-6136390D01*
X25902713Y-6136390D02*
X25831285Y-6212580D01*
X25831285Y-6212580D02*
X25795570Y-6364961D01*
X25795570Y-6364961D02*
X25795570Y-6631628D01*
X25795570Y-6631628D02*
X25831285Y-6784009D01*
X25831285Y-6784009D02*
X25902713Y-6860200D01*
X25902713Y-6860200D02*
X25974142Y-6898295D01*
X25974142Y-6898295D02*
X26116999Y-6898295D01*
X26116999Y-6898295D02*
X26188428Y-6860200D01*
X26188428Y-6860200D02*
X26259856Y-6784009D01*
X26259856Y-6784009D02*
X26295570Y-6631628D01*
X26295570Y-6631628D02*
X26295570Y-6364961D01*
X26295570Y-6364961D02*
X26259856Y-6212580D01*
X26259856Y-6212580D02*
X26188428Y-6136390D01*
X26188428Y-6136390D02*
X26116999Y-6098295D01*
X25081285Y-6898295D02*
X25509856Y-6898295D01*
X25295571Y-6898295D02*
X25295571Y-6098295D01*
X25295571Y-6098295D02*
X25366999Y-6212580D01*
X25366999Y-6212580D02*
X25438428Y-6288771D01*
X25438428Y-6288771D02*
X25509856Y-6326866D01*
X23572856Y-12702200D02*
X23465714Y-12740295D01*
X23465714Y-12740295D02*
X23287142Y-12740295D01*
X23287142Y-12740295D02*
X23215714Y-12702200D01*
X23215714Y-12702200D02*
X23179999Y-12664104D01*
X23179999Y-12664104D02*
X23144285Y-12587914D01*
X23144285Y-12587914D02*
X23144285Y-12511723D01*
X23144285Y-12511723D02*
X23179999Y-12435533D01*
X23179999Y-12435533D02*
X23215714Y-12397438D01*
X23215714Y-12397438D02*
X23287142Y-12359342D01*
X23287142Y-12359342D02*
X23429999Y-12321247D01*
X23429999Y-12321247D02*
X23501428Y-12283152D01*
X23501428Y-12283152D02*
X23537142Y-12245057D01*
X23537142Y-12245057D02*
X23572856Y-12168866D01*
X23572856Y-12168866D02*
X23572856Y-12092676D01*
X23572856Y-12092676D02*
X23537142Y-12016485D01*
X23537142Y-12016485D02*
X23501428Y-11978390D01*
X23501428Y-11978390D02*
X23429999Y-11940295D01*
X23429999Y-11940295D02*
X23251428Y-11940295D01*
X23251428Y-11940295D02*
X23144285Y-11978390D01*
X22394285Y-12664104D02*
X22429999Y-12702200D01*
X22429999Y-12702200D02*
X22537142Y-12740295D01*
X22537142Y-12740295D02*
X22608570Y-12740295D01*
X22608570Y-12740295D02*
X22715713Y-12702200D01*
X22715713Y-12702200D02*
X22787142Y-12626009D01*
X22787142Y-12626009D02*
X22822856Y-12549819D01*
X22822856Y-12549819D02*
X22858570Y-12397438D01*
X22858570Y-12397438D02*
X22858570Y-12283152D01*
X22858570Y-12283152D02*
X22822856Y-12130771D01*
X22822856Y-12130771D02*
X22787142Y-12054580D01*
X22787142Y-12054580D02*
X22715713Y-11978390D01*
X22715713Y-11978390D02*
X22608570Y-11940295D01*
X22608570Y-11940295D02*
X22537142Y-11940295D01*
X22537142Y-11940295D02*
X22429999Y-11978390D01*
X22429999Y-11978390D02*
X22394285Y-12016485D01*
X21715713Y-12740295D02*
X22072856Y-12740295D01*
X22072856Y-12740295D02*
X22072856Y-11940295D01*
X65824142Y-6136390D02*
X65895571Y-6098295D01*
X65895571Y-6098295D02*
X66002713Y-6098295D01*
X66002713Y-6098295D02*
X66109856Y-6136390D01*
X66109856Y-6136390D02*
X66181285Y-6212580D01*
X66181285Y-6212580D02*
X66216999Y-6288771D01*
X66216999Y-6288771D02*
X66252713Y-6441152D01*
X66252713Y-6441152D02*
X66252713Y-6555438D01*
X66252713Y-6555438D02*
X66216999Y-6707819D01*
X66216999Y-6707819D02*
X66181285Y-6784009D01*
X66181285Y-6784009D02*
X66109856Y-6860200D01*
X66109856Y-6860200D02*
X66002713Y-6898295D01*
X66002713Y-6898295D02*
X65931285Y-6898295D01*
X65931285Y-6898295D02*
X65824142Y-6860200D01*
X65824142Y-6860200D02*
X65788428Y-6822104D01*
X65788428Y-6822104D02*
X65788428Y-6555438D01*
X65788428Y-6555438D02*
X65931285Y-6555438D01*
X65466999Y-6898295D02*
X65466999Y-6098295D01*
X65466999Y-6098295D02*
X65181285Y-6098295D01*
X65181285Y-6098295D02*
X65109856Y-6136390D01*
X65109856Y-6136390D02*
X65074142Y-6174485D01*
X65074142Y-6174485D02*
X65038428Y-6250676D01*
X65038428Y-6250676D02*
X65038428Y-6364961D01*
X65038428Y-6364961D02*
X65074142Y-6441152D01*
X65074142Y-6441152D02*
X65109856Y-6479247D01*
X65109856Y-6479247D02*
X65181285Y-6517342D01*
X65181285Y-6517342D02*
X65466999Y-6517342D01*
X64716999Y-6898295D02*
X64716999Y-6098295D01*
X64216999Y-6098295D02*
X64074142Y-6098295D01*
X64074142Y-6098295D02*
X64002713Y-6136390D01*
X64002713Y-6136390D02*
X63931285Y-6212580D01*
X63931285Y-6212580D02*
X63895570Y-6364961D01*
X63895570Y-6364961D02*
X63895570Y-6631628D01*
X63895570Y-6631628D02*
X63931285Y-6784009D01*
X63931285Y-6784009D02*
X64002713Y-6860200D01*
X64002713Y-6860200D02*
X64074142Y-6898295D01*
X64074142Y-6898295D02*
X64216999Y-6898295D01*
X64216999Y-6898295D02*
X64288428Y-6860200D01*
X64288428Y-6860200D02*
X64359856Y-6784009D01*
X64359856Y-6784009D02*
X64395570Y-6631628D01*
X64395570Y-6631628D02*
X64395570Y-6364961D01*
X64395570Y-6364961D02*
X64359856Y-6212580D01*
X64359856Y-6212580D02*
X64288428Y-6136390D01*
X64288428Y-6136390D02*
X64216999Y-6098295D01*
X63181285Y-6898295D02*
X63609856Y-6898295D01*
X63395571Y-6898295D02*
X63395571Y-6098295D01*
X63395571Y-6098295D02*
X63466999Y-6212580D01*
X63466999Y-6212580D02*
X63538428Y-6288771D01*
X63538428Y-6288771D02*
X63609856Y-6326866D01*
X59239999Y-6098295D02*
X58989999Y-6898295D01*
X58989999Y-6898295D02*
X58739999Y-6098295D01*
X58061428Y-6822104D02*
X58097142Y-6860200D01*
X58097142Y-6860200D02*
X58204285Y-6898295D01*
X58204285Y-6898295D02*
X58275713Y-6898295D01*
X58275713Y-6898295D02*
X58382856Y-6860200D01*
X58382856Y-6860200D02*
X58454285Y-6784009D01*
X58454285Y-6784009D02*
X58489999Y-6707819D01*
X58489999Y-6707819D02*
X58525713Y-6555438D01*
X58525713Y-6555438D02*
X58525713Y-6441152D01*
X58525713Y-6441152D02*
X58489999Y-6288771D01*
X58489999Y-6288771D02*
X58454285Y-6212580D01*
X58454285Y-6212580D02*
X58382856Y-6136390D01*
X58382856Y-6136390D02*
X58275713Y-6098295D01*
X58275713Y-6098295D02*
X58204285Y-6098295D01*
X58204285Y-6098295D02*
X58097142Y-6136390D01*
X58097142Y-6136390D02*
X58061428Y-6174485D01*
X57311428Y-6822104D02*
X57347142Y-6860200D01*
X57347142Y-6860200D02*
X57454285Y-6898295D01*
X57454285Y-6898295D02*
X57525713Y-6898295D01*
X57525713Y-6898295D02*
X57632856Y-6860200D01*
X57632856Y-6860200D02*
X57704285Y-6784009D01*
X57704285Y-6784009D02*
X57739999Y-6707819D01*
X57739999Y-6707819D02*
X57775713Y-6555438D01*
X57775713Y-6555438D02*
X57775713Y-6441152D01*
X57775713Y-6441152D02*
X57739999Y-6288771D01*
X57739999Y-6288771D02*
X57704285Y-6212580D01*
X57704285Y-6212580D02*
X57632856Y-6136390D01*
X57632856Y-6136390D02*
X57525713Y-6098295D01*
X57525713Y-6098295D02*
X57454285Y-6098295D01*
X57454285Y-6098295D02*
X57347142Y-6136390D01*
X57347142Y-6136390D02*
X57311428Y-6174485D01*
X61690713Y-6860200D02*
X61583571Y-6898295D01*
X61583571Y-6898295D02*
X61404999Y-6898295D01*
X61404999Y-6898295D02*
X61333571Y-6860200D01*
X61333571Y-6860200D02*
X61297856Y-6822104D01*
X61297856Y-6822104D02*
X61262142Y-6745914D01*
X61262142Y-6745914D02*
X61262142Y-6669723D01*
X61262142Y-6669723D02*
X61297856Y-6593533D01*
X61297856Y-6593533D02*
X61333571Y-6555438D01*
X61333571Y-6555438D02*
X61404999Y-6517342D01*
X61404999Y-6517342D02*
X61547856Y-6479247D01*
X61547856Y-6479247D02*
X61619285Y-6441152D01*
X61619285Y-6441152D02*
X61654999Y-6403057D01*
X61654999Y-6403057D02*
X61690713Y-6326866D01*
X61690713Y-6326866D02*
X61690713Y-6250676D01*
X61690713Y-6250676D02*
X61654999Y-6174485D01*
X61654999Y-6174485D02*
X61619285Y-6136390D01*
X61619285Y-6136390D02*
X61547856Y-6098295D01*
X61547856Y-6098295D02*
X61369285Y-6098295D01*
X61369285Y-6098295D02*
X61262142Y-6136390D01*
X60940713Y-6898295D02*
X60940713Y-6098295D01*
X60940713Y-6098295D02*
X60762142Y-6098295D01*
X60762142Y-6098295D02*
X60654999Y-6136390D01*
X60654999Y-6136390D02*
X60583570Y-6212580D01*
X60583570Y-6212580D02*
X60547856Y-6288771D01*
X60547856Y-6288771D02*
X60512142Y-6441152D01*
X60512142Y-6441152D02*
X60512142Y-6555438D01*
X60512142Y-6555438D02*
X60547856Y-6707819D01*
X60547856Y-6707819D02*
X60583570Y-6784009D01*
X60583570Y-6784009D02*
X60654999Y-6860200D01*
X60654999Y-6860200D02*
X60762142Y-6898295D01*
X60762142Y-6898295D02*
X60940713Y-6898295D01*
X60226427Y-6669723D02*
X59869285Y-6669723D01*
X60297856Y-6898295D02*
X60047856Y-6098295D01*
X60047856Y-6098295D02*
X59797856Y-6898295D01*
X61672856Y-12702200D02*
X61565714Y-12740295D01*
X61565714Y-12740295D02*
X61387142Y-12740295D01*
X61387142Y-12740295D02*
X61315714Y-12702200D01*
X61315714Y-12702200D02*
X61279999Y-12664104D01*
X61279999Y-12664104D02*
X61244285Y-12587914D01*
X61244285Y-12587914D02*
X61244285Y-12511723D01*
X61244285Y-12511723D02*
X61279999Y-12435533D01*
X61279999Y-12435533D02*
X61315714Y-12397438D01*
X61315714Y-12397438D02*
X61387142Y-12359342D01*
X61387142Y-12359342D02*
X61529999Y-12321247D01*
X61529999Y-12321247D02*
X61601428Y-12283152D01*
X61601428Y-12283152D02*
X61637142Y-12245057D01*
X61637142Y-12245057D02*
X61672856Y-12168866D01*
X61672856Y-12168866D02*
X61672856Y-12092676D01*
X61672856Y-12092676D02*
X61637142Y-12016485D01*
X61637142Y-12016485D02*
X61601428Y-11978390D01*
X61601428Y-11978390D02*
X61529999Y-11940295D01*
X61529999Y-11940295D02*
X61351428Y-11940295D01*
X61351428Y-11940295D02*
X61244285Y-11978390D01*
X60494285Y-12664104D02*
X60529999Y-12702200D01*
X60529999Y-12702200D02*
X60637142Y-12740295D01*
X60637142Y-12740295D02*
X60708570Y-12740295D01*
X60708570Y-12740295D02*
X60815713Y-12702200D01*
X60815713Y-12702200D02*
X60887142Y-12626009D01*
X60887142Y-12626009D02*
X60922856Y-12549819D01*
X60922856Y-12549819D02*
X60958570Y-12397438D01*
X60958570Y-12397438D02*
X60958570Y-12283152D01*
X60958570Y-12283152D02*
X60922856Y-12130771D01*
X60922856Y-12130771D02*
X60887142Y-12054580D01*
X60887142Y-12054580D02*
X60815713Y-11978390D01*
X60815713Y-11978390D02*
X60708570Y-11940295D01*
X60708570Y-11940295D02*
X60637142Y-11940295D01*
X60637142Y-11940295D02*
X60529999Y-11978390D01*
X60529999Y-11978390D02*
X60494285Y-12016485D01*
X59815713Y-12740295D02*
X60172856Y-12740295D01*
X60172856Y-12740295D02*
X60172856Y-11940295D01*
X58811428Y-11978390D02*
X58882857Y-11940295D01*
X58882857Y-11940295D02*
X58989999Y-11940295D01*
X58989999Y-11940295D02*
X59097142Y-11978390D01*
X59097142Y-11978390D02*
X59168571Y-12054580D01*
X59168571Y-12054580D02*
X59204285Y-12130771D01*
X59204285Y-12130771D02*
X59239999Y-12283152D01*
X59239999Y-12283152D02*
X59239999Y-12397438D01*
X59239999Y-12397438D02*
X59204285Y-12549819D01*
X59204285Y-12549819D02*
X59168571Y-12626009D01*
X59168571Y-12626009D02*
X59097142Y-12702200D01*
X59097142Y-12702200D02*
X58989999Y-12740295D01*
X58989999Y-12740295D02*
X58918571Y-12740295D01*
X58918571Y-12740295D02*
X58811428Y-12702200D01*
X58811428Y-12702200D02*
X58775714Y-12664104D01*
X58775714Y-12664104D02*
X58775714Y-12397438D01*
X58775714Y-12397438D02*
X58918571Y-12397438D01*
X58454285Y-12740295D02*
X58454285Y-11940295D01*
X58454285Y-11940295D02*
X58025714Y-12740295D01*
X58025714Y-12740295D02*
X58025714Y-11940295D01*
X57668571Y-12740295D02*
X57668571Y-11940295D01*
X57668571Y-11940295D02*
X57490000Y-11940295D01*
X57490000Y-11940295D02*
X57382857Y-11978390D01*
X57382857Y-11978390D02*
X57311428Y-12054580D01*
X57311428Y-12054580D02*
X57275714Y-12130771D01*
X57275714Y-12130771D02*
X57240000Y-12283152D01*
X57240000Y-12283152D02*
X57240000Y-12397438D01*
X57240000Y-12397438D02*
X57275714Y-12549819D01*
X57275714Y-12549819D02*
X57311428Y-12626009D01*
X57311428Y-12626009D02*
X57382857Y-12702200D01*
X57382857Y-12702200D02*
X57490000Y-12740295D01*
X57490000Y-12740295D02*
X57668571Y-12740295D01*
X65824142Y-11978390D02*
X65895571Y-11940295D01*
X65895571Y-11940295D02*
X66002713Y-11940295D01*
X66002713Y-11940295D02*
X66109856Y-11978390D01*
X66109856Y-11978390D02*
X66181285Y-12054580D01*
X66181285Y-12054580D02*
X66216999Y-12130771D01*
X66216999Y-12130771D02*
X66252713Y-12283152D01*
X66252713Y-12283152D02*
X66252713Y-12397438D01*
X66252713Y-12397438D02*
X66216999Y-12549819D01*
X66216999Y-12549819D02*
X66181285Y-12626009D01*
X66181285Y-12626009D02*
X66109856Y-12702200D01*
X66109856Y-12702200D02*
X66002713Y-12740295D01*
X66002713Y-12740295D02*
X65931285Y-12740295D01*
X65931285Y-12740295D02*
X65824142Y-12702200D01*
X65824142Y-12702200D02*
X65788428Y-12664104D01*
X65788428Y-12664104D02*
X65788428Y-12397438D01*
X65788428Y-12397438D02*
X65931285Y-12397438D01*
X65466999Y-12740295D02*
X65466999Y-11940295D01*
X65466999Y-11940295D02*
X65181285Y-11940295D01*
X65181285Y-11940295D02*
X65109856Y-11978390D01*
X65109856Y-11978390D02*
X65074142Y-12016485D01*
X65074142Y-12016485D02*
X65038428Y-12092676D01*
X65038428Y-12092676D02*
X65038428Y-12206961D01*
X65038428Y-12206961D02*
X65074142Y-12283152D01*
X65074142Y-12283152D02*
X65109856Y-12321247D01*
X65109856Y-12321247D02*
X65181285Y-12359342D01*
X65181285Y-12359342D02*
X65466999Y-12359342D01*
X64716999Y-12740295D02*
X64716999Y-11940295D01*
X64216999Y-11940295D02*
X64074142Y-11940295D01*
X64074142Y-11940295D02*
X64002713Y-11978390D01*
X64002713Y-11978390D02*
X63931285Y-12054580D01*
X63931285Y-12054580D02*
X63895570Y-12206961D01*
X63895570Y-12206961D02*
X63895570Y-12473628D01*
X63895570Y-12473628D02*
X63931285Y-12626009D01*
X63931285Y-12626009D02*
X64002713Y-12702200D01*
X64002713Y-12702200D02*
X64074142Y-12740295D01*
X64074142Y-12740295D02*
X64216999Y-12740295D01*
X64216999Y-12740295D02*
X64288428Y-12702200D01*
X64288428Y-12702200D02*
X64359856Y-12626009D01*
X64359856Y-12626009D02*
X64395570Y-12473628D01*
X64395570Y-12473628D02*
X64395570Y-12206961D01*
X64395570Y-12206961D02*
X64359856Y-12054580D01*
X64359856Y-12054580D02*
X64288428Y-11978390D01*
X64288428Y-11978390D02*
X64216999Y-11940295D01*
X63609856Y-12016485D02*
X63574142Y-11978390D01*
X63574142Y-11978390D02*
X63502714Y-11940295D01*
X63502714Y-11940295D02*
X63324142Y-11940295D01*
X63324142Y-11940295D02*
X63252714Y-11978390D01*
X63252714Y-11978390D02*
X63216999Y-12016485D01*
X63216999Y-12016485D02*
X63181285Y-12092676D01*
X63181285Y-12092676D02*
X63181285Y-12168866D01*
X63181285Y-12168866D02*
X63216999Y-12283152D01*
X63216999Y-12283152D02*
X63645571Y-12740295D01*
X63645571Y-12740295D02*
X63181285Y-12740295D01*
D12*
%TO.C,X2*%
X15314000Y-5266000D02*
X15314000Y-13648000D01*
X15314000Y-13648000D02*
X30046000Y-13648000D01*
X20140000Y-5266000D02*
X15314000Y-5266000D01*
X29959640Y-5215200D02*
X25220000Y-5215200D01*
X30046000Y-13648000D02*
X30046000Y-5266000D01*
D13*
%TO.C,G\u002A\u002A\u002A*%
X79688889Y-12236888D02*
X77572220Y-12236888D01*
X77572222Y-13054647D01*
X79674779Y-13069445D01*
X79690626Y-13760890D01*
X74917598Y-13760889D01*
X74925520Y-13415167D01*
X74933445Y-13069445D01*
X75942390Y-13062033D01*
X76951335Y-13054620D01*
X76951334Y-12236890D01*
X74919333Y-12236888D01*
X74919333Y-11559558D01*
X79688889Y-11559556D01*
X79688889Y-12236888D01*
G36*
X79688889Y-12236888D02*
G01*
X77572220Y-12236888D01*
X77572222Y-13054647D01*
X79674779Y-13069445D01*
X79690626Y-13760890D01*
X74917598Y-13760889D01*
X74925520Y-13415167D01*
X74933445Y-13069445D01*
X75942390Y-13062033D01*
X76951335Y-13054620D01*
X76951334Y-12236890D01*
X74919333Y-12236888D01*
X74919333Y-11559558D01*
X79688889Y-11559556D01*
X79688889Y-12236888D01*
G37*
X79688888Y-17683778D02*
X77656889Y-17683778D01*
X77656888Y-18075915D01*
X78059056Y-18202528D01*
X78075733Y-18207778D01*
X78235156Y-18257841D01*
X78430644Y-18319082D01*
X78646352Y-18386541D01*
X78866438Y-18455268D01*
X79075056Y-18520303D01*
X79688888Y-18711467D01*
X79688890Y-19437359D01*
X79625389Y-19417677D01*
X79623073Y-19416947D01*
X79576302Y-19401534D01*
X79483152Y-19370411D01*
X79349911Y-19325691D01*
X79182859Y-19269492D01*
X78988280Y-19203921D01*
X78772462Y-19131100D01*
X78541684Y-19053136D01*
X77521483Y-18708275D01*
X77418949Y-18845616D01*
X77416533Y-18848841D01*
X77278013Y-19001201D01*
X77115208Y-19118021D01*
X76921389Y-19202238D01*
X76689833Y-19256785D01*
X76413818Y-19284606D01*
X76236641Y-19288099D01*
X75940169Y-19265090D01*
X75678042Y-19205094D01*
X75453801Y-19109061D01*
X75270973Y-18977938D01*
X75219302Y-18928490D01*
X75133785Y-18833675D01*
X75065794Y-18733888D01*
X75013436Y-18621800D01*
X74974814Y-18490080D01*
X74948029Y-18331398D01*
X74931190Y-18138425D01*
X74922395Y-17903829D01*
X74920343Y-17683779D01*
X75561045Y-17683779D01*
X75574058Y-17976343D01*
X75575727Y-18010682D01*
X75590639Y-18179371D01*
X75618001Y-18304507D01*
X75662643Y-18396729D01*
X75729397Y-18466681D01*
X75823091Y-18525007D01*
X75873919Y-18549453D01*
X75926251Y-18567630D01*
X75987646Y-18578593D01*
X76069936Y-18583616D01*
X76184961Y-18583964D01*
X76344557Y-18580907D01*
X76400098Y-18579453D01*
X76578591Y-18571019D01*
X76712192Y-18555623D01*
X76809980Y-18530124D01*
X76881036Y-18491389D01*
X76934440Y-18436276D01*
X76979278Y-18361653D01*
X76979770Y-18360686D01*
X77007647Y-18293568D01*
X77024856Y-18215728D01*
X77033578Y-18111977D01*
X77035999Y-17967125D01*
X77036000Y-17683778D01*
X75561045Y-17683779D01*
X74920343Y-17683779D01*
X74919751Y-17620278D01*
X74919333Y-16978223D01*
X77036000Y-16978224D01*
X79688889Y-16978221D01*
X79688888Y-17683778D01*
G36*
X79688888Y-17683778D02*
G01*
X77656889Y-17683778D01*
X77656888Y-18075915D01*
X78059056Y-18202528D01*
X78075733Y-18207778D01*
X78235156Y-18257841D01*
X78430644Y-18319082D01*
X78646352Y-18386541D01*
X78866438Y-18455268D01*
X79075056Y-18520303D01*
X79688888Y-18711467D01*
X79688890Y-19437359D01*
X79625389Y-19417677D01*
X79623073Y-19416947D01*
X79576302Y-19401534D01*
X79483152Y-19370411D01*
X79349911Y-19325691D01*
X79182859Y-19269492D01*
X78988280Y-19203921D01*
X78772462Y-19131100D01*
X78541684Y-19053136D01*
X77521483Y-18708275D01*
X77418949Y-18845616D01*
X77416533Y-18848841D01*
X77278013Y-19001201D01*
X77115208Y-19118021D01*
X76921389Y-19202238D01*
X76689833Y-19256785D01*
X76413818Y-19284606D01*
X76236641Y-19288099D01*
X75940169Y-19265090D01*
X75678042Y-19205094D01*
X75453801Y-19109061D01*
X75270973Y-18977938D01*
X75219302Y-18928490D01*
X75133785Y-18833675D01*
X75065794Y-18733888D01*
X75013436Y-18621800D01*
X74974814Y-18490080D01*
X74948029Y-18331398D01*
X74931190Y-18138425D01*
X74922395Y-17903829D01*
X74920343Y-17683779D01*
X75561045Y-17683779D01*
X75574058Y-17976343D01*
X75575727Y-18010682D01*
X75590639Y-18179371D01*
X75618001Y-18304507D01*
X75662643Y-18396729D01*
X75729397Y-18466681D01*
X75823091Y-18525007D01*
X75873919Y-18549453D01*
X75926251Y-18567630D01*
X75987646Y-18578593D01*
X76069936Y-18583616D01*
X76184961Y-18583964D01*
X76344557Y-18580907D01*
X76400098Y-18579453D01*
X76578591Y-18571019D01*
X76712192Y-18555623D01*
X76809980Y-18530124D01*
X76881036Y-18491389D01*
X76934440Y-18436276D01*
X76979278Y-18361653D01*
X76979770Y-18360686D01*
X77007647Y-18293568D01*
X77024856Y-18215728D01*
X77033578Y-18111977D01*
X77035999Y-17967125D01*
X77036000Y-17683778D01*
X75561045Y-17683779D01*
X74920343Y-17683779D01*
X74919751Y-17620278D01*
X74919333Y-16978223D01*
X77036000Y-16978224D01*
X79688889Y-16978221D01*
X79688888Y-17683778D01*
G37*
X79666772Y-14071897D02*
X79675335Y-14105496D01*
X79681177Y-14183481D01*
X79683794Y-14295316D01*
X79682677Y-14430481D01*
X79674778Y-14789633D01*
X78905722Y-15071481D01*
X78854531Y-15090282D01*
X78662690Y-15161460D01*
X78490926Y-15226309D01*
X78345841Y-15282259D01*
X78234034Y-15326739D01*
X78162109Y-15357177D01*
X78136668Y-15371003D01*
X78137686Y-15372298D01*
X78172779Y-15389637D01*
X78252980Y-15423058D01*
X78371627Y-15469960D01*
X78522056Y-15527746D01*
X78697605Y-15593816D01*
X78891612Y-15665567D01*
X78927440Y-15678721D01*
X79120176Y-15749919D01*
X79294451Y-15815017D01*
X79443350Y-15871380D01*
X79559954Y-15916371D01*
X79637341Y-15947353D01*
X79668601Y-15961687D01*
X79669402Y-15962625D01*
X79676975Y-16001242D01*
X79682008Y-16083781D01*
X79684064Y-16198795D01*
X79682712Y-16334838D01*
X79674778Y-16688763D01*
X77191222Y-15708486D01*
X76090556Y-16149348D01*
X75969907Y-16197668D01*
X75741060Y-16289307D01*
X75530740Y-16373501D01*
X75344592Y-16447994D01*
X75188260Y-16510528D01*
X75067389Y-16558847D01*
X74987625Y-16590685D01*
X74954611Y-16603790D01*
X74944858Y-16602878D01*
X74932701Y-16576558D01*
X74924834Y-16513626D01*
X74920600Y-16407484D01*
X74919333Y-16251543D01*
X74919333Y-15885713D01*
X75596666Y-15637668D01*
X75756804Y-15578490D01*
X75924224Y-15515351D01*
X76066694Y-15460245D01*
X76177171Y-15415936D01*
X76248619Y-15385206D01*
X76274000Y-15370822D01*
X76260289Y-15361993D01*
X76200644Y-15335496D01*
X76100322Y-15294929D01*
X75966541Y-15243119D01*
X75806518Y-15182899D01*
X75627463Y-15117101D01*
X75498795Y-15070189D01*
X75328773Y-15007676D01*
X75181127Y-14952780D01*
X75063538Y-14908379D01*
X74983687Y-14877361D01*
X74949252Y-14862604D01*
X74940147Y-14848246D01*
X74928945Y-14781960D01*
X74924094Y-14662346D01*
X74925511Y-14488014D01*
X74933444Y-14132999D01*
X76043156Y-14567834D01*
X76169585Y-14617278D01*
X76399457Y-14706672D01*
X76610751Y-14788188D01*
X76797809Y-14859688D01*
X76954978Y-14919026D01*
X77076607Y-14964066D01*
X77157043Y-14992660D01*
X77190630Y-15002666D01*
X77215312Y-14995656D01*
X77288647Y-14970157D01*
X77404615Y-14927933D01*
X77557799Y-14871016D01*
X77742778Y-14801434D01*
X77954131Y-14721219D01*
X78186437Y-14632397D01*
X78434277Y-14537000D01*
X78644813Y-14455848D01*
X78878933Y-14365975D01*
X79092528Y-14284377D01*
X79280245Y-14213077D01*
X79436737Y-14154099D01*
X79556653Y-14109467D01*
X79634650Y-14081204D01*
X79665369Y-14071335D01*
X79666772Y-14071897D01*
G36*
X79666772Y-14071897D02*
G01*
X79675335Y-14105496D01*
X79681177Y-14183481D01*
X79683794Y-14295316D01*
X79682677Y-14430481D01*
X79674778Y-14789633D01*
X78905722Y-15071481D01*
X78854531Y-15090282D01*
X78662690Y-15161460D01*
X78490926Y-15226309D01*
X78345841Y-15282259D01*
X78234034Y-15326739D01*
X78162109Y-15357177D01*
X78136668Y-15371003D01*
X78137686Y-15372298D01*
X78172779Y-15389637D01*
X78252980Y-15423058D01*
X78371627Y-15469960D01*
X78522056Y-15527746D01*
X78697605Y-15593816D01*
X78891612Y-15665567D01*
X78927440Y-15678721D01*
X79120176Y-15749919D01*
X79294451Y-15815017D01*
X79443350Y-15871380D01*
X79559954Y-15916371D01*
X79637341Y-15947353D01*
X79668601Y-15961687D01*
X79669402Y-15962625D01*
X79676975Y-16001242D01*
X79682008Y-16083781D01*
X79684064Y-16198795D01*
X79682712Y-16334838D01*
X79674778Y-16688763D01*
X77191222Y-15708486D01*
X76090556Y-16149348D01*
X75969907Y-16197668D01*
X75741060Y-16289307D01*
X75530740Y-16373501D01*
X75344592Y-16447994D01*
X75188260Y-16510528D01*
X75067389Y-16558847D01*
X74987625Y-16590685D01*
X74954611Y-16603790D01*
X74944858Y-16602878D01*
X74932701Y-16576558D01*
X74924834Y-16513626D01*
X74920600Y-16407484D01*
X74919333Y-16251543D01*
X74919333Y-15885713D01*
X75596666Y-15637668D01*
X75756804Y-15578490D01*
X75924224Y-15515351D01*
X76066694Y-15460245D01*
X76177171Y-15415936D01*
X76248619Y-15385206D01*
X76274000Y-15370822D01*
X76260289Y-15361993D01*
X76200644Y-15335496D01*
X76100322Y-15294929D01*
X75966541Y-15243119D01*
X75806518Y-15182899D01*
X75627463Y-15117101D01*
X75498795Y-15070189D01*
X75328773Y-15007676D01*
X75181127Y-14952780D01*
X75063538Y-14908379D01*
X74983687Y-14877361D01*
X74949252Y-14862604D01*
X74940147Y-14848246D01*
X74928945Y-14781960D01*
X74924094Y-14662346D01*
X74925511Y-14488014D01*
X74933444Y-14132999D01*
X76043156Y-14567834D01*
X76169585Y-14617278D01*
X76399457Y-14706672D01*
X76610751Y-14788188D01*
X76797809Y-14859688D01*
X76954978Y-14919026D01*
X77076607Y-14964066D01*
X77157043Y-14992660D01*
X77190630Y-15002666D01*
X77215312Y-14995656D01*
X77288647Y-14970157D01*
X77404615Y-14927933D01*
X77557799Y-14871016D01*
X77742778Y-14801434D01*
X77954131Y-14721219D01*
X78186437Y-14632397D01*
X78434277Y-14537000D01*
X78644813Y-14455848D01*
X78878933Y-14365975D01*
X79092528Y-14284377D01*
X79280245Y-14213077D01*
X79436737Y-14154099D01*
X79556653Y-14109467D01*
X79634650Y-14081204D01*
X79665369Y-14071335D01*
X79666772Y-14071897D01*
G37*
%TD*%
M02*
