M48
; DRILL file {KiCad 8.99.0-2433-g53022ab347} date 2024-10-05T16:52:03+0200
; FORMAT={-:-/ absolute / inch / decimal}
; #@! TF.CreationDate,2024-10-05T16:52:03+02:00
; #@! TF.GenerationSoftware,Kicad,Pcbnew,8.99.0-2433-g53022ab347
; #@! TF.FileFunction,Plated,1,2,PTH
FMAT,2
INCH
; #@! TA.AperFunction,Plated,PTH,ViaDrill
T1C0.0157
; #@! TA.AperFunction,Plated,PTH,ComponentDrill
T2C0.0157
; #@! TA.AperFunction,Plated,PTH,ComponentDrill
T3C0.0394
; #@! TA.AperFunction,Plated,PTH,ComponentDrill
T4C0.0400
; #@! TA.AperFunction,Plated,PTH,ComponentDrill
T5C0.0866
%
G90
G05
T1
X0.5709Y-0.4154
X1.1063Y-0.4193
X2.1988Y-0.4193
X2.565Y-0.3622
X2.7462Y-1.2974
X2.8031Y-1.2795
X3.2579Y-0.9665
T2
X0.0531Y-0.1181
X0.0531Y-1.2992
X0.0722Y-0.0722
X0.0722Y-0.164
X0.0722Y-1.2533
X0.0722Y-1.3451
X0.1181Y-0.0531
X0.1181Y-0.1831
X0.1181Y-1.2343
X0.1181Y-1.3642
X0.164Y-0.0722
X0.164Y-0.164
X0.164Y-1.2533
X0.164Y-1.3451
X0.1831Y-0.1181
X0.1831Y-1.2992
X3.2028Y-0.1181
X3.2028Y-1.2992
X3.2218Y-0.0722
X3.2218Y-0.164
X3.2218Y-1.2533
X3.2218Y-1.3451
X3.2677Y-0.0531
X3.2677Y-0.1831
X3.2677Y-1.2343
X3.2677Y-1.3642
X3.3137Y-0.0722
X3.3137Y-0.164
X3.3137Y-1.2533
X3.3137Y-1.3451
X3.3327Y-0.1181
X3.3327Y-1.2992
T3
X0.5429Y-1.3673
X0.6429Y-1.3673
X0.7429Y-1.3673
X0.8429Y-1.3673
X0.9429Y-1.3673
X1.0429Y-1.3673
X1.1429Y-1.3673
X1.2429Y-1.3673
X1.9429Y-1.3673
X2.0429Y-1.3673
X2.1429Y-1.3673
X2.2429Y-1.3673
X2.3429Y-1.3673
X2.4429Y-1.3673
X2.5429Y-1.3673
X2.6429Y-1.3673
X2.7429Y-1.3673
X2.8429Y-1.3673
T4
X0.7953Y-0.3181
X0.7953Y-0.4181
X0.8953Y-0.3181
X0.8953Y-0.4181
X0.9953Y-0.3181
X0.9953Y-0.4181
X2.2953Y-0.3181
X2.2953Y-0.4181
X2.3953Y-0.3181
X2.3953Y-0.4181
X2.4953Y-0.3181
X2.4953Y-0.4181
T5
X0.1181Y-0.1181
X0.1181Y-1.2992
X3.2677Y-0.1181
X3.2677Y-1.2992
M30
